<svg id="deliv_self" xmlns="http://www.w3.org/2000/svg" width="52.607" height="52.607" viewBox="0 0 52.607 52.607">
  <path id="deliv_self-2" data-name="deliv_self" d="M26.3,52.607a26.3,26.3,0,1,1,26.3-26.3,26.3,26.3,0,0,1-26.3,26.3Zm0-50.5A24.2,24.2,0,1,0,50.5,26.3,24.2,24.2,0,0,0,26.3,2.1ZM42.832,33.837,31.838,37.445a.527.527,0,0,1-.663-.337l-.2-.6a.527.527,0,0,1,.337-.663l10.995-3.609a.527.527,0,0,1,.663.337l.2.6a.527.527,0,0,1-.337.663Zm-.147-3.83L28.692,34.6a.527.527,0,0,1-.663-.337l-1.673-5.1a.527.527,0,0,1,.337-.663l13.993-4.6a.527.527,0,0,1,.663.337l1.673,5.092a.534.534,0,0,1-.337.673Zm-7.46-5.85-9,2.957a.527.527,0,0,1-.663-.337l-1.641-5a.527.527,0,0,1,.337-.663l9-2.957a.527.527,0,0,1,.663.337l1.641,5a.536.536,0,0,1-.337.663ZM25.2,34.089l-.505.168a.527.527,0,0,1-.663-.337L18.465,16.981l-2.788-.547a.531.531,0,0,1-.452.126l-4.135-.81a.535.535,0,0,1-.421-.621l.105-.516a.535.535,0,0,1,.621-.421L15.53,15a.518.518,0,0,1,.41.4l3.419.673a.5.5,0,0,1,.484.179.532.532,0,0,1,.168.389l5.513,16.782a.509.509,0,0,1-.326.663Zm.326,1a3.683,3.683,0,1,1-2.346,4.65,3.693,3.693,0,0,1,2.346-4.65Zm-.347,3.988a1.577,1.577,0,1,0,1.01-1.989,1.576,1.576,0,0,0-1.01,1.989Z" fill="#ea4967" fill-rule="evenodd"/>
</svg>
