<svg xmlns="http://www.w3.org/2000/svg" width="52.607" height="52.607" viewBox="0 0 52.607 52.607">
  <path id="deliv_pay" d="M26.3,52.607a26.3,26.3,0,1,1,26.3-26.3,26.306,26.306,0,0,1-26.3,26.3Zm0-50.5A24.2,24.2,0,1,0,50.5,26.3,24.2,24.2,0,0,0,26.3,2.1ZM41.023,35.762h-.631A4.418,4.418,0,0,0,37.424,31.6l-1.031-.231c-.147-.011-.284-.021-.431-.021a4.421,4.421,0,0,0-4.429,4.419H23.926a4.43,4.43,0,0,0-8.859,0H12.531A2.528,2.528,0,0,1,10,33.237V17.455a2.528,2.528,0,0,1,2.536-2.525h13.93A2.528,2.528,0,0,1,29,17.455V28.818h1.263V21.243A2.528,2.528,0,0,1,32.8,18.717h3.619a2.843,2.843,0,0,1,2.252,1.6l4.293,8.564a5.057,5.057,0,0,1,.589,2.252,1.41,1.41,0,0,1,.011.21v1.894a2.528,2.528,0,0,1-2.536,2.525ZM19.633,17.781a5.692,5.692,0,1,0,5.692,5.692,5.689,5.689,0,0,0-5.692-5.692Zm20.906,8.964-3.188-6.029a1.552,1.552,0,0,0-1.136-.7,1.124,1.124,0,0,0-.263-.032H34.678a1.266,1.266,0,0,0-1.263,1.263v4.419a1.266,1.266,0,0,0,1.263,1.263h.936c1.9,0,1.252,1.894,3.156,1.894h.747c1.115,0,1.547-.978,1.021-2.073Zm-18.223-3.23h-2.01v3.746a.486.486,0,0,1-.505.473.492.492,0,0,1-.505-.473V23.515h-2.01a.494.494,0,0,1-.505-.484.486.486,0,0,1,.505-.473h5.029a.492.492,0,0,1,.505.473.5.5,0,0,1-.505.484Zm0-1.925H17.287a.484.484,0,1,1,0-.968h5.029a.484.484,0,1,1,0,.968ZM19.5,32.606a3.156,3.156,0,1,1-3.167,3.156A3.161,3.161,0,0,1,19.5,32.606Zm0,5.05a1.894,1.894,0,1,0-1.9-1.894,1.9,1.9,0,0,0,1.9,1.894Zm16.466-5.05A3.156,3.156,0,1,1,32.8,35.762a3.161,3.161,0,0,1,3.167-3.156Zm0,5.05a1.894,1.894,0,1,0-1.9-1.894,1.9,1.9,0,0,0,1.9,1.894Z" fill="#ea4967" fill-rule="evenodd"/>
</svg>
