<svg id="appstore" xmlns="http://www.w3.org/2000/svg" xmlns:xlink="http://www.w3.org/1999/xlink" width="128" height="38" viewBox="0 0 128 38">
                                        <defs>
                                          <clipPath id="clip-path">
                                            <rect id="Прямоугольник_1875" data-name="Прямоугольник 1875" width="128" height="38" fill="#fff"/>
                                          </clipPath>
                                        </defs>
                                        <g id="appstore-2" data-name="appstore" clip-path="url(#clip-path)">
                                          <path id="Контур_1170" data-name="Контур 1170" d="M123.4,38H4.5A4.481,4.481,0,0,1,0,33.5V4.5A4.481,4.481,0,0,1,4.5,0h119a4.567,4.567,0,0,1,4.6,4.5v29A4.722,4.722,0,0,1,123.4,38Z" fill="#fff"/>
                                          <path id="Контур_1171" data-name="Контур 1171" d="M43.6,11.7a1.689,1.689,0,0,1-1-.3.909.909,0,0,1-.4-.8h-.8a1.689,1.689,0,0,0,.3,1,1.555,1.555,0,0,0,.8.6,3.6,3.6,0,0,0,1.1.2,2.86,2.86,0,0,0,1.7-.5,1.612,1.612,0,0,0,.6-1.3,1.588,1.588,0,0,0-1.1-1.5,1.057,1.057,0,0,0,.7-.6,1.135,1.135,0,0,0,.3-.8,1.486,1.486,0,0,0-.6-1.3A3.1,3.1,0,0,0,43.6,6a3.6,3.6,0,0,0-1.1.2,2.407,2.407,0,0,0-.8.6,1.613,1.613,0,0,0-.3.9h.8a.755.755,0,0,1,.4-.7,1.4,1.4,0,0,1,.9-.3,1.493,1.493,0,0,1,1,.3.749.749,0,0,1,.5.8,1.135,1.135,0,0,1-.3.8,1.327,1.327,0,0,1-1,.3H43v.7h.8c.9,0,1.4.4,1.4,1.1a.909.909,0,0,1-.4.8A4.3,4.3,0,0,1,43.6,11.7Z"/>
                                          <path id="Контур_1172" data-name="Контур 1172" d="M48.9,9.5a2.537,2.537,0,0,0-1.6.4,1.255,1.255,0,0,0-.6,1.1,1.284,1.284,0,0,0,.4,1,1.5,1.5,0,0,0,1.1.4,1.612,1.612,0,0,0,1.3-.6,4.331,4.331,0,0,0,.1.5h.8v-.1a2.958,2.958,0,0,1-.2-1V9.1A1.433,1.433,0,0,0,49.7,8a1.7,1.7,0,0,0-1.3-.4,2.388,2.388,0,0,0-.9.2,1.794,1.794,0,0,0-.7.5.844.844,0,0,0-.2.7h.8a.55.55,0,0,1,.3-.5,1.445,1.445,0,0,1,.7-.2,1.165,1.165,0,0,1,.7.2.908.908,0,0,1,.3.7v.4h-.5Zm.8,1.5a1.205,1.205,0,0,1-.5.5,1.854,1.854,0,0,1-.7.2.845.845,0,0,1-.6-.2.6.6,0,0,1-.3-.6q0-.9,1.5-.9h.6Z"/>
                                          <path id="Контур_1173" data-name="Контур 1173" d="M52.6,8.3h2.1V7.7H51.8v4.6h.8Z"/>
                                          <path id="Контур_1174" data-name="Контур 1174" d="M56.2,11.9a1.536,1.536,0,0,0,1.3.5,1.486,1.486,0,0,0,1.3-.6,2.86,2.86,0,0,0,.5-1.7V10a2.86,2.86,0,0,0-.5-1.7,1.612,1.612,0,0,0-1.3-.6,1.816,1.816,0,0,0-1.4.6V7.8h-.7v6.4h.8Zm0-3a1.149,1.149,0,0,1,1.1-.6,1.05,1.05,0,0,1,.9.5,2.133,2.133,0,0,1,.3,1.2,2.269,2.269,0,0,1-.3,1.3,1.05,1.05,0,0,1-.9.5,1.149,1.149,0,0,1-1.1-.6Z"/>
                                          <path id="Контур_1175" data-name="Контур 1175" d="M62.9,7.7l-1.1,3.5L60.6,7.7h-.9l1.7,4.6-.2.5a.918.918,0,0,1-.4.6,1.421,1.421,0,0,1-.6.2H60v.6l.3.1h.2c.6,0,1.1-.4,1.4-1.2l1.9-5.3h-.9Z"/>
                                          <path id="Контур_1176" data-name="Контур 1176" d="M66.1,11.8a1.884,1.884,0,0,1-.8-.2A.864.864,0,0,1,65,11h-.8a1.606,1.606,0,0,0,.5,1.1,2.01,2.01,0,0,0,1.3.4,1.7,1.7,0,0,0,1.3-.4,1.231,1.231,0,0,0,.5-1A1.17,1.17,0,0,0,67,10a1,1,0,0,0,.5-.4,1.421,1.421,0,0,0,.2-.6,1.231,1.231,0,0,0-.5-1,2.269,2.269,0,0,0-1.3-.3,2.01,2.01,0,0,0-1.3.4,1.389,1.389,0,0,0-.5,1h.8a.55.55,0,0,1,.3-.5,1.325,1.325,0,0,1,1.4,0c.2.1.2.3.2.5a.713.713,0,0,1-.8.7h-.9v.7h.8a1.165,1.165,0,0,1,.7.2c.2.1.2.3.2.6a.55.55,0,0,1-.3.5C66.7,11.7,66.4,11.8,66.1,11.8Z"/>
                                          <path id="Контур_1177" data-name="Контур 1177" d="M69.9,11.1V7.7h-.8v4.6h.8L72,8.9v3.4h.8V7.7H72Z"/>
                                          <path id="Контур_1178" data-name="Контур 1178" d="M76,12.3v-4h1.6V7.7H73.7v.6h1.5v4Z"/>
                                          <path id="Контур_1179" data-name="Контур 1179" d="M79.9,12.4a2.019,2.019,0,0,0,1.8-.9l-.5-.4c-.1.2-.3.3-.5.5a1.445,1.445,0,0,1-.7.2,1.284,1.284,0,0,1-1-.4,1.366,1.366,0,0,1-.4-1.1h3.2V9.9a2.86,2.86,0,0,0-.5-1.7,1.885,1.885,0,0,0-2.4-.3,1.779,1.779,0,0,0-.7.8,2.663,2.663,0,0,0-.3,1.2V10a2.523,2.523,0,0,0,.6,1.7A1.513,1.513,0,0,0,79.9,12.4ZM79,8.6a1.217,1.217,0,0,1,1.6,0,1.222,1.222,0,0,1,.3.9v.1H78.6A2.321,2.321,0,0,1,79,8.6Z"/>
                                          <path id="Контур_1180" data-name="Контур 1180" d="M88.4,12a1.1,1.1,0,0,0,.5-1,.908.908,0,0,0-.3-.7,1.612,1.612,0,0,0-.7-.4,1.275,1.275,0,0,0,.6-.4,1.421,1.421,0,0,0,.2-.6,1.05,1.05,0,0,0-.5-.9,2.649,2.649,0,0,0-1.4-.3H85v4.6h2A2.649,2.649,0,0,0,88.4,12ZM85.7,8.3h1.1c.7,0,1.1.2,1.1.7s-.4.6-1.1.6h-1V8.3Zm0,2H87c.7,0,1,.2,1,.7a.764.764,0,0,1-.2.5,1.445,1.445,0,0,1-.7.2H85.8V10.3Z"/>
                                          <path id="Контур_1181" data-name="Контур 1181" d="M25.4,10.4a5.129,5.129,0,0,0,1.2-3.8A5.923,5.923,0,0,0,23,8.4a4.827,4.827,0,0,0-1.3,3.7A4.516,4.516,0,0,0,25.4,10.4Z"/>
                                          <path id="Контур_1182" data-name="Контур 1182" d="M28.5,19.3a5.747,5.747,0,0,1,2.6-4.6,5.541,5.541,0,0,0-4.4-2.4,6.83,6.83,0,0,0-3.2.7,5.617,5.617,0,0,1-1.5.4,5.617,5.617,0,0,1-1.5-.4,7.052,7.052,0,0,0-2.5-.6,6.022,6.022,0,0,0-5,3c-2.2,3.7-.5,9.1,1.5,12.1,1,1.5,2.2,3.1,3.8,3a3.743,3.743,0,0,0,1.8-.5,4.473,4.473,0,0,1,2.2-.5,5.89,5.89,0,0,1,2.1.5,3.807,3.807,0,0,0,1.9.4c1.7,0,2.7-1.5,3.7-2.9a11.524,11.524,0,0,0,1.7-3.4A5.21,5.21,0,0,1,28.5,19.3Z"/>
                                          <path id="Контур_1183" data-name="Контур 1183" d="M80.4,22.1a4.732,4.732,0,0,1-1.8-1,1.425,1.425,0,0,1-.6-1.2,1.606,1.606,0,0,1,.5-1.1,2.86,2.86,0,0,1,1.7-.5,4.751,4.751,0,0,1,2.4.6l.5-1.6a6.235,6.235,0,0,0-2.9-.6,4.454,4.454,0,0,0-3.1,1,3.17,3.17,0,0,0-1.2,2.5q0,2.4,3.3,3.6a3.8,3.8,0,0,1,1.7,1,1.536,1.536,0,0,1,.5,1.3,1.816,1.816,0,0,1-.6,1.4A2.969,2.969,0,0,1,79,28a5.736,5.736,0,0,1-2.9-.8l-.5,1.7a6.182,6.182,0,0,0,3.3.8,4.954,4.954,0,0,0,3.4-1.1A3.143,3.143,0,0,0,83.4,26a3.3,3.3,0,0,0-.8-2.2A3.634,3.634,0,0,0,80.4,22.1Z"/>
                                          <path id="Контур_1184" data-name="Контур 1184" d="M44.2,16.8,40.1,29.3h2.1l1.1-3.7h4.1l1.2,3.7h2.2L46.7,16.8Zm-.4,7.3,1.1-3.3a20.678,20.678,0,0,0,.6-2.4l.6,2.4,1.1,3.3Z"/>
                                          <path id="Контур_1185" data-name="Контур 1185" d="M57.6,20.1a3.366,3.366,0,0,0-3.1,1.6l-.1-1.4H52.6c0,1,.1,2,.1,3V33h2V28.2a2.722,2.722,0,0,0,2.6,1.3,3.784,3.784,0,0,0,2.8-1.2,5.27,5.27,0,0,0,1.3-3.6,4.859,4.859,0,0,0-1.1-3.3A3.5,3.5,0,0,0,57.6,20.1Zm1,7a2.019,2.019,0,0,1-1.8.9,1.865,1.865,0,0,1-1.6-.7,2.523,2.523,0,0,1-.6-1.7V24.1a1.268,1.268,0,0,1,.1-.6,2.223,2.223,0,0,1,.8-1.3,2.389,2.389,0,0,1,1.4-.5,2.271,2.271,0,0,1,1.8.9,3.8,3.8,0,0,1,.6,2.2A4.176,4.176,0,0,1,58.6,27.1Z"/>
                                          <path id="Контур_1186" data-name="Контур 1186" d="M68,20.1a3.366,3.366,0,0,0-3.1,1.6l-.1-1.4H63c0,1,.1,2,.1,3V33h2V28.2a2.722,2.722,0,0,0,2.6,1.3,3.784,3.784,0,0,0,2.8-1.2,5.27,5.27,0,0,0,1.3-3.6,4.859,4.859,0,0,0-1.1-3.3A3.225,3.225,0,0,0,68,20.1Zm1.1,7a2.019,2.019,0,0,1-1.8.9,1.865,1.865,0,0,1-1.6-.7,2.523,2.523,0,0,1-.6-1.7V24.1a1.268,1.268,0,0,1,.1-.6,2.223,2.223,0,0,1,.8-1.3,2.389,2.389,0,0,1,1.4-.5,2.271,2.271,0,0,1,1.8.9,3.8,3.8,0,0,1,.6,2.2A4.176,4.176,0,0,1,69.1,27.1Z"/>
                                          <path id="Контур_1187" data-name="Контур 1187" d="M88,18l-2,.6v1.7H84.7v1.5H86v4.6a3.136,3.136,0,0,0,.7,2.4,2.489,2.489,0,0,0,1.9.7,6.267,6.267,0,0,0,1.6-.2l-.1-1.5a2.22,2.22,0,0,1-.9.1c-.8,0-1.2-.6-1.2-1.7V21.8h2.2V20.3H88Z"/>
                                          <path id="Контур_1188" data-name="Контур 1188" d="M95.9,20.1a4.156,4.156,0,0,0-3.3,1.3,4.871,4.871,0,0,0-1.2,3.4,4.79,4.79,0,0,0,1.2,3.3,4.08,4.08,0,0,0,3.2,1.3A4.223,4.223,0,0,0,99.1,28a4.871,4.871,0,0,0,1.2-3.4,4.459,4.459,0,0,0-1.2-3.3A4.076,4.076,0,0,0,95.9,20.1ZM97.7,27a2.023,2.023,0,0,1-3.6,0,3.645,3.645,0,0,1-.5-2.1,4.767,4.767,0,0,1,.5-2.2A2.036,2.036,0,0,1,96,21.6a1.992,1.992,0,0,1,1.8,1.1,3.645,3.645,0,0,1,.5,2.1A5.549,5.549,0,0,1,97.7,27Z"/>
                                          <path id="Контур_1189" data-name="Контур 1189" d="M105,20.6a2.805,2.805,0,0,0-1,1.4h-.1l-.1-1.7H102c0,.9.1,1.8.1,2.8v6.2h2V24.6a3.453,3.453,0,0,1,.5-1.8,2,2,0,0,1,1.7-.8,1.268,1.268,0,0,1,.6.1V20.2h-.5A1.792,1.792,0,0,0,105,20.6Z"/>
                                          <path id="Контур_1190" data-name="Контур 1190" d="M116,24.4a4.878,4.878,0,0,0-.8-2.8,3.365,3.365,0,0,0-3-1.4,4.158,4.158,0,0,0-3.2,1.4,4.813,4.813,0,0,0-1.1,3.4,4.152,4.152,0,0,0,4.5,4.5,7.456,7.456,0,0,0,3.1-.6l-.3-1.4a6.566,6.566,0,0,1-2.5.4,3.173,3.173,0,0,1-2-.6,2.518,2.518,0,0,1-.9-2h6.1A2.768,2.768,0,0,0,116,24.4Zm-6.2-.5a4.419,4.419,0,0,1,.6-1.6,2.088,2.088,0,0,1,1.6-.8,1.816,1.816,0,0,1,1.6.8,2.41,2.41,0,0,1,.4,1.5Z"/>
                                        </g>
                                      </svg>