<svg xmlns="http://www.w3.org/2000/svg" width="22.179" height="22.179" viewBox="0 0 22.179 22.179">
  <g id="Icon_exit_solid" transform="translate(22.179) rotate(90)">
    <path id="Path" d="M4.436,0A4.436,4.436,0,0,0,0,4.436V9.98H11.739L9.2,7.438a1.109,1.109,0,1,1,1.568-1.568L15.2,10.305a1.109,1.109,0,0,1,0,1.568l-4.436,4.436A1.109,1.109,0,1,1,9.2,14.741L11.739,12.2H0v5.545a4.436,4.436,0,0,0,4.436,4.436H17.743a4.436,4.436,0,0,0,4.436-4.436V4.436A4.436,4.436,0,0,0,17.743,0Z" fill="#ea4967"/>
  </g>
</svg>
