 <svg xmlns="http://www.w3.org/2000/svg" width="264.917" height="238.725" viewBox="0 0 264.917 238.725">
                                    <g id="Сгруппировать_747" data-name="Сгруппировать 747" transform="translate(-328.4 -115.023)">
                                      <path id="Контур_1386" data-name="Контур 1386" d="M444.1,115.052l0,0c.016-.01.031-.023.048-.032Z" transform="translate(-21.854)" fill="#56438c"/>
                                      <g id="Сгруппировать_746" data-name="Сгруппировать 746" transform="translate(328.4 130.475)">
                                        <g id="Сгруппировать_722" data-name="Сгруппировать 722" transform="translate(21.814 8.263)">
                                          <path id="Контур_1387" data-name="Контур 1387" d="M575.122,187.549c-12.249-16.4-31.089-26.694-50.406-33.468-34.625-12.142-73.856-14.159-107.533.407s-60.311,47.465-61.786,84.127c-1.29,32.073,9.447,68.367,34.308,88.672s58.232,28.589,90.254,26.368c39.544-2.742,67.633-18.837,93.34-49.009a31.513,31.513,0,0,0,7.245-16.5c.5-4.049-1.106-10.029-6.542-8.206a37.331,37.331,0,0,0-4.075,2.149c-1.387.665-3.144.956-4.392.057-1.282-.924-1.533-2.715-1.517-4.3.137-13.126,11.6-21.955,17.606-32.618C591.669,227.392,587.372,203.949,575.122,187.549ZM420.633,170.307a14.744,14.744,0,0,1-5.259,4.73,10.634,10.634,0,0,1-4.417,1.792,4.111,4.111,0,0,1-4.091-1.93,5.109,5.109,0,0,1,.432-4.451,14.22,14.22,0,0,1,9.9-7.509C421.734,162.131,422.621,166.94,420.633,170.307Zm14.3-6.289a4.076,4.076,0,0,1-4.029,2.545,4.158,4.158,0,0,1-3.612-3.129c-.846-3.661,3.307-6.04,6.255-3.961A4,4,0,0,1,434.933,164.019Zm106.252,159.7a2.583,2.583,0,0,1-.248-2.8c1.119-2.4,6.877-8.936,8.032-3.821C549.728,320.462,544.3,327.07,541.184,323.72Z" transform="translate(-355.293 -144.26)" fill="#b9f3ff"/>
                                          <path id="Контур_1388" data-name="Контур 1388" d="M650.257,279.074c-1.371-1.339-3.6-1.276-5.423-.692a12.575,12.575,0,0,0-7.852,7.531c-1,2.719-1.577,8.325,1.42,10.137,2.786,1.685,7.152-.706,9.006-2.772a17.837,17.837,0,0,0,3.716-8.208C651.579,283.007,651.768,280.551,650.257,279.074Z" transform="translate(-408.347 -169.519)" fill="#b9f3ff"/>
                                        </g>
                                        <g id="Сгруппировать_745" data-name="Сгруппировать 745">
                                          <g id="Сгруппировать_724" data-name="Сгруппировать 724" transform="translate(61.091 0.875)">
                                            <path id="Контур_1389" data-name="Контур 1389" d="M590.544,182.072l.008,0-.038-.069a10.8,10.8,0,0,0-.763-1.4l-5.48-10.037-2.018,5.062L506.9,150.5c-6.8-2.269-15.131,1.691-18.6,8.848L412.533,315.678l-7.47.659,6.24,11.425.011-.014a10.74,10.74,0,0,0,6.667,6.216l77.126,25.724c6.8,2.269,15.128-1.7,18.594-8.852l76.36-157.553A13.232,13.232,0,0,0,590.544,182.072Z" transform="translate(-403.971 -137.929)" fill="#797c99"/>
                                            <g id="Сгруппировать_723" data-name="Сгруппировать 723">
                                              <path id="Контур_1390" data-name="Контур 1390" d="M500.186,135.791l77.126,25.724c6.8,2.269,9.5,9.908,6.033,17.065L506.986,336.134c-3.466,7.151-11.793,11.12-18.594,8.851l-77.126-25.724c-6.8-2.269-9.505-9.916-6.04-17.068l76.36-157.553C485.055,137.482,493.384,133.522,500.186,135.791Z" transform="translate(-403.717 -135.152)" fill="#495375"/>
                                              <path id="Контур_1391" data-name="Контур 1391" d="M493.5,342.039a8.03,8.03,0,0,1-2.537-.4l-77.126-25.724a6.08,6.08,0,0,1-3.8-3.467,8.728,8.728,0,0,1,.491-7.13l76.36-157.554a12.11,12.11,0,0,1,10.375-6.854,8.025,8.025,0,0,1,2.541.4l77.126,25.725a6.072,6.072,0,0,1,3.8,3.461,8.737,8.737,0,0,1-.493,7.134L503.87,335.184A12.111,12.111,0,0,1,493.5,342.039Z" transform="translate(-404.805 -136.24)" fill="#96e4ff"/>
                                              <path id="Контур_1392" data-name="Контур 1392" d="M561.777,195.326c-4.932.681-10.123,2.495-14.7.543-4.367-1.861-6.679-6.52-9.54-10.307a32.427,32.427,0,0,0-57.409,12.013c-2.225,9.31-.36,19.625-4.685,28.165-3.085,6.093-8.844,10.281-13.992,14.771s-10.127,10.077-10.639,16.887c-.824,10.94,10.078,21.754,5.422,31.688-1.654,3.528-4.972,5.939-7.381,9-6.766,8.6-5.4,21.484.291,30.826q1.059,1.737,2.271,3.353l46.123,15.384a8.03,8.03,0,0,0,2.537.4,12.111,12.111,0,0,0,10.374-6.856l69.179-142.736A30.8,30.8,0,0,0,561.777,195.326Z" transform="translate(-411.383 -142.25)" fill="#6bc5ff"/>
                                            </g>
                                          </g>
                                          <g id="Сгруппировать_744" data-name="Сгруппировать 744">
                                            <g id="Сгруппировать_729" data-name="Сгруппировать 729" transform="translate(0 48.851)">
                                              <g id="Сгруппировать_725" data-name="Сгруппировать 725" transform="translate(31.613 0)">
                                                <path id="Контур_1393" data-name="Контур 1393" d="M368.543,228.417a1.168,1.168,0,0,1-1.168-1.168v-31.78a1.168,1.168,0,0,1,2.3-.3L377.89,226.5a1.169,1.169,0,0,1-2.261.593l-5.918-22.564v22.723A1.168,1.168,0,0,1,368.543,228.417Z" transform="translate(-367.375 -194.3)" fill="#422c4f"/>
                                              </g>
                                              <g id="Сгруппировать_727" data-name="Сгруппировать 727" transform="translate(0 25.213)">
                                                <path id="Контур_1394" data-name="Контур 1394" d="M328.4,316.509l6.658-91.125h24.15l-6.658,91.125Z" transform="translate(-328.4 -225.384)" fill="#df8d6d"/>
                                                <g id="Сгруппировать_726" data-name="Сгруппировать 726" transform="translate(24.15)">
                                                  <path id="Контур_1395" data-name="Контур 1395" d="M385.723,316.509H358.174l6.658-91.125h14.232Z" transform="translate(-358.174 -225.384)" fill="#bd6c67"/>
                                                  <path id="Контур_1396" data-name="Контур 1396" d="M375.156,225.385v82.558l.179-1.648a367.1,367.1,0,0,0-.179-80.91Z" transform="translate(-361.382 -225.385)" fill="#a64f5a"/>
                                                  <path id="Контур_1397" data-name="Контур 1397" d="M358.174,335.735l13.774-8.566,13.774,8.566Z" transform="translate(-358.174 -244.61)" fill="#a64f5a"/>
                                                </g>
                                              </g>
                                              <g id="Сгруппировать_728" data-name="Сгруппировать 728" transform="translate(9.598)">
                                                <path id="Контур_1398" data-name="Контур 1398" d="M341.4,228.993a1.154,1.154,0,0,1-.316-.044,1.168,1.168,0,0,1-.809-1.441l2.336-8.312a1.173,1.173,0,0,1,.221-.424l19.679-24.045a1.169,1.169,0,0,1,2,1.135l-8.6,23.947-1.394,8.21a1.168,1.168,0,0,1-2.3-.391l1.41-8.312a1.209,1.209,0,0,1,.052-.2l6.341-17.664L344.8,220.064l-2.27,8.077A1.168,1.168,0,0,1,341.4,228.993Z" transform="translate(-340.233 -194.3)" fill="#422c4f"/>
                                              </g>
                                            </g>
                                            <g id="Сгруппировать_731" data-name="Сгруппировать 731" transform="translate(19.415 26.575)">
                                              <path id="Контур_1399" data-name="Контур 1399" d="M355.077,184.278l-1.674,2.206a5.239,5.239,0,0,0,.012,6.351l6.464,8.445.569-.93a9.25,9.25,0,0,0-.883-10.863Z" transform="translate(-352.337 -170.132)" fill="#eba58e"/>
                                              <g id="Сгруппировать_730" data-name="Сгруппировать 730" transform="translate(1.213)">
                                                <path id="Контур_1400" data-name="Контур 1400" d="M428.105,237.442l-16.354,9.87-15.834-59.739a25.7,25.7,0,0,0-17.908-18.161l-8.47-2.373a5.45,5.45,0,0,0-5.727,1.844l-8.786,10.983a5.451,5.451,0,0,0,.436,7.294l7.586,7.453.915-1.35a6.829,6.829,0,0,0-.543-8.365l-1.053-1.187,6.717-6.133,6.619,6.62-7.255,3.869a6.894,6.894,0,0,0-2.463,2.216h0a4.671,4.671,0,0,0,1.7,6.758l1.5.784,1.974-2.334a8.615,8.615,0,0,1,5.871-3.021l2.376-.195,8.839,57.812A24.865,24.865,0,0,0,424.453,268.3l16.75-8.866Z" transform="translate(-353.832 -166.837)" fill="#f2c9ad"/>
                                                <path id="Контур_1401" data-name="Контур 1401" d="M444.561,253.883l-3.386,2.043a32.342,32.342,0,0,0,7.558,24.678l8.926-4.724Z" transform="translate(-370.288 -183.279)" fill="#422c4f"/>
                                              </g>
                                              <path id="Контур_1402" data-name="Контур 1402" d="M364.355,186.211l1.713-.4a7.759,7.759,0,0,1,5.19.584l3.652,1.789,2.78-1.483-6.619-6.62Z" transform="translate(-354.607 -169.338)" fill="#eba58e"/>
                                            </g>
                                            <g id="Сгруппировать_733" data-name="Сгруппировать 733" transform="translate(92.825 59.62)">
                                              <path id="Контур_1403" data-name="Контур 1403" d="M506.5,224.7l-20.8-2.344A27.353,27.353,0,0,0,466.85,227.2l-24.009,16.965h0a49.408,49.408,0,0,0,13.078,28.809l.55.588L473.99,261.1c2.337,45.166,36.182,86.674,36.182,86.674l59.985-123.768-27.9-14.362a18.661,18.661,0,0,0-20.528,2.291Z" transform="translate(-442.841 -207.577)" fill="#d53873"/>
                                              <g id="Сгруппировать_732" data-name="Сгруппировать 732" transform="translate(48.316 7.938)">
                                                <path id="Контур_1404" data-name="Контур 1404" d="M536.788,229a17.964,17.964,0,0,0-1.481-6.036,9.537,9.537,0,0,0-4.16-4.507,12.25,12.25,0,0,0-5.29-1.075,14.745,14.745,0,0,1,1.846.743,8.385,8.385,0,0,1,4.179,4.163c.861,2.138.474,4.574-.221,6.77a25.984,25.984,0,0,1-6.329,10.42l7.946,7.513A32.79,32.79,0,0,0,536.788,229Z" transform="translate(-506.738 -217.366)" fill="#f0bf6c"/>
                                                <path id="Контур_1405" data-name="Контур 1405" d="M504.76,228.015a13.566,13.566,0,0,1,.98-5.992,5.532,5.532,0,0,0-1.124,1.29,15.461,15.461,0,0,0-2.151,9.262,20.558,20.558,0,0,0,3.725,9.6,61.4,61.4,0,0,0,6.773,7.89l3.8-8.875a23.544,23.544,0,0,1-7.254-3.807A13.674,13.674,0,0,1,504.76,228.015Z" transform="translate(-502.408 -218.243)" fill="#f0bf6c"/>
                                                <path id="Контур_1406" data-name="Контур 1406" d="M528.092,222.282a8.385,8.385,0,0,0-4.179-4.163,14.746,14.746,0,0,0-1.846-.743c-.439-.011-.878-.015-1.313-.013a33.333,33.333,0,0,0-7.906.772,16.887,16.887,0,0,0-6.568,3.007,13.4,13.4,0,0,0,3.768,15.363,23.544,23.544,0,0,0,7.254,3.807l1.477-3.451,2.762,2.611a25.984,25.984,0,0,0,6.329-10.42C528.566,226.856,528.954,224.421,528.092,222.282Z" transform="translate(-502.949 -217.363)" fill="#eba25d"/>
                                              </g>
                                              <path id="Контур_1407" data-name="Контур 1407" d="M540.587,321.853c-2.188-.638-3.533-3.444-4.152-5.638s-.96-4.58-2.419-6.332c-1.587-1.907-4.323-2.824-5.336-5.088-1.488-3.325,1.686-7.1,1.031-10.682-.431-2.357-2.4-4.074-3.656-6.117a12.648,12.648,0,0,1-1.638-8.508,7.845,7.845,0,0,0-.873-5.324,16.622,16.622,0,0,1-1.982-8.01c-.059-3.811.737-7.577,1.059-11.375s.27-8.333-1.605-11.651l.738-1.725,1.183,1.119c1.1,1.042,1.3,4.852,1.48,6.3a32.1,32.1,0,0,1,.094,7.087c-.414,4.247-1.78,9.465-.583,13.728.792,2.817,2.088,4.093,2.446,7,.277,2.24.013,4.526.352,6.757a9.029,9.029,0,0,0,2.359,5.208c1.332,1.3,2.7,2.862,2.9,4.785.3,2.747-1.441,5.21-1.552,7.925a5.74,5.74,0,0,0,1.393,4.183c1.113,1.172,2.8,1.552,3.966,2.661,1.538,1.456,1.862,3.733,2.4,5.78s1.7,4.289,3.789,4.657" transform="translate(-457.607 -213.966)" fill="#f0bf6c"/>
                                              <path id="Контур_1408" data-name="Контур 1408" d="M533.5,267.087c.436,1.857-.322,3.625-1.693,3.946s-2.835-.924-3.27-2.782.322-3.625,1.693-3.946S533.067,265.229,533.5,267.087Z" transform="translate(-459.005 -218.283)" fill="#f0bf6c"/>
                                              <path id="Контур_1409" data-name="Контур 1409" d="M539.148,291.157c.436,1.858-.322,3.625-1.693,3.946s-2.835-.924-3.271-2.782.322-3.625,1.693-3.946S538.713,289.3,539.148,291.157Z" transform="translate(-460.071 -222.829)" fill="#f0bf6c"/>
                                              <ellipse id="Эллипс_115" data-name="Эллипс 115" cx="2.549" cy="3.456" rx="2.549" ry="3.456" transform="translate(77.836 84.487) rotate(-13.2)" fill="#f0bf6c"/>
                                              <path id="Контур_1410" data-name="Контур 1410" d="M451.7,246.009c.3,17.54,8.7,24.775,14.286,28.9l2.471-1.757c-12.071-6-15.285-23.773-14.262-28.9Z" transform="translate(-444.515 -214.503)" fill="#f0bf6c"/>
                                              <path id="Контур_1411" data-name="Контур 1411" d="M477.49,266.655c-.908-13.762,2.856-29.675,2.856-29.675-7.337,4.251-12.415,13.062-13.641,21.452a27.173,27.173,0,0,1-1.146,6.126c-.8,2.023-2.284,3.7-3.274,5.632s-1.4,5.6-.059,7.32Z" transform="translate(-446.342 -213.131)" fill="#422c4f" opacity="0.3"/>
                                              <path id="Контур_1412" data-name="Контур 1412" d="M577.47,245.2a32.692,32.692,0,0,1-21.159-26.052,18.942,18.942,0,0,0,1.7,15.2c1.425,2.5,3.455,4.707,4.271,7.466.771,2.6.368,5.386.238,8.1s.1,5.657,1.848,7.734A80.448,80.448,0,0,1,577.47,245.2Z" transform="translate(-464.105 -209.764)" fill="#422c4f" opacity="0.3"/>
                                              <path id="Контур_1413" data-name="Контур 1413" d="M507.2,336.589a185.028,185.028,0,0,0,15.124,22.669l43.517-89.788-13.964-1.1C549.587,292.806,530.109,323.709,507.2,336.589Z" transform="translate(-454.998 -219.06)" fill="#422c4f" opacity="0.3"/>
                                              <path id="Контур_1414" data-name="Контур 1414" d="M508.2,267.332a168.665,168.665,0,0,1-23.733-1.28,6.049,6.049,0,0,0,.217,3.483,72.725,72.725,0,0,0,23.526,1.853C508.131,270.315,508.282,268.4,508.2,267.332Z" transform="translate(-450.672 -218.622)" fill="#f0bf6c"/>
                                              <path id="Контур_1415" data-name="Контур 1415" d="M508.541,277.079a66.812,66.812,0,0,1-23.945-1.831,46.566,46.566,0,0,0,3.017,17.836,3.924,3.924,0,0,0,2.347,2.323c2.157.784,4.344,1.638,6.5,2.427a6.271,6.271,0,0,0,3.814.146c2.482-.68,5.009-1.289,7.511-1.939a3.863,3.863,0,0,0,2.791-4.727A65.913,65.913,0,0,1,508.541,277.079Z" transform="translate(-450.722 -220.359)" fill="#ff7094"/>
                                            </g>
                                            <g id="Сгруппировать_734" data-name="Сгруппировать 734" transform="translate(137.934 55.518)">
                                              <path id="Контур_1416" data-name="Контур 1416" d="M498.454,214.2l6.735,10.61a27.119,27.119,0,0,0,12.012,7.495c8.956-10.318,7.106-13.822,7.106-13.822l-7.56-15.964Z" transform="translate(-498.454 -202.52)" fill="#f2c9ad"/>
                                              <path id="Контур_1417" data-name="Контур 1417" d="M508.741,219.953a14.015,14.015,0,0,0,7.235-8.986,15.868,15.868,0,0,0-.007-7.835l-17.514,11.184,4.351,6.855A12.51,12.51,0,0,0,508.741,219.953Z" transform="translate(-498.454 -202.636)" fill="#422c4f"/>
                                            </g>
                                            <g id="Сгруппировать_743" data-name="Сгруппировать 743" transform="translate(107.303)">
                                              <g id="Сгруппировать_735" data-name="Сгруппировать 735" transform="translate(2.546)">
                                                <path id="Контур_1418" data-name="Контур 1418" d="M470.591,144.595c.822-2.507,3.487-4.048,6.112-4.318a19.406,19.406,0,0,1,7.753,1.284c1.838.582,3.665,1.2,5.485,1.834-1.2-2.625-2.7-5.561-5.1-6.712a22.8,22.8,0,0,0-7.934-2.537,13.728,13.728,0,0,0-8.391,1.722,9.572,9.572,0,0,0-4.648,7,16.383,16.383,0,0,0,1.022,6.25l1.664,5.534a7.222,7.222,0,0,0,1.016,2.334c1.2,1.586,3.437,1.907,5.424,1.866.12,0,.24-.011.36-.015l-2.3-8.222C470.5,148.649,469.953,146.538,470.591,144.595Z" transform="translate(-463.83 -134.074)" fill="#992d72"/>
                                                <path id="Контур_1419" data-name="Контур 1419" d="M491.448,144.826c-1.82-.635-3.647-1.252-5.485-1.834a19.406,19.406,0,0,0-7.753-1.284c-2.625.27-5.29,1.811-6.112,4.318-.638,1.943-.087,4.054.465,6.024l2.3,8.222a25.734,25.734,0,0,0,15.515-5.954,6.961,6.961,0,0,0,2.59-3.584,7.134,7.134,0,0,0-.844-4.416C491.908,145.845,491.684,145.34,491.448,144.826Z" transform="translate(-465.338 -135.505)" fill="#7f2062"/>
                                              </g>
                                              <path id="Контур_1420" data-name="Контур 1420" d="M493.422,207.4h0a21.61,21.61,0,0,1-21.61-21.61V174.3a21.61,21.61,0,0,1,21.61-21.61h0a21.61,21.61,0,0,1,21.61,21.61v11.486A21.61,21.61,0,0,1,493.422,207.4Z" transform="translate(-462.791 -137.59)" fill="#f2c9ad"/>
                                              <path id="Контур_1421" data-name="Контур 1421" d="M493.631,166.789a28,28,0,0,0,9.9-11.625,21.5,21.5,0,0,0-10.036-2.473h0a21.612,21.612,0,0,0-21.3,17.955A28.237,28.237,0,0,0,493.631,166.789Z" transform="translate(-462.864 -137.59)" fill="#eba58e"/>
                                              <g id="Сгруппировать_738" data-name="Сгруппировать 738" transform="translate(9.021 31.225)">
                                                <g id="Сгруппировать_736" data-name="Сгруппировать 736" transform="translate(16.793 0.367)">
                                                  <path id="Контур_1422" data-name="Контур 1422" d="M499.381,173.07a8.22,8.22,0,0,0-6.865,2.537l13.033,1.4A8.221,8.221,0,0,0,499.381,173.07Z" transform="translate(-492.516 -173.022)" fill="#6a3649"/>
                                                </g>
                                                <g id="Сгруппировать_737" data-name="Сгруппировать 737">
                                                  <path id="Контур_1423" data-name="Контур 1423" d="M476.211,172.6a5.653,5.653,0,0,1,5.1,2.728l-9.5,1.023A5.653,5.653,0,0,1,476.211,172.6Z" transform="translate(-471.812 -172.569)" fill="#6a3649"/>
                                                </g>
                                                <ellipse id="Эллипс_116" data-name="Эллипс 116" cx="1.835" cy="2.19" rx="1.835" ry="2.19" transform="translate(20.061 9.449)" fill="#422c4f"/>
                                                <ellipse id="Эллипс_117" data-name="Эллипс 117" cx="1.835" cy="2.19" rx="1.835" ry="2.19" transform="translate(2.913 9.449)" fill="#422c4f"/>
                                                <path id="Контур_1424" data-name="Контур 1424" d="M489.8,198.026l-6.88.272c.633.956,1.272,2.167,2.369,2.5a3.067,3.067,0,0,0,2.522-.458A7.343,7.343,0,0,0,489.8,198.026Z" transform="translate(-473.91 -177.378)" fill="#eba58e"/>
                                                <path id="Контур_1425" data-name="Контур 1425" d="M502.792,201.048a55.442,55.442,0,0,1-15.8,5.748c2.188,2.622,5.48,4.732,8.88,4.421a7.725,7.725,0,0,0,5.593-3.287A8.961,8.961,0,0,0,502.792,201.048Z" transform="translate(-474.679 -177.949)" fill="#fff"/>
                                                <path id="Контур_1426" data-name="Контур 1426" d="M514.889,193.663a4.542,4.542,0,1,1-4.542-4.542A4.543,4.543,0,0,1,514.889,193.663Z" transform="translate(-478.233 -175.696)" fill="#eba7ac"/>
                                                <path id="Контур_1427" data-name="Контур 1427" d="M477.2,197.817c.38,2.48-.014,4.6-.882,4.731s-1.879-1.769-2.26-4.249.014-4.6.882-4.731S476.814,195.338,477.2,197.817Z" transform="translate(-472.208 -176.535)" fill="#eba7ac"/>
                                              </g>
                                              <g id="Сгруппировать_739" data-name="Сгруппировать 739" transform="translate(0 10.134)">
                                                <path id="Контур_1428" data-name="Контур 1428" d="M512.931,185.429l-2.706,1.715a8.512,8.512,0,0,1-2.493-6.019v-4.743a3.271,3.271,0,0,0-1.465-2.728l-3.35-2.218a5.334,5.334,0,0,1-2.389-4.447v-8.427a34.174,34.174,0,0,1-35.633,4.957,8,8,0,0,1-3.6-2.648,3.25,3.25,0,0,1,.286-4.139c1.969-1.672,5.083.526,7.528-.311,2.01-.688,2.754-3.058,3.842-4.883a10.537,10.537,0,0,1,11.288-4.688c2.307.578,4.4,1.953,6.764,2.2,3.506.371,6.792-1.783,10.3-2.1,4.219-.379,8.353,2.038,10.867,5.446s3.61,7.672,4.044,11.885a44.417,44.417,0,0,1-2.912,20.9C513.328,184.878,512.907,185.738,512.931,185.429Z" transform="translate(-460.69 -146.568)" fill="#6a3649"/>
                                                <path id="Контур_1429" data-name="Контур 1429" d="M505.108,146.957c-3.511.315-6.8,2.469-10.3,2.1-2.364-.251-4.457-1.626-6.764-2.2a10.373,10.373,0,0,0-7.212.924,10.291,10.291,0,0,1,2.454-.261,5.517,5.517,0,0,1,4.763,2.544,13.036,13.036,0,0,1,.912,3.6,10.8,10.8,0,0,0,10.09,8.54,30.862,30.862,0,0,0,5.284-3.631v3.674a54.494,54.494,0,0,0,5.542-1.06,20.755,20.755,0,0,0,6.037-2.518c.9-.578,1.712-1.132,2.488-1.681a18.56,18.56,0,0,0-2.423-4.576C513.461,148.995,509.327,146.579,505.108,146.957Z" transform="translate(-464.494 -146.568)" fill="#422c4f"/>
                                              </g>
                                              <g id="Сгруппировать_741" data-name="Сгруппировать 741" transform="translate(23.56 0.758)">
                                                <g id="Сгруппировать_740" data-name="Сгруппировать 740" transform="translate(6.792)">
                                                  <path id="Контур_1430" data-name="Контур 1430" d="M531.744,146.629a5.485,5.485,0,0,0-.386-.6,47.781,47.781,0,0,0-10.465-9.925,5.98,5.98,0,0,0-3.207-1.059,57.646,57.646,0,0,0-9.88.424,5.812,5.812,0,0,0-2.491,1.057l-7.2,5.241,19.417,16.166a9.567,9.567,0,0,1,1.552,2.587A38.736,38.736,0,0,0,531.744,146.629Z" transform="translate(-498.111 -135.009)" fill="#f0bf6c"/>
                                                  <path id="Контур_1431" data-name="Контур 1431" d="M536.971,150.05a5.512,5.512,0,0,0-.344-.715,38.736,38.736,0,0,1-12.664,13.9c1.27,2.808,2.858,8.228,2.858,17.786a88.662,88.662,0,0,0,9.345-6.169,8.3,8.3,0,0,0,3.155-6.06C539.564,164.4,539.523,156.584,536.971,150.05Z" transform="translate(-502.994 -137.715)" fill="#d53873"/>
                                                </g>
                                                <path id="Контур_1432" data-name="Контур 1432" d="M489.737,137.29c4.463,4.2,2.768,12.391,7.253,16.568,2.42,2.253,5.988,2.673,9.293,2.787s6.792.084,9.663,1.724a25.9,25.9,0,0,0-9.51-13.415C501.44,142.308,489.737,137.29,489.737,137.29Z" transform="translate(-489.737 -135.44)" fill="#d53873"/>
                                              </g>
                                              <g id="Сгруппировать_742" data-name="Сгруппировать 742" transform="translate(48.923 42.528)">
                                                <circle id="Эллипс_118" data-name="Эллипс 118" cx="7.56" cy="7.56" r="7.56" fill="#f2c9ad"/>
                                                <circle id="Эллипс_119" data-name="Эллипс 119" cx="4.849" cy="4.849" r="4.849" transform="translate(2.711 2.711)" fill="#eba58e"/>
                                              </g>
                                            </g>
                                            <path id="Контур_1433" data-name="Контур 1433" d="M586.233,243.871l-8.508,1.758A19.622,19.622,0,0,0,562.1,263.744l-.747,13.271a14.873,14.873,0,0,0,1.107,6.684,26.593,26.593,0,0,0,9.66,11.584,2.257,2.257,0,0,0,2.531-.053l.037-.028a2.276,2.276,0,0,0,.156-3.6,16.864,16.864,0,0,1-5.194-8.059,14.938,14.938,0,0,0,10.686,4.4c5.1-.088,8.406-5.641,10.195-11.153a2.994,2.994,0,0,0-2.763-3.933,9.673,9.673,0,0,1-3.777-.792l.089-4.13a27.224,27.224,0,0,0-3.1-13.228h0Z" transform="translate(-372.397 -154.812)" fill="#f2c9ad"/>
                                          </g>
                                        </g>
                                      </g>
                                    </g>
                                  </svg>                        