                            <svg xmlns="http://www.w3.org/2000/svg" width="22" height="22" viewBox="0 0 22 22">
                                <g id="Icon_discount_solid" transform="translate(0)">
                                    <g id="Icon_discount_solid-2" data-name="Icon_discount_solid" transform="translate(0 0)">
                                        <path id="Shape" d="M11,22A11,11,0,1,1,22,11,11.012,11.012,0,0,1,11,22Zm3.85-8.8a1.65,1.65,0,1,0,1.65,1.65A1.652,1.652,0,0,0,14.85,13.2Zm.55-7.7a1.093,1.093,0,0,0-.778.322l-8.8,8.8a1.1,1.1,0,1,0,1.555,1.555l8.8-8.8A1.1,1.1,0,0,0,15.4,5.5Zm-8.25,0A1.65,1.65,0,1,0,8.8,7.15,1.651,1.651,0,0,0,7.15,5.5Z" fill="#ea4967"/>
                                    </g>
                                </g>
                            </svg> 