<svg id="Icon_apps_solid" xmlns="http://www.w3.org/2000/svg" width="18" height="18" viewBox="0 0 18 18">
  <path id="Path" d="M0,2A2,2,0,0,1,2,0H6A2,2,0,0,1,8,2V6A2,2,0,0,1,6,8H2A2,2,0,0,1,0,6Z" fill="#ea4967"/>
  <path id="Path-2" data-name="Path" d="M0,2A2,2,0,0,1,2,0H6A2,2,0,0,1,8,2V6A2,2,0,0,1,6,8H2A2,2,0,0,1,0,6Z" transform="translate(0 10)" fill="#ea4967"/>
  <path id="Path-3" data-name="Path" d="M0,2A2,2,0,0,1,2,0H6A2,2,0,0,1,8,2V6A2,2,0,0,1,6,8H2A2,2,0,0,1,0,6Z" transform="translate(10)" fill="#ea4967"/>
  <path id="Path-4" data-name="Path" d="M0,2A2,2,0,0,1,2,0H6A2,2,0,0,1,8,2V6A2,2,0,0,1,6,8H2A2,2,0,0,1,0,6Z" transform="translate(10 10)" fill="#ea4967"/>
</svg>
