<svg xmlns="http://www.w3.org/2000/svg" xmlns:xlink="http://www.w3.org/1999/xlink" width="122" height="122" viewBox="0 0 122 122">
  <defs>
    <linearGradient id="linear-gradient" x1="0.5" x2="0.5" y2="1" gradientUnits="objectBoundingBox">
      <stop offset="0" stop-color="#ff3a44"/>
      <stop offset="1" stop-color="#c31162"/>
    </linearGradient>
  </defs>
  <g id="Сгруппировать_1041" data-name="Сгруппировать 1041" transform="translate(13755 1829)">
    <circle id="Эллипс_136" data-name="Эллипс 136" cx="61" cy="61" r="61" transform="translate(-13755 -1829)" fill="url(#linear-gradient)"/>
    <g id="Компонент_207_9" data-name="Компонент 207 – 9" transform="translate(-13735 -1794)">
      <g id="Сгруппировать_635" data-name="Сгруппировать 635" transform="translate(0 7.234)">
        <path id="Контур_1218" data-name="Контур 1218" d="M172.59,163.585q-.323,0-.65-.026L144.326,161.3a10.067,10.067,0,0,1-8.9-7.446l-5.384-20.349c-.955-3.618-1.942-7.359-6.16-8.493l-12.007-2.469a1.682,1.682,0,0,1,.678-3.3l12.144,2.5c6.15,1.619,7.566,6.983,8.6,10.9l.069.262L138.68,153a6.7,6.7,0,0,0,5.92,4.954l27.614,2.254a4.594,4.594,0,0,0,4.8-3.355l5.087-18.44-35.261-2.9a2.338,2.338,0,0,0-2.459,2.9l1.574,6.224a5.077,5.077,0,0,0,4.4,3.795l16.624,1.675a1.8,1.8,0,1,0,.346-3.583l-13.961-1.291a1.682,1.682,0,1,1,.31-3.35l13.96,1.291a5.164,5.164,0,1,1-.993,10.28l-16.624-1.675a8.45,8.45,0,0,1-7.324-6.317l-1.574-6.224a5.7,5.7,0,0,1,6-7.081l39.309,3.229-6.167,22.355A7.965,7.965,0,0,1,172.59,163.585Z" transform="translate(-110.534 -119.218)" fill="#fff"/>
      </g>
      <circle id="Эллипс_3" data-name="Эллипс 3" cx="4.579" cy="4.579" r="4.579" transform="translate(28.569 51.166)" fill="#fff"/>
      <circle id="Эллипс_4" data-name="Эллипс 4" cx="2.766" cy="2.766" r="2.766" transform="translate(54.957 54.37)" fill="#fff"/>
      <circle id="Эллипс_5" data-name="Эллипс 5" cx="4.018" cy="4.018" r="4.018" transform="translate(24.878 11.038)" fill="#ff6700"/>
      <circle id="Эллипс_6" data-name="Эллипс 6" cx="5.431" cy="5.431" r="5.431" transform="translate(29.503)" fill="#fff200"/>
      <circle id="Эллипс_7" data-name="Эллипс 7" cx="1.9" cy="1.9" r="1.9" transform="translate(35.25 11.817)" fill="#fff200"/>
      <circle id="Эллипс_8" data-name="Эллипс 8" cx="4.392" cy="4.392" r="4.392" transform="translate(42.056 3.796)" fill="#ff6700"/>
      <circle id="Эллипс_9" data-name="Эллипс 9" cx="3.574" cy="3.574" r="3.574" transform="translate(47.912 12.86)" fill="#ff6700"/>
      <circle id="Эллипс_10" data-name="Эллипс 10" cx="3.574" cy="3.574" r="3.574" transform="translate(63.085 14.426)" fill="#fff200"/>
      <circle id="Эллипс_11" data-name="Эллипс 11" cx="2.383" cy="2.383" r="2.383" transform="translate(40.623 14.682)" fill="#fff200"/>
      <circle id="Эллипс_12" data-name="Эллипс 12" cx="2.99" cy="2.99" r="2.99" transform="translate(53.845 5.431)" fill="#fff200"/>
      <circle id="Эллипс_13" data-name="Эллипс 13" cx="2.383" cy="2.383" r="2.383" transform="translate(56.322 15.617)" fill="#fff200"/>
      <circle id="Эллипс_14" data-name="Эллипс 14" cx="2.009" cy="2.009" r="2.009" transform="translate(59.826 10.571)" fill="#ff6700"/>
    </g>
  </g>
</svg>