<svg id="Компонент_207_2" data-name="Компонент 207 – 2" xmlns="http://www.w3.org/2000/svg" width="62.889" height="50.323" viewBox="0 0 62.889 50.323">
                                        <g id="Сгруппировать_635" data-name="Сгруппировать 635" transform="translate(0 6.035)">
                                          <path id="Контур_1218" data-name="Контур 1218" d="M161.96,156.23q-.268,0-.539-.022l-22.884-1.88a8.358,8.358,0,0,1-7.374-6.212L126.7,131.14c-.791-3.018-1.609-6.139-5.1-7.085L111.647,122a1.4,1.4,0,0,1,.561-2.749l10.063,2.085c5.1,1.35,6.27,5.825,7.126,9.092l.057.218,4.4,16.755a5.56,5.56,0,0,0,4.906,4.133l22.884,1.88a3.809,3.809,0,0,0,3.977-2.8l4.216-15.383-29.221-2.416a1.911,1.911,0,0,0-1.638.684,1.939,1.939,0,0,0-.4,1.739l1.3,5.192a4.216,4.216,0,0,0,3.646,3.166l13.776,1.4a1.482,1.482,0,0,0,1.567-1.025,1.5,1.5,0,0,0-.17-1.293A1.482,1.482,0,0,0,157.6,142l-11.569-1.077a1.4,1.4,0,0,1,.257-2.794l11.569,1.077a4.253,4.253,0,0,1,3.185,1.928,4.31,4.31,0,0,1,.486,3.709,4.254,4.254,0,0,1-4.494,2.939l-13.776-1.4a7.017,7.017,0,0,1-6.069-5.27l-1.3-5.192a4.728,4.728,0,0,1,.975-4.24,4.66,4.66,0,0,1,3.993-1.667l32.575,2.694-5.111,18.649A6.607,6.607,0,0,1,161.96,156.23Z" transform="translate(-110.534 -119.218)" fill="#31373b"/>
                                        </g>
                                        <ellipse id="Эллипс_3" data-name="Эллипс 3" cx="3.794" cy="3.82" rx="3.794" ry="3.82" transform="translate(23.675 42.684)" fill="#31373b"/>
                                        <ellipse id="Эллипс_4" data-name="Эллипс 4" cx="2.292" cy="2.308" rx="2.292" ry="2.308" transform="translate(45.543 45.357)" fill="#31373b"/>
                                        <ellipse id="Эллипс_5" data-name="Эллипс 5" cx="3.33" cy="3.352" rx="3.33" ry="3.352" transform="translate(20.616 9.208)" fill="#ff6700"/>
                                        <ellipse id="Эллипс_6" data-name="Эллипс 6" cx="4.501" cy="4.531" rx="4.501" ry="4.531" transform="translate(24.449)" fill="#fff200"/>
                                        <ellipse id="Эллипс_7" data-name="Эллипс 7" cx="1.575" cy="1.585" rx="1.575" ry="1.585" transform="translate(29.212 9.858)" fill="#fff200"/>
                                        <ellipse id="Эллипс_8" data-name="Эллипс 8" cx="3.64" cy="3.664" rx="3.64" ry="3.664" transform="translate(34.852 3.167)" fill="#ff6700"/>
                                        <ellipse id="Эллипс_9" data-name="Эллипс 9" cx="2.962" cy="2.982" rx="2.962" ry="2.982" transform="translate(39.704 10.728)" fill="#ff6700"/>
                                        <ellipse id="Эллипс_10" data-name="Эллипс 10" cx="2.962" cy="2.982" rx="2.962" ry="2.982" transform="translate(52.278 12.034)" fill="#fff200"/>
                                        <ellipse id="Эллипс_11" data-name="Эллипс 11" cx="1.975" cy="1.988" rx="1.975" ry="1.988" transform="translate(33.664 12.249)" fill="#fff200"/>
                                        <ellipse id="Эллипс_12" data-name="Эллипс 12" cx="2.478" cy="2.495" rx="2.478" ry="2.495" transform="translate(44.622 4.531)" fill="#fff200"/>
                                        <ellipse id="Эллипс_13" data-name="Эллипс 13" cx="1.975" cy="1.988" rx="1.975" ry="1.988" transform="translate(46.674 13.028)" fill="#fff200"/>
                                        <ellipse id="Эллипс_14" data-name="Эллипс 14" cx="1.665" cy="1.676" rx="1.665" ry="1.676" transform="translate(49.578 8.819)" fill="#ff6700"/>
                                      </svg>                      