<svg id="Компонент_217_1" data-name="Компонент 217 – 1" xmlns="http://www.w3.org/2000/svg" width="71" height="76.782" viewBox="0 0 71 76.782">
  <g id="Контур_1479" data-name="Контур 1479" fill="none">
    <path d="M14.2,0H56.8A14.1,14.1,0,0,1,71,14.007V76.782S60.3,67.7,56.8,67.7H14.2A14.1,14.1,0,0,1,0,53.692V14.007A14.1,14.1,0,0,1,14.2,0Z" stroke="none"/>
    <path d="M 14.19998931884766 4.999992370605469 C 9.127105712890625 4.999992370605469 5.000007629394531 9.040351867675781 5.000007629394531 14.00663757324219 L 5.000007629394531 53.69212341308594 C 5.000007629394531 58.65840911865234 9.127105712890625 62.69876861572266 14.19998931884766 62.69876861572266 L 56.79998779296875 62.69876861572266 C 58.55160903930664 62.69876861572266 60.90169906616211 63.2195930480957 66 66.67854309082031 L 66 14.00663757324219 C 66 9.040351867675781 61.87289047241211 4.999992370605469 56.79998779296875 4.999992370605469 L 14.19998931884766 4.999992370605469 M 14.19998931884766 -7.62939453125e-06 L 56.79998779296875 -7.62939453125e-06 C 64.64244842529297 -7.62939453125e-06 71 6.270980834960938 71 14.00663757324219 C 71 57.97768402099609 71 76.78157043457031 71 76.78157043457031 C 71 76.78157043457031 60.29773330688477 67.69876861572266 56.79998779296875 67.69876861572266 L 14.19998931884766 67.69876861572266 C 6.357559204101563 67.69876861572266 7.62939453125e-06 61.42778015136719 7.62939453125e-06 53.69212341308594 L 7.62939453125e-06 14.00663757324219 C 7.62939453125e-06 6.270980834960938 6.357559204101563 -7.62939453125e-06 14.19998931884766 -7.62939453125e-06 Z" stroke="none" fill="#fff"/>
  </g>
  <path id="Контур_1480" data-name="Контур 1480" d="M1718.423,17.282h32.184" transform="translate(-1698.989 8.726)" fill="none" stroke="#fff" stroke-linecap="round" stroke-width="5"/>
  <path id="Контур_1481" data-name="Контур 1481" d="M1718.423,17.282h19.16" transform="translate(-1697.806 22.733)" fill="none" stroke="#fff" stroke-linecap="round" stroke-width="5"/>
</svg>
