                                  <svg id="Map" xmlns="http://www.w3.org/2000/svg" width="20.747" height="25.039" viewBox="0 0 20.747 25.039">
                                    <path id="Контур_982" data-name="Контур 982" d="M17.493,10.882a4.61,4.61,0,1,1-4.61-4.61A4.61,4.61,0,0,1,17.493,10.882Zm-2.305,0a2.305,2.305,0,1,1-2.305-2.305A2.305,2.305,0,0,1,15.188,10.882Z" transform="translate(-2.195 -0.196)" fill="#ea4967" fill-rule="evenodd"/>
                                    <path id="Контур_983" data-name="Контур 983" d="M6.221,18.886a10.373,10.373,0,1,1,14.666-.36l-7.153,7.513Zm13-1.95L13.653,22.78,7.81,17.217a8.068,8.068,0,1,1,11.407-.28Z" transform="translate(-3 -1)" fill="#ea4967" fill-rule="evenodd"/>
                                  </svg> 