<svg id="Компонент_206_3" data-name="Компонент 206 – 3" xmlns="http://www.w3.org/2000/svg" xmlns:xlink="http://www.w3.org/1999/xlink" width="127.903" height="38" viewBox="0 0 127.903 38">
                                        <defs>
                                          <linearGradient id="linear-gradient" x1="0.901" y1="-0.003" x2="-0.66" y2="0.866" gradientUnits="objectBoundingBox">
                                            <stop offset="0" stop-color="#00a0ff"/>
                                            <stop offset="0.007" stop-color="#00a1ff"/>
                                            <stop offset="0.26" stop-color="#00beff"/>
                                            <stop offset="0.512" stop-color="#00d2ff"/>
                                            <stop offset="0.76" stop-color="#00dfff"/>
                                            <stop offset="1" stop-color="#00e3ff"/>
                                          </linearGradient>
                                          <linearGradient id="linear-gradient-2" x1="1.075" y1="0.372" x2="-1.919" y2="0.372" gradientUnits="objectBoundingBox">
                                            <stop offset="0" stop-color="#ffe000"/>
                                            <stop offset="0.409" stop-color="#ffbd00"/>
                                            <stop offset="0.775" stop-color="orange"/>
                                            <stop offset="1" stop-color="#ff9c00"/>
                                          </linearGradient>
                                          <linearGradient id="linear-gradient-3" x1="0.369" y1="-0.54" x2="-1.259" y2="1.749" gradientUnits="objectBoundingBox">
                                            <stop offset="0" stop-color="#ff3a44"/>
                                            <stop offset="1" stop-color="#c31162"/>
                                          </linearGradient>
                                          <linearGradient id="linear-gradient-4" x1="-0.637" y1="-0.029" x2="0.09" y2="0.994" gradientUnits="objectBoundingBox">
                                            <stop offset="0" stop-color="#32a071"/>
                                            <stop offset="0.068" stop-color="#2da771"/>
                                            <stop offset="0.476" stop-color="#15cf74"/>
                                            <stop offset="0.801" stop-color="#06e775"/>
                                            <stop offset="1" stop-color="#00f076"/>
                                          </linearGradient>
                                        </defs>
                                        <path id="Контур_1191" data-name="Контур 1191" d="M123.3,38H4.7A4.7,4.7,0,0,1,0,33.3V4.8A4.717,4.717,0,0,1,4.7,0H123.2a4.7,4.7,0,0,1,4.7,4.7V33.2A4.575,4.575,0,0,1,123.3,38Z" fill="#fff"/>
                                        <path id="Контур_1192" data-name="Контур 1192" d="M9.4,7.9A2.226,2.226,0,0,0,9,9.2V29.7A2.226,2.226,0,0,0,9.4,31h.1L21.3,19.5v-.3Z" fill="url(#linear-gradient)"/>
                                        <path id="Контур_1193" data-name="Контур 1193" d="M25.3,23.4l-3.9-3.8v-.3l3.9-3.8h.1l4.7,2.6c1.3.7,1.3,1.9,0,2.7Z" fill="url(#linear-gradient-2)"/>
                                        <path id="Контур_1194" data-name="Контур 1194" d="M25.4,23.3l-4-3.9L9.4,30.9c.4.5,1.2.5,2,.1Z" fill="url(#linear-gradient-3)"/>
                                        <path id="Контур_1195" data-name="Контур 1195" d="M25.4,15.5l-14-7.7a1.624,1.624,0,0,0-2,.1L21.3,19.4Z" fill="url(#linear-gradient-4)"/>
                                        <path id="Контур_1196" data-name="Контур 1196" d="M42.7,8.7a.909.909,0,0,0-.4-.8,1.493,1.493,0,0,0-1-.3,1.222,1.222,0,0,0-.9.3,1.012,1.012,0,0,0-.4.7h-.8a1.613,1.613,0,0,1,.3-.9,1.242,1.242,0,0,1,.8-.6c.3,0,.6-.1,1-.1a2.544,2.544,0,0,1,1.6.5,1.486,1.486,0,0,1,.6,1.3,1.33,1.33,0,0,1-.3.8,1.794,1.794,0,0,1-.7.5,1.39,1.39,0,0,1,1.1,1.4,1.612,1.612,0,0,1-.6,1.3,2.86,2.86,0,0,1-1.7.5,3.6,3.6,0,0,1-1.1-.2,1.555,1.555,0,0,1-.8-.6,1.613,1.613,0,0,1-.3-.9H40a.909.909,0,0,0,.4.8,1.689,1.689,0,0,0,1,.3,2.016,2.016,0,0,0,1.1-.3.909.909,0,0,0,.4-.8c0-.7-.4-1.1-1.3-1.1h-.8V9.7h.8a1.222,1.222,0,0,0,.9-.3A1.165,1.165,0,0,0,42.7,8.7Z"/>
                                        <path id="Контур_1197" data-name="Контур 1197" d="M47.4,13.1a2.034,2.034,0,0,1-.1-.5,1.76,1.76,0,0,1-1.3.6,1.366,1.366,0,0,1-1.1-.4,1.159,1.159,0,0,1-.4-1,1.433,1.433,0,0,1,.5-1.1,2.41,2.41,0,0,1,1.5-.4h.8V10a.73.73,0,0,0-.9-.8,1.445,1.445,0,0,0-.7.2.55.55,0,0,0-.3.5h-.8a1.421,1.421,0,0,1,.2-.6,1.794,1.794,0,0,1,.7-.5,2.92,2.92,0,0,1,.9-.2,1.594,1.594,0,0,1,1.2.4,1.159,1.159,0,0,1,.4,1v2.1a2.958,2.958,0,0,0,.2,1v.1h-.8Zm-1.3-.6a1.854,1.854,0,0,0,.7-.2,1.205,1.205,0,0,0,.5-.5v-.9h-.6c-1,0-1.4.3-1.4.8a1.421,1.421,0,0,0,.2.6C45.6,12.5,45.8,12.5,46.1,12.5Z"/>
                                        <path id="Контур_1198" data-name="Контур 1198" d="M52.2,9.3H50.1v3.8h-.8V8.6h2.9Z"/>
                                        <path id="Контур_1199" data-name="Контур 1199" d="M56.8,10.9a2.544,2.544,0,0,1-.5,1.6,1.457,1.457,0,0,1-1.3.7,1.728,1.728,0,0,1-1.3-.5v2.2h-.8V8.6h.7v.5A1.741,1.741,0,0,1,55,8.6a1.486,1.486,0,0,1,1.3.6A2.648,2.648,0,0,1,56.8,10.9Zm-.8-.1a2.133,2.133,0,0,0-.3-1.2.975.975,0,0,0-.9-.4,1.255,1.255,0,0,0-1.1.6V12a1.149,1.149,0,0,0,1.1.6.975.975,0,0,0,.9-.4A2.9,2.9,0,0,0,56,10.8Z"/>
                                        <path id="Контур_1200" data-name="Контур 1200" d="M59.2,12l1.1-3.4h.8l-1.8,5.2c-.3.7-.7,1.1-1.4,1.1h-.1l-.3-.1v-.6h.2a.845.845,0,0,0,.6-.2,1.538,1.538,0,0,0,.4-.6l.2-.5L57.3,8.5h.9Z"/>
                                        <path id="Контур_1201" data-name="Контур 1201" d="M64.3,9.9a.764.764,0,0,0-.2-.5,1.325,1.325,0,0,0-1.4,0,.55.55,0,0,0-.3.5h-.8a1.389,1.389,0,0,1,.5-1,2.144,2.144,0,0,1,1.2-.4,2.5,2.5,0,0,1,1.3.3,1.053,1.053,0,0,1,.4,1,1.421,1.421,0,0,1-.2.6,1,1,0,0,1-.5.4,1.053,1.053,0,0,1,.8,1,1.389,1.389,0,0,1-.5,1,2.5,2.5,0,0,1-1.3.4,1.844,1.844,0,0,1-1.3-.4,1.389,1.389,0,0,1-.5-1h.8a.864.864,0,0,0,.3.6.844.844,0,0,0,.7.2,1.445,1.445,0,0,0,.7-.2.55.55,0,0,0,.3-.5.588.588,0,0,0-.2-.5,1.445,1.445,0,0,0-.7-.2h-.8v-.7h.9C64.1,10.5,64.3,10.3,64.3,9.9Z"/>
                                        <path id="Контур_1202" data-name="Контур 1202" d="M69.2,8.6H70v4.5h-.8V9.8l-2.1,3.3h-.8V8.6h.8v3.3Z"/>
                                        <path id="Контур_1203" data-name="Контур 1203" d="M74.6,9.3H73.1v3.9h-.8V9.3H70.8V8.6h3.8Z"/>
                                        <path id="Контур_1204" data-name="Контур 1204" d="M76.9,13.2a2.035,2.035,0,0,1-1.5-.6,2.111,2.111,0,0,1-.6-1.6v-.1a2.663,2.663,0,0,1,.3-1.2,2.7,2.7,0,0,1,.7-.8,1.885,1.885,0,0,1,2.4.3,2.544,2.544,0,0,1,.5,1.6v.3H75.6a1.5,1.5,0,0,0,.4,1.1,1.284,1.284,0,0,0,1,.4,1.445,1.445,0,0,0,.7-.2,2.181,2.181,0,0,0,.5-.4l.5.4A2.2,2.2,0,0,1,76.9,13.2Zm-.1-4a1.135,1.135,0,0,0-.8.3,1.884,1.884,0,0,0-.4.9h2.3v-.1a1.222,1.222,0,0,0-.3-.9A1.549,1.549,0,0,0,76.8,9.2Z"/>
                                        <path id="Контур_1205" data-name="Контур 1205" d="M85.5,13.1h-.8V11.2H82.6v1.9h-.8V8.6h.8v1.9h2.1V8.6h.8Z"/>
                                        <path id="Контур_1206" data-name="Контур 1206" d="M89.6,13.1a2.034,2.034,0,0,1-.1-.5,1.76,1.76,0,0,1-1.3.6,1.366,1.366,0,0,1-1.1-.4,1.159,1.159,0,0,1-.4-1,1.433,1.433,0,0,1,.5-1.1,2.41,2.41,0,0,1,1.5-.4h.8V10a.73.73,0,0,0-.9-.8,1.445,1.445,0,0,0-.7.2.55.55,0,0,0-.3.5h-.8a1.421,1.421,0,0,1,.2-.6,1.794,1.794,0,0,1,.7-.5,2.92,2.92,0,0,1,.9-.2,1.594,1.594,0,0,1,1.2.4,1.433,1.433,0,0,1,.5,1.1v2.1a2.959,2.959,0,0,0,.2,1v.1h-.9Zm-1.3-.6a1.854,1.854,0,0,0,.7-.2,1.205,1.205,0,0,0,.5-.5v-.9h-.6c-1,0-1.4.3-1.4.8a1.421,1.421,0,0,0,.2.6C87.8,12.5,88,12.5,88.3,12.5Z"/>
                                        <path id="Контур_1207" data-name="Контур 1207" d="M60.5,25a3.892,3.892,0,0,1,4.1-3.9A4.015,4.015,0,0,1,68.7,25a3.892,3.892,0,0,1-4.1,3.9A3.952,3.952,0,0,1,60.5,25Zm1.8,0a2.3,2.3,0,1,0,2.3-2.4A2.232,2.232,0,0,0,62.3,25Z"/>
                                        <path id="Контур_1208" data-name="Контур 1208" d="M51.6,25a3.892,3.892,0,0,1,4.1-3.9A4.015,4.015,0,0,1,59.8,25a3.892,3.892,0,0,1-4.1,3.9A3.952,3.952,0,0,1,51.6,25Zm1.8,0a2.3,2.3,0,1,0,2.3-2.4A2.232,2.232,0,0,0,53.4,25Z"/>
                                        <path id="Контур_1209" data-name="Контур 1209" d="M45.1,23.9V22.2h5.8a3.4,3.4,0,0,1,.1,1,5.5,5.5,0,0,1-1.5,3.9,5.873,5.873,0,0,1-4.4,1.7,6.257,6.257,0,0,1-6.4-6.1,6.257,6.257,0,0,1,6.4-6.1,5.859,5.859,0,0,1,4.3,1.7l-1.2,1.2a4.207,4.207,0,0,0-3.1-1.2,4.461,4.461,0,0,0-4.5,4.4,4.4,4.4,0,0,0,4.5,4.4,4.336,4.336,0,0,0,3.2-1.2,3.4,3.4,0,0,0,.9-2.1H45.1Z"/>
                                        <path id="Контур_1210" data-name="Контур 1210" d="M84.9,21a3.84,3.84,0,0,1,3.5,2.5l.2.4-5.4,2.2a2.1,2.1,0,0,0,2,1.2,2.305,2.305,0,0,0,2-1.1l1.4.9a4.057,4.057,0,0,1-3.4,1.7,3.867,3.867,0,0,1-4-3.9A3.625,3.625,0,0,1,84.9,21Zm.1,1.5a2.162,2.162,0,0,0-2.1,2.3l3.6-1.5A1.73,1.73,0,0,0,85,22.5Z"/>
                                        <path id="Контур_1211" data-name="Контур 1211" d="M80.2,28.6H78.4V17.1h1.8Z"/>
                                        <path id="Контур_1212" data-name="Контур 1212" d="M75.4,21.9l.1-.6h1.7v7.1c0,2.9-1.8,4.1-3.9,4.1a3.829,3.829,0,0,1-3.6-2.3l1.6-.6a2.383,2.383,0,0,0,2,1.4,2.077,2.077,0,0,0,2.2-2.3V28h-.1a2.755,2.755,0,0,1-2.1.9,3.9,3.9,0,1,1,0-7.8A2.294,2.294,0,0,1,75.4,21.9ZM71.2,25a2.255,2.255,0,1,0,2.3-2.4A2.288,2.288,0,0,0,71.2,25Z"/>
                                        <path id="Контур_1213" data-name="Контур 1213" d="M92.5,17.1h4.3a3.716,3.716,0,0,1,3.9,3.6,3.716,3.716,0,0,1-3.9,3.6H94.3v4.4H92.5Zm1.8,5.6h2.5a2,2,0,1,0,0-4H94.3Z"/>
                                        <path id="Контур_1214" data-name="Контур 1214" d="M104.6,22.8a3.5,3.5,0,0,1,3.2-1.8c2,0,3.6,1.1,3.6,3.2v4.4h-1.7v-.9h-.1a2.571,2.571,0,0,1-2.3,1.1,2.739,2.739,0,0,1-3-2.5c0-1.7,1.7-2.6,3.4-2.6a6.864,6.864,0,0,1,1.9.4V24c0-.9-1-1.5-1.9-1.5a1.623,1.623,0,0,0-1.6.8Zm1.6,3.6c0,.7.8,1,1.4,1a2.148,2.148,0,0,0,2.1-1.8,3.408,3.408,0,0,0-1.6-.4C107.2,25.1,106.2,25.5,106.2,26.4Z"/>
                                        <path id="Контур_1215" data-name="Контур 1215" d="M115.7,26.3l2-5h2l-4.9,10.9h-1.9l1.8-3.9-3.2-7h1.9Z"/>
                                        <path id="Контур_1216" data-name="Контур 1216" d="M103.4,28.6h-1.8V17.1h1.8Z"/>
                                      </svg>                                                                           