<svg id="Компонент_208_1" data-name="Компонент 208 – 1" xmlns="http://www.w3.org/2000/svg" width="206.832" height="22.506" viewBox="0 0 206.832 22.506">
  <path id="Контур_1486" data-name="Контур 1486" d="M-95.465.4a11.461,11.461,0,0,1-8.122-2.821l1.953-2.325q1.178.775,1.891,1.162a7.26,7.26,0,0,0,1.705.636A9.963,9.963,0,0,0-95.65-2.7a5.472,5.472,0,0,0,3.41-.914,2.651,2.651,0,0,0,1.178-2.124v-.4A2.482,2.482,0,0,0-91.76-8a6.967,6.967,0,0,0-2.62-1.3l-3.193-1.054q-5.115-1.643-5.115-5.487v-.713a4.628,4.628,0,0,1,.915-2.759,6.23,6.23,0,0,1,2.681-2.03,10.46,10.46,0,0,1,4.154-.76,11.805,11.805,0,0,1,4.247.713,10.541,10.541,0,0,1,3.379,2.108l-1.922,2.139a10.661,10.661,0,0,0-2.7-1.55,8.446,8.446,0,0,0-2.852-.434,4.941,4.941,0,0,0-2.976.76,2.192,2.192,0,0,0-1.023,1.782v.527a1.963,1.963,0,0,0,.822,1.519,7.838,7.838,0,0,0,2.65,1.24l2.883.93a9.362,9.362,0,0,1,3.859,2.139,4.953,4.953,0,0,1,1.38,3.689V-5.7a5.156,5.156,0,0,1-1.054,3.193A6.736,6.736,0,0,1-91.171-.356,11.366,11.366,0,0,1-95.465.4Zm33.852-22.1V0h-3.751V-15.779L-69.921-3.131l.031.031h-4.123l-4.65-13.175V0H-82.2V-21.7h5.053l5.3,15.314,5.456-15.283-.031-.031Zm16.8,16h-7.5L-53.955,0h-3.937l6.634-21.7h5.3L-38.982,0h-4.03Zm-6.634-3.131h5.7l-2.883-10.137Zm23.374.248h-3.286V0h-3.906V-21.7h7.316a9.073,9.073,0,0,1,5.518,1.534,4.941,4.941,0,0,1,2.077,4.2v1.612a4.774,4.774,0,0,1-1.038,3.069,6.646,6.646,0,0,1-2.9,2.015L-19.3,0h-4.278ZM-31.357-11.5h3.286a4.449,4.449,0,0,0,2.774-.775,2.581,2.581,0,0,0,1.007-2.17v-1.333a2.6,2.6,0,0,0-1.023-2.2,4.518,4.518,0,0,0-2.79-.775h-3.255ZM-2.03-18.693H-8.106V0h-3.906V-18.693h-6.107V-21.7H-2.03Zm22.909,7.44a5.687,5.687,0,0,1,2.7,1.364,3.864,3.864,0,0,1,1.178,3.038v1.24A4.476,4.476,0,0,1,23.715-2.7,6.756,6.756,0,0,1,20.786-.713,12.544,12.544,0,0,1,16.353,0H9.688V-21.7h6.7a9.766,9.766,0,0,1,5.611,1.426,4.549,4.549,0,0,1,2.077,3.968v1.364a3.247,3.247,0,0,1-.93,2.449A4.959,4.959,0,0,1,20.879-11.253Zm-7.285-7.595v6.541H17a3.587,3.587,0,0,0,2.294-.667,2.365,2.365,0,0,0,.837-1.968v-1.147a2.362,2.362,0,0,0-.976-2.077,4.743,4.743,0,0,0-2.743-.682ZM20.848-6.913A2.272,2.272,0,0,0,19.9-8.851a4.514,4.514,0,0,0-2.713-.7h-3.6v6.7h2.821A6.058,6.058,0,0,0,19.685-3.6a2.446,2.446,0,0,0,1.163-2.2ZM40.13-5.7h-7.5L30.985,0H27.048l6.634-21.7h5.3L45.958,0h-4.03ZM33.5-8.835h5.7L36.317-18.972ZM62.7-18.848,52.034-3.131H62.977V0H47.818V-2.976L58.481-18.693H48.251V-21.7H62.7ZM77.732-5.7h-7.5L68.588,0H64.65l6.634-21.7h5.3L83.561,0h-4.03ZM71.1-8.835h5.7L73.92-18.972Zm23.374.248H91.187V0H87.28V-21.7H94.6a9.073,9.073,0,0,1,5.518,1.534,4.941,4.941,0,0,1,2.077,4.2v1.612a4.774,4.774,0,0,1-1.038,3.069,6.646,6.646,0,0,1-2.9,2.015L103.245,0H98.967ZM91.187-11.5h3.286a4.449,4.449,0,0,0,2.774-.775,2.581,2.581,0,0,0,1.008-2.17v-1.333a2.6,2.6,0,0,0-1.023-2.2,4.518,4.518,0,0,0-2.79-.775H91.187Z" transform="translate(103.587 22.103)" fill="#fff"/>
</svg>