<svg id="Icon_delete_outline" xmlns="http://www.w3.org/2000/svg" width="16.133" height="20" viewBox="0 0 16.133 20">
  <path id="Path" d="M1.008,0A1,1,0,0,1,2.017,1V12a1,1,0,0,0,1.008,1h8.067A1,1,0,0,0,12.1,12V1a1.008,1.008,0,0,1,2.017,0V12a3.012,3.012,0,0,1-3.025,3H3.025A3.013,3.013,0,0,1,0,12V1A1,1,0,0,1,1.008,0Z" transform="translate(1.008 5)" fill="#8d8d8d"/>
  <path id="Path-2" data-name="Path" d="M1.008,0A1,1,0,0,1,2.017,1V9A1.008,1.008,0,0,1,0,9V1A1,1,0,0,1,1.008,0Z" transform="translate(5.042 6)" fill="#8d8d8d"/>
  <path id="Path-3" data-name="Path" d="M1.008,0A1,1,0,0,1,2.017,1V9A1.008,1.008,0,0,1,0,9V1A1,1,0,0,1,1.008,0Z" transform="translate(9.075 6)" fill="#8d8d8d"/>
  <path id="Path-4" data-name="Path" d="M0,1A1,1,0,0,1,1.008,0H15.125a1,1,0,1,1,0,2H1.008A1,1,0,0,1,0,1Z" transform="translate(0 2)" fill="#8d8d8d"/>
  <path id="Path-5" data-name="Path" d="M0,1A1,1,0,0,1,1.008,0h6.05A1,1,0,0,1,8.067,1V2H0Z" transform="translate(4.033)" fill="#8d8d8d"/>
</svg>
