<svg xmlns="http://www.w3.org/2000/svg" viewBox="0 0 94.82 94.82"><defs><style>.cls-1{fill:#86cdd7;}.cls-2{fill:#324496;}.cls-3{fill:#568e4c;}.cls-4{fill:#ffd31b;}.cls-5{fill:#75bae7;}.cls-6{fill:#74ba65;}.cls-7{fill:#b2c1da;}.cls-8{fill:#8ea87c;}.cls-9{fill:#8bc375;}.cls-10,.cls-25,.cls-28,.cls-30,.cls-32{fill:#fff;}.cls-10{opacity:0.47;}.cls-11{fill:#ed9254;}.cls-12{fill:#fccc86;}.cls-13{fill:#db8950;}.cls-14{fill:#c67b46;}.cls-15{fill:#f4a659;}.cls-16{fill:#ffda40;}.cls-17{fill:#feeb25;}.cls-18{fill:#ecb221;}.cls-19{fill:#de323c;}.cls-20{fill:#010101;}.cls-21{fill:#88b5d4;}.cls-22{fill:#9ed2f2;}.cls-23{fill:#e73039;}.cls-24{fill:#c72134;}.cls-25{opacity:0.27;}.cls-26{fill:#eac215;}.cls-27{fill:#e7ac18;}.cls-28{opacity:0.46;}.cls-29{fill:#5e98a7;}.cls-31{fill:#e53849;}.cls-32{opacity:0.37;}.cls-33{fill:#c72131;}.cls-34{fill:#2b2c30;}</style></defs><title>Asset 2</title><g id="Layer_2" data-name="Layer 2"><g id="Layer_1-2" data-name="Layer 1"><circle class="cls-1" cx="47.41" cy="47.41" r="47.41"/><path class="cls-2" d="M70.79,56.26c.52.31,9.7,3.31,9.7,3.31L75.64,84.29H58.57L55.34,70.07,70.79,56.26Z"/><polygon class="cls-3" points="35.99 80.28 37.9 84.29 60.12 84.29 59.46 68.26 47.25 63.41 35.99 80.28"/><path class="cls-4" d="M40.94,57.08,28.36,63.56s-.81,20.9-.3,20.73,9.84,0,9.84,0L49.27,62.42l-8.33-5.34Z"/><path class="cls-5" d="M11.53,60.41c.17.5,4.84,22.81,4.84,22.81l13.7,1.07,1.68-21.82Z"/><path class="cls-6" d="M32.79,29.88a3.54,3.54,0,0,1-2.35-.33,1.49,1.49,0,0,1,.43-2.61c.36-.12.8-.12,1-.42a1.34,1.34,0,0,0,.19-.4,2.59,2.59,0,0,1,1.79-1.66,1.73,1.73,0,0,1,2,1.15c.07.3,0,.61.13.9.2.63.87,1,1.39,1.37a6.87,6.87,0,0,1,2,4.06,2.76,2.76,0,0,1,0,1.56,1.74,1.74,0,0,1-2,.91,2.81,2.81,0,0,1-1.75-1.52c-.37-.71-.34-1.7-.82-2.32A2.43,2.43,0,0,0,32.79,29.88Z"/><path class="cls-3" d="M48.6,24a2.14,2.14,0,0,1,2.18-.17,1.71,1.71,0,0,0,.69.28,2.18,2.18,0,0,0,.79-.27,1.33,1.33,0,0,1,1.66,1.32,1.27,1.27,0,0,1,1.21,1.24,3,3,0,0,1-.64,1.78,5.48,5.48,0,0,1-3.33,2.46,2.5,2.5,0,0,0-1.43.48c-.24.25-.33.62-.56.88a2,2,0,0,1-.59.41,26.11,26.11,0,0,1-3.4,1.45,3.36,3.36,0,0,1-2.77.08,2.34,2.34,0,0,1-.92-2.48A5.26,5.26,0,0,1,42.94,29a14,14,0,0,1,3.4-2.62c.43-.25,1-.4,1.33-.83S48,24.42,48.6,24Z"/><path class="cls-3" d="M33.89,29.35c-.53-.25-1.17-.5-1.35-1.06s.41-1.43.19-2.11-1.19-.94-1.3-1.65.55-1.13.68-1.75c0-.27,0-.55.06-.82a1.59,1.59,0,0,1,1.53-1.14,3.8,3.8,0,0,1,1.93.62c.51.29,1.21.6,1.61.17a2.3,2.3,0,0,0,.33-.62c.37-.74,1.31-.94,2.13-1a1.35,1.35,0,0,1,1.17.19,4.22,4.22,0,0,1,.27.36,1.73,1.73,0,0,0,.6.39l1.82.88a2.79,2.79,0,0,1,.8.51,2.19,2.19,0,0,1,.41,2.06c-.18.71-.54,1.36-.74,2.06a.83.83,0,0,0,0,.49,1.16,1.16,0,0,0,.31.39,3.12,3.12,0,0,1,.81,1.32,3.24,3.24,0,0,1-.45,2.65,4.58,4.58,0,0,1-2.15,1.68,5.86,5.86,0,0,1-4.78-.19,11.25,11.25,0,0,0-2.43-1.21,1.18,1.18,0,0,1-.61-.24c-.35-.33.17-.58.15-.91S34.26,29.53,33.89,29.35Z"/><path class="cls-6" d="M39,30a1.46,1.46,0,0,1,.08-.72c.22-.45.84-.62,1-1.1s-.2-1,.09-1.42.63-.33.72-.64c0-.13,0-.27.07-.39s.43-.23.6-.41c.39-.38-.23-1.1.06-1.55s.79-.24,1.14-.48.36-.65.53-1A1.52,1.52,0,0,1,45.68,22a2.11,2.11,0,0,0,.39.4,1.48,1.48,0,0,0,.84.11c.47,0,1,.19,1.15.65,0,.22,0,.45,0,.66.15.58,1,.77,1.1,1.36,0,.18,0,.37,0,.55a1.56,1.56,0,0,0,.34.58,1.3,1.3,0,0,1,.21,1.06,2,2,0,0,1-.38.61l-.74.92a2.83,2.83,0,0,1-1.08.93,1.3,1.3,0,0,0-.43.2.88.88,0,0,0-.24.59c-.14,1-.35,2.23-1.27,2.71a5,5,0,0,0-.77.38,2.38,2.38,0,0,0-.43.52,2.67,2.67,0,0,1-2,1.16C40.3,35.44,39.16,31.64,39,30Z"/><path class="cls-7" d="M30.34,32.09a3.45,3.45,0,0,1,2.17-1.39c.85-.2,1.74-.22,2.6-.35,1.48-.22,2.9-.75,4.39-.84a15,15,0,0,1,4.72.73A28.52,28.52,0,0,1,51.64,33a.51.51,0,0,1,.21.2.52.52,0,0,1,0,.3q-2.27,7.47-4.52,15a1.49,1.49,0,0,1-.61,1,1.54,1.54,0,0,1-.8.08A58.08,58.08,0,0,1,40,48.62a12.08,12.08,0,0,1-5.83-2.39,3,3,0,0,1-1.34-2.45,30.42,30.42,0,0,0-.17-4.05A23.38,23.38,0,0,0,30.34,32.09Z"/><path class="cls-8" d="M47.75,36c-.08-.53-.21-1.17.18-1.54a2.37,2.37,0,0,0,.38-.33c.19-.29,0-.72.18-1s.35-.28.49-.45a.91.91,0,0,0,0-1,47.41,47.41,0,0,0-4.67-1.42,14.9,14.9,0,0,0-4.71-.73c-1.49.09-2.91.62-4.39.84l-.56.07h0c-.12.27-.6.32-.63.64s.4.4.51.67-.56.77-.49,1.22a.81.81,0,0,0,.21.34,5.62,5.62,0,0,0,1.38,1.1c.39.21.87.52.79,1s-.48.56-.51.9a.93.93,0,0,0,.15.48l.64,1.18a3.06,3.06,0,0,1,.3.67,2.74,2.74,0,0,1,.07.5c0,.56-.08,1.12,0,1.68A1.53,1.53,0,0,0,38,42.08c.24.08.49.08.73.15a1.74,1.74,0,0,1,1,1.07c.18.46.25,1,.43,1.44a2.64,2.64,0,0,0,2.68,1.8,1.46,1.46,0,0,0,.69-.29,2.47,2.47,0,0,0,.58-.7l1.34-2.14a6.77,6.77,0,0,0,.8-1.56,3.21,3.21,0,0,1,.3-.8c.2-.33.57-.52.77-.85a2.08,2.08,0,0,0,.26-.82A10.53,10.53,0,0,0,47.75,36Z"/><path class="cls-9" d="M42.32,29.06a2.39,2.39,0,0,1-1-.5,1.13,1.13,0,0,1,.65.18,3.77,3.77,0,0,0,1.62.37.25.25,0,0,0,.15,0,.24.24,0,0,0,0-.1,1.33,1.33,0,0,0-.61-1.3,2.55,2.55,0,0,1-1-1.14c.38.05.6.44.83.75a2.85,2.85,0,0,0,.94.82.73.73,0,0,0,.43.11.56.56,0,0,0,.38-.66,1.8,1.8,0,0,0-.41-.72,3.3,3.3,0,0,1-.93-2.33l1.07,1.9c.07.12.18.27.32.23s.14-.28.1-.44a13.05,13.05,0,0,1-.41-2.05.69.69,0,0,1,.1-.58l.06,0c.08,0,.11.09.12.17a20.86,20.86,0,0,0,.23,2.09.51.51,0,0,0,.2.38.32.32,0,0,0,.4-.17,1.07,1.07,0,0,0,.1-.47,2.37,2.37,0,0,1,.79-1.82c.13-.1.35-.15.42,0a.28.28,0,0,1,0,.22,4.94,4.94,0,0,1-.35.64,8.38,8.38,0,0,0-.75,2c0,.15-.07.35.06.43a.36.36,0,0,0,.29,0,2.57,2.57,0,0,1,1.62,0c-.19.3-.63.26-1,.25a2.88,2.88,0,0,0-1.23.25c-.12.06-.26.15-.24.28s.12.19.23.23c.51.19,1.14.12,1.55.49-.82.34-1.8,0-2.59.41a.3.3,0,0,0-.17.14.26.26,0,0,0,.16.32,1.29,1.29,0,0,0,.4.07,1.29,1.29,0,0,1,.72.33,1.51,1.51,0,0,1-1,.18,2.15,2.15,0,0,0-.86-.11,2.39,2.39,0,0,1-.43.14c-.27,0-.26-.35-.4-.51A1.62,1.62,0,0,0,42.32,29.06Z"/><path class="cls-6" d="M36,29.61c-.11,0-.28-.06-.24-.17s.09-.08.15-.1a17.25,17.25,0,0,0,2.3-.77,1.18,1.18,0,0,0,.39-.23.43.43,0,0,0,.11-.42c-.11-.26-.49-.24-.76-.16-1.22.35-2.44.95-3.7.78a.68.68,0,0,1-.34-.11.31.31,0,0,1-.12-.33.39.39,0,0,1,.27-.19,3.73,3.73,0,0,1,1.11-.08,7.4,7.4,0,0,0,2.67-.5.64.64,0,0,0,.35-.25.43.43,0,0,0-.13-.49.94.94,0,0,0-.52-.16c-.87-.06-1.71.44-2.57.35-.15,0-.33-.08-.37-.22,1.13-.36,2.44-.13,3.44-.76a2.08,2.08,0,0,0-1.65-.66,1.92,1.92,0,0,1-1.62-.71c0-.09-.08-.23,0-.29a.22.22,0,0,1,.13,0,2.59,2.59,0,0,1,1.23.29l1.32.55c.24.1.53.19.72,0a.61.61,0,0,0,.14-.6c-.12-.83-.56-1.69-.24-2.46a.31.31,0,0,1,.14-.16.2.2,0,0,1,.23.12.55.55,0,0,1,0,.28,10.42,10.42,0,0,0,.23,2.23.54.54,0,0,0,.09.22.33.33,0,0,0,.36,0,1.09,1.09,0,0,0,.29-.24A5.13,5.13,0,0,1,41,23.28c.11-.05.27-.08.34,0s0,.24-.12.33a11.21,11.21,0,0,1-2.43,1.79c-.17.09-.36.22-.34.41a.32.32,0,0,0,.3.24.89.89,0,0,0,.39-.09l1.32-.48a1.09,1.09,0,0,1-.65.61,1.81,1.81,0,0,0-.76.5c-.18.25-.14.68.16.77a1.32,1.32,0,0,0,.52-.05c.27,0,.1.22,0,.31s-.2.08-.25.2.05.22,0,.32c-.06.36-.4.3-.7.42A8.19,8.19,0,0,1,36,29.61Z"/><path class="cls-10" d="M32.28,33.7a1.15,1.15,0,0,0,1.07.48,3.55,3.55,0,0,0,1.17-.37,12.86,12.86,0,0,1,5.54-1.5,26.74,26.74,0,0,0,3,.19c.27,0,.6-.13.62-.4s-.27-.41-.51-.47c-1.54-.41-3.19.24-4.76,0a5.52,5.52,0,0,0-2-.27A4.47,4.47,0,0,0,35,32a1.79,1.79,0,0,1-1.39.28c-.48-.15-.75-.32-1.1.08A1.29,1.29,0,0,0,32.28,33.7Z"/><path class="cls-11" d="M19.57,22.18c-2.95,1.5-2.12,10.74-1.64,13.29,1.44,7.7,7.06,28,7.7,29.17,1.62,2.94,6.16,1.16,7.41-.24,2.5-2.79,2.33-4.86,1.84-7.8C34.45,54,29.67,37.81,28,32.17,26.42,26.82,23.89,20,19.57,22.18Z"/><path class="cls-12" d="M34.43,54.66A3.81,3.81,0,0,1,33.65,56c-.61.6-1.29,1.19-2,1.73a7.1,7.1,0,0,1-2.59,1.14C31,60.2,34.35,57.79,35,57.27c0-.29-.09-.58-.14-.89S34.63,55.44,34.43,54.66Z"/><path class="cls-13" d="M35,57.27l-.06-.39c-.64.53-3.34,2.44-5.24,1.83a5.08,5.08,0,0,1-.56.14C31,60.2,34.35,57.79,35,57.27Z"/><path class="cls-12" d="M23.79,37a5.38,5.38,0,0,0,3.35,0A11.36,11.36,0,0,0,29,35.46c-.29-1-.55-1.85-.77-2.61-.09.26-.17.47-.22.6a5,5,0,0,1-2,2.44C25.51,36.19,24.38,36.64,23.79,37Z"/><path class="cls-13" d="M27.14,37A11.91,11.91,0,0,0,29,35.46l-.1-.32a11.19,11.19,0,0,1-1.79,1.5,5.45,5.45,0,0,1-2.91.16l-.39.23A5.38,5.38,0,0,0,27.14,37Z"/><path class="cls-12" d="M25.11,30.41a15.93,15.93,0,0,1-3,2.15,7.89,7.89,0,0,0,3.47-.27c1.09-.34,1.78-1.6,2-1.8-.3-.94-.63-1.91-1-2.83A4.35,4.35,0,0,1,25.11,30.41Z"/><path class="cls-13" d="M25.55,32.29c1.08-.34,1.77-1.6,1.95-1.8,0-.12-.07-.24-.11-.36a4.37,4.37,0,0,1-1.93,1.76,9.16,9.16,0,0,1-2.83.37l-.55.3A7.92,7.92,0,0,0,25.55,32.29Z"/><path class="cls-12" d="M31.1,51.5a19.94,19.94,0,0,1-3.45,1.86c.77.66,2.86.22,3.7,0a16.88,16.88,0,0,0,2.45-1.15c-.21-.74-.43-1.55-.67-2.4A8.53,8.53,0,0,1,31.1,51.5Z"/><path class="cls-13" d="M31.35,53.38a17.89,17.89,0,0,0,2.44-1.15c0-.12-.06-.24-.1-.36a11.65,11.65,0,0,1-2.21,1.05,7.38,7.38,0,0,1-3.28.21l-.55.23C28.42,54,30.51,53.57,31.35,53.38Z"/><path class="cls-12" d="M30.51,45.34a20.82,20.82,0,0,1-2.15,1.75c-.66.39-1.43.69-2.06,1.06A4.75,4.75,0,0,0,28,48.4a12.87,12.87,0,0,0,3.42-1,6.18,6.18,0,0,0,.86-.6c-.25-.89-.51-1.81-.78-2.73A3.75,3.75,0,0,1,30.51,45.34Z"/><path class="cls-13" d="M28,48.4a13.25,13.25,0,0,0,3.42-1,6.18,6.18,0,0,0,.86-.6l-.1-.37a4.12,4.12,0,0,1-.74.51,13.43,13.43,0,0,1-3.41,1,3.66,3.66,0,0,1-1.13-.1c-.21.1-.4.2-.59.31A4.75,4.75,0,0,0,28,48.4Z"/><path class="cls-12" d="M24.82,42.55c.77.63,2.51.4,3.34,0a27.37,27.37,0,0,0,2.46-1.45c-.24-.81-.47-1.61-.7-2.38A8.29,8.29,0,0,1,24.82,42.55Z"/><path class="cls-13" d="M28.15,42.52c.86-.46,1.66-.93,2.46-1.46l-.13-.44c-.78.52-1.57,1-2.41,1.43a4.41,4.41,0,0,1-2.72.34,5.52,5.52,0,0,1-.54.16C25.58,43.19,27.32,43,28.15,42.52Z"/><path class="cls-14" d="M26,64.29c-.43-1.7-1.12-3.38-1.51-5.15-.18-.83-.42-1.6-.59-2.44a16.65,16.65,0,0,0-.5-2.53c-.32-.86-.74-1.63-1-2.51s-.49-1.76-.8-2.61a17.47,17.47,0,0,1-.68-2.6c-.15-.78-.06-1.68-.23-2.47-.22-1-.77-1.92-1-2.88a22.24,22.24,0,0,1-.34-2.47c-.29-2-.65-4-.91-6a33.65,33.65,0,0,1,0-6.19,10.28,10.28,0,0,1,1.11-4.24c-2.85,1.63-2,10.72-1.56,13.25,1.44,7.69,7.06,28,7.7,29.17a2.92,2.92,0,0,0,.94,1A11.92,11.92,0,0,0,26,64.29Z"/><path class="cls-14" d="M23.71,24.89l0,.5c0,.11.17.12.17,0l0-.5c0-.11-.17-.12-.18,0Z"/><path class="cls-14" d="M24.58,25.32a2.52,2.52,0,0,1,.05.48c0,.11.17.12.17,0a2.32,2.32,0,0,0,0-.53c0-.11-.2-.07-.18,0Z"/><path class="cls-14" d="M24.14,26.36c0,.13.08.24.12.37s.2.07.17,0-.09-.24-.12-.37-.21-.07-.17,0Z"/><path class="cls-14" d="M23.15,26.67l.26.3c.08.08.21,0,.14-.12l-.27-.3a.09.09,0,0,0-.13.12Z"/><path class="cls-14" d="M24.17,27.86a.88.88,0,0,1-.23.24c-.1.06,0,.22.08.16a1.22,1.22,0,0,0,.3-.3c.07-.09-.08-.19-.15-.1Z"/><path class="cls-14" d="M25.4,27.38l-.13.31a.09.09,0,0,0,.17.06l.13-.31a.09.09,0,0,0-.17-.06Z"/><path class="cls-14" d="M25.35,26.38a.64.64,0,0,1,0,.28c0,.11.17.12.18,0a.9.9,0,0,0-.07-.37c0-.11-.2,0-.16.08Z"/><path class="cls-14" d="M25.8,28.25a.88.88,0,0,0-.33.49.09.09,0,0,0,.17.05.7.7,0,0,1,.28-.41c.09-.06,0-.19-.12-.13Z"/><path class="cls-14" d="M24.41,29.27a.81.81,0,0,0-.4.33.09.09,0,0,0,.15.09.73.73,0,0,1,.33-.27c.11,0,0-.2-.08-.15Z"/><path class="cls-14" d="M24.7,28.61a1,1,0,0,0-.24.17c-.09.08,0,.21.11.14a1.06,1.06,0,0,1,.21-.16c.1,0,0-.2-.08-.15Z"/><path class="cls-14" d="M23.31,28.84h-.18a.09.09,0,1,0,0,.18h.18a.09.09,0,0,0,0-.18Z"/><path class="cls-14" d="M23.21,23.35H23a.09.09,0,0,0,0,.18h.18c.11,0,.12-.17,0-.18Z"/><path class="cls-14" d="M22.23,22.85A.54.54,0,0,0,22,23c-.06.1.09.2.15.1a.44.44,0,0,1,.19-.1.1.1,0,0,0,0-.12.09.09,0,0,0-.12,0Z"/><path class="cls-14" d="M21.37,24v.21a.09.09,0,0,0,.18,0V24c0-.11-.17-.12-.18,0Z"/><path class="cls-14" d="M22.42,24.5a.09.09,0,1,0,.17,0c0-.11-.17-.12-.17,0Z"/><path class="cls-14" d="M22.43,24.55a.82.82,0,0,1,0,.28.09.09,0,0,0,.18,0,.9.9,0,0,0-.07-.37c0-.11-.2,0-.15.08Z"/><path class="cls-14" d="M21.91,26a.09.09,0,1,0,.17,0c0-.11-.17-.12-.17,0Z"/><path class="cls-14" d="M21.91,26a.73.73,0,0,0,.09.41c.06.1.22,0,.16-.08a.59.59,0,0,1-.08-.32c0-.11-.17-.12-.17,0Z"/><path class="cls-14" d="M21.83,28.45a1.78,1.78,0,0,0-.17.3c0,.1.12.16.17.05s.1-.17.14-.25-.09-.2-.14-.1Z"/><path class="cls-14" d="M20.87,27.92a.91.91,0,0,0-.13.19.09.09,0,0,0,.15.09.78.78,0,0,1,.1-.15.09.09,0,0,0-.12-.13Z"/><path class="cls-14" d="M22.58,30.81a.09.09,0,1,0,.17,0c0-.11-.17-.12-.17,0Z"/><path class="cls-14" d="M22.61,30.75a1.94,1.94,0,0,0-.32.32c-.07.09.08.19.15.1a2,2,0,0,1,.29-.29c.08-.07,0-.21-.12-.13Z"/><path class="cls-14" d="M27.37,31.68a1,1,0,0,0-.05.35c0,.11.17.12.17,0a1.45,1.45,0,0,1,.05-.3c0-.11-.13-.16-.17-.06Z"/><path class="cls-14" d="M27.16,33.45l-.26.23c-.09.08,0,.21.12.14l.26-.24a.09.09,0,0,0-.12-.13Z"/><path class="cls-14" d="M26.19,33.24a1.27,1.27,0,0,1-.23.12c-.11,0-.07.21,0,.18a2.29,2.29,0,0,0,.27-.14.09.09,0,1,0-.08-.16Z"/><path class="cls-14" d="M26.71,32.17a1.51,1.51,0,0,0-.18.09.1.1,0,0,0,0,.12.09.09,0,0,0,.12,0l.18-.1a.08.08,0,0,0,0-.12.09.09,0,0,0-.12,0Z"/><path class="cls-14" d="M25.28,32.6a.9.9,0,0,0-.18.28c0,.11.13.16.17.06a.57.57,0,0,1,.13-.21c.09-.07,0-.21-.12-.13Z"/><path class="cls-14" d="M24.07,33.09a.6.6,0,0,0-.1.25c0,.12.17.12.18,0a.46.46,0,0,1,.07-.16.11.11,0,0,0,0-.13.09.09,0,0,0-.12,0Z"/><path class="cls-14" d="M23,33.89a.09.09,0,0,0,.18,0c0-.11-.17-.12-.18,0Z"/><path class="cls-14" d="M23,33.89v.29c0,.11.17.12.17,0l0-.29c0-.11-.17-.12-.18,0Z"/><path class="cls-14" d="M23.8,35.25v.25a.09.09,0,1,0,.17,0l0-.25c0-.11-.18-.12-.18,0Z"/><path class="cls-14" d="M24.92,34.32h0v0s0,0,0,0l0,0h0a.09.09,0,1,0,.12.14.32.32,0,0,0,.1-.2.09.09,0,1,0-.17,0Z"/><path class="cls-14" d="M26.15,34.63v0a0,0,0,0,1,0,0h0a.09.09,0,0,0,0,.13.08.08,0,0,0,.12,0,.24.24,0,0,0,.07-.2.08.08,0,0,0-.08-.09.08.08,0,0,0-.09.08Z"/><path class="cls-14" d="M25.15,35.56a.17.17,0,0,0-.17.15.09.09,0,0,0,.09.09.08.08,0,0,0,.09-.08h0s0,0,0,0,0,0,0,0a.11.11,0,0,0,.1-.09.09.09,0,0,0-.09-.09Z"/><path class="cls-14" d="M27.75,32.51v.21a.09.09,0,0,0,.18,0v-.21c0-.11-.17-.12-.18,0Z"/><path class="cls-14" d="M28.75,36.55a.86.86,0,0,1,0,.17.08.08,0,0,0,0,.12.08.08,0,0,0,.12,0,.63.63,0,0,0,.07-.26c0-.11-.18-.12-.18,0Z"/><path class="cls-14" d="M28.85,38.55a.37.37,0,0,1-.07.2c-.05.1.1.2.15.1a.77.77,0,0,0,.1-.29c0-.11-.17-.12-.18,0Z"/><path class="cls-14" d="M28.1,38.22a.49.49,0,0,1-.27.15.09.09,0,0,0,0,.18.67.67,0,0,0,.39-.24c.07-.09-.08-.18-.15-.09Z"/><path class="cls-14" d="M27.87,37.14l-.33.16a.09.09,0,0,0,.08.16c.11-.06.23-.1.33-.16s0-.22-.08-.16Z"/><path class="cls-14" d="M26.08,37.59a1.16,1.16,0,0,0-.18.35c0,.11.13.16.17.06a.72.72,0,0,1,.13-.28.09.09,0,1,0-.12-.13Z"/><path class="cls-14" d="M26.73,38.33a.48.48,0,0,1-.07.2c-.05.1.09.2.15.1a.77.77,0,0,0,.1-.29c0-.12-.17-.12-.18,0Z"/><path class="cls-14" d="M26.21,40.32a.28.28,0,0,1-.12.14.1.1,0,0,0,0,.12.1.1,0,0,0,.12,0,.46.46,0,0,0,.19-.2.09.09,0,0,0,0-.12.08.08,0,0,0-.12,0Z"/><path class="cls-14" d="M25.34,40.23a2.26,2.26,0,0,0-.35.17c-.1.06,0,.22.08.16a1.27,1.27,0,0,1,.31-.15c.11,0,.07-.21,0-.18Z"/><path class="cls-14" d="M25,38.78a.61.61,0,0,1-.16.12.09.09,0,0,0,0,.12.1.1,0,0,0,.12,0,.75.75,0,0,0,.2-.15c.09-.07,0-.21-.12-.13Z"/><path class="cls-14" d="M24,37.67a.42.42,0,0,0-.29.26.08.08,0,0,0,.06.11.09.09,0,0,0,.11-.06.23.23,0,0,1,.16-.14.08.08,0,0,0,.06-.1c0-.05-.05-.09-.1-.07Z"/><path class="cls-14" d="M23.56,39.74a1,1,0,0,0,0,.34c0,.11.17.12.17,0a1.57,1.57,0,0,1,.05-.3c0-.1-.13-.16-.17,0Z"/><path class="cls-14" d="M23.52,41.18a.24.24,0,0,0,.05.18.1.1,0,0,0,.13,0,.09.09,0,0,0,0-.12s0,0,0,0h0v0a.08.08,0,0,0-.08-.09.08.08,0,0,0-.09.08Z"/><path class="cls-14" d="M28.12,39.28a2.86,2.86,0,0,1-.28.45c-.07.09.08.19.15.1a3,3,0,0,0,.27-.45c.06-.1-.09-.2-.14-.1Z"/><path class="cls-14" d="M28.65,39.28l-.12.2a.1.1,0,0,0,0,.13.09.09,0,0,0,.12,0l.12-.21a.09.09,0,0,0,0-.12.09.09,0,0,0-.12,0Z"/><path class="cls-14" d="M29.27,37.42a2.37,2.37,0,0,1,.09.36.09.09,0,1,0,.17,0c0-.12-.05-.24-.08-.36s-.21-.07-.18,0Z"/><path class="cls-14" d="M30.36,42.3a1.52,1.52,0,0,1-.13.54c-.05.1.12.16.17,0a1.65,1.65,0,0,0,.14-.58.09.09,0,1,0-.18,0Z"/><path class="cls-14" d="M29.77,42.49a1.76,1.76,0,0,0-.32.39c-.05.1.09.2.15.1a1.48,1.48,0,0,1,.29-.36.09.09,0,1,0-.12-.13Z"/><path class="cls-14" d="M29.54,43.68c0,.12,0,.23,0,.35a.09.09,0,1,0,.17,0c0-.12,0-.24,0-.35s-.18-.13-.18,0Z"/><path class="cls-14" d="M30.72,43.53l0,.35c0,.12.18.12.18,0l0-.35a.09.09,0,1,0-.18,0Z"/><path class="cls-14" d="M30.91,44.2a5.63,5.63,0,0,0-.38.45c-.06.09.09.19.15.09s.26-.29.38-.44-.07-.18-.15-.1Z"/><path class="cls-14" d="M29.63,45.56a2.14,2.14,0,0,0-.39.28.09.09,0,1,0,.12.13,1.83,1.83,0,0,1,.35-.25c.1-.06,0-.22-.08-.16Z"/><path class="cls-14" d="M29.29,45a2.65,2.65,0,0,1-.37.12.09.09,0,0,0,0,.18,3.82,3.82,0,0,0,.36-.13c.11,0,.08-.2,0-.17Z"/><path class="cls-14" d="M28.34,44.1a1.28,1.28,0,0,1-.27,0,.09.09,0,0,0,0,.18,1.2,1.2,0,0,0,.32-.06c.11,0,.07-.2,0-.17Z"/><path class="cls-14" d="M28.5,42.78a.82.82,0,0,0-.37.1c-.1.06,0,.22.08.16a.57.57,0,0,1,.28-.08.09.09,0,1,0,0-.18Z"/><path class="cls-14" d="M26.8,43.47a.93.93,0,0,0-.26.41c0,.11.14.17.17.06a.75.75,0,0,1,.21-.34.09.09,0,0,0-.12-.13Z"/><path class="cls-14" d="M26.71,45.42a4,4,0,0,0-.17.49c0,.11.14.17.17.06a2.84,2.84,0,0,1,.17-.49c.05-.11-.12-.16-.17-.06Z"/><path class="cls-14" d="M28,45.65a.77.77,0,0,0-.28.4.09.09,0,0,0,.17.05.61.61,0,0,1,.19-.29c.1-.06,0-.22-.08-.16Z"/><path class="cls-14" d="M26.92,47.11a.46.46,0,0,0-.19.08.08.08,0,0,0,0,.12.09.09,0,0,0,.12,0l.08,0,0,0h0a.08.08,0,0,0,.09-.08.08.08,0,0,0-.08-.1Z"/><path class="cls-14" d="M30.48,41.4a.32.32,0,0,0-.16.09.59.59,0,0,0-.1.17c0,.11.13.16.17.06s.05-.13.12-.15a.08.08,0,0,0,.07-.1s-.06-.09-.1-.07Z"/><path class="cls-14" d="M32.05,47.39a.86.86,0,0,1,.05.27c0,.11.18.12.18,0a1.07,1.07,0,0,0-.06-.31c0-.11-.2-.08-.17,0Z"/><path class="cls-14" d="M32.4,48.85a2.07,2.07,0,0,1-.09.4c0,.11.13.16.17,0a2.15,2.15,0,0,0,.09-.44.09.09,0,1,0-.17,0Z"/><path class="cls-14" d="M32.07,49.71a1.29,1.29,0,0,0-.4.33c-.08.09.07.19.15.1a.91.91,0,0,1,.34-.27c.1,0,0-.2-.09-.16Z"/><path class="cls-14" d="M31.54,48.51a.9.9,0,0,1-.27.2c-.09.06,0,.22.08.16a1.1,1.1,0,0,0,.34-.26c.07-.1-.08-.19-.15-.1Z"/><path class="cls-14" d="M30.49,48.3a3.13,3.13,0,0,0-.53,0c-.11,0-.07.19,0,.17a2.57,2.57,0,0,1,.48,0,.09.09,0,0,0,0-.18Z"/><path class="cls-14" d="M29.46,49.31a1,1,0,0,1-.19.32c-.07.09.08.19.15.1a1.48,1.48,0,0,0,.21-.37.09.09,0,0,0-.17,0Z"/><path class="cls-14" d="M30.49,49.48a2.08,2.08,0,0,0-.32.51c-.05.1.12.15.17,0a2.27,2.27,0,0,1,.3-.46c.07-.09-.08-.18-.15-.1Z"/><path class="cls-14" d="M30.48,50.91a1.07,1.07,0,0,0-.34.33c-.05.1.1.2.15.1a.87.87,0,0,1,.27-.27c.1-.06,0-.22-.08-.16Z"/><path class="cls-14" d="M29,51.75a1,1,0,0,0-.44.21.09.09,0,1,0,.12.13.8.8,0,0,1,.36-.17c.11,0,.07-.19,0-.17Z"/><path class="cls-14" d="M28.68,51a4.48,4.48,0,0,1-.5.11.09.09,0,0,0,0,.18,3.14,3.14,0,0,0,.51-.12c.11,0,.07-.21,0-.17Z"/><path class="cls-14" d="M28.1,49.67l-.36,0c-.11,0-.12.17,0,.18h.36c.11,0,.12-.17,0-.17Z"/><path class="cls-14" d="M27.11,48.84a2.81,2.81,0,0,0-.29.54c-.05.1.12.16.17.06a3.93,3.93,0,0,1,.26-.5c.07-.1-.08-.2-.14-.1Z"/><path class="cls-14" d="M26.73,50.76a.26.26,0,0,0-.05.09l0,0s0,0,0,0h0a.09.09,0,0,0,.12.13.47.47,0,0,0,.06-.09v0s0,0,0,0,0,0,0,0a.08.08,0,0,0,0-.12.09.09,0,0,0-.13,0Z"/><path class="cls-14" d="M28.9,48.9a.74.74,0,0,0-.46-.07c-.11,0-.07.21,0,.18a.45.45,0,0,1,.32,0c.1.06.2-.09.1-.15Z"/><path class="cls-14" d="M29,50.18a.35.35,0,0,0-.29.13c-.07.1.08.2.14.1a.19.19,0,0,1,.14,0c.12,0,.13-.18,0-.18Z"/><path class="cls-14" d="M29.61,51.18a.75.75,0,0,0-.2.15.09.09,0,1,0,.12.13.48.48,0,0,1,.16-.12.09.09,0,0,0,0-.12.1.1,0,0,0-.12,0Z"/><path class="cls-14" d="M33.48,52.57c0,.12,0,.24,0,.36s.18.12.18,0,0-.24,0-.36-.18-.12-.18,0Z"/><path class="cls-14" d="M33.86,53.49c0,.13,0,.26-.09.39a.09.09,0,0,0,.17.06c0-.13.05-.26.09-.39s-.14-.17-.17-.06Z"/><path class="cls-14" d="M33.86,54.56a2.59,2.59,0,0,0-.39.42c-.07.1.08.19.15.1a2.22,2.22,0,0,1,.36-.39.09.09,0,0,0-.12-.13Z"/><path class="cls-14" d="M32.79,54.62a1.32,1.32,0,0,0-.38.13c-.1.06,0,.22.08.16a1.38,1.38,0,0,1,.34-.12.09.09,0,1,0,0-.17Z"/><path class="cls-14" d="M32.85,53.48a1.28,1.28,0,0,0-.34.14c-.1.05,0,.21.08.15a1.54,1.54,0,0,1,.3-.11c.11,0,.07-.21,0-.18Z"/><path class="cls-14" d="M31.75,53.65a.09.09,0,1,0,.18,0c0-.11-.18-.12-.18,0Z"/><path class="cls-14" d="M31.81,53.57a1,1,0,0,0-.48.06c-.11,0,0,.2.08.15a1,1,0,0,1,.39,0c.11,0,.12-.17,0-.17Z"/><path class="cls-14" d="M30.9,54.18c0,.11.17.12.18,0a.09.09,0,0,0-.18,0Z"/><path class="cls-14" d="M30.91,54.15c-.05.15-.09.31-.14.46s.14.17.17.06.09-.31.13-.46-.13-.17-.16-.06Z"/><path class="cls-14" d="M31,55.51a.77.77,0,0,0-.22.31c0,.11.13.16.17.06a.81.81,0,0,1,.17-.24c.08-.08,0-.21-.12-.13Z"/><path class="cls-14" d="M31.57,55l-.13.42c0,.11.14.17.17.06l.13-.42a.09.09,0,0,0-.17-.06Z"/><path class="cls-14" d="M32.61,55.49a.62.62,0,0,1-.16.2.09.09,0,1,0,.12.13.68.68,0,0,0,.21-.27c0-.11-.12-.16-.17-.06Z"/><path class="cls-14" d="M31.59,56.67c0,.11.17.12.17,0a.09.09,0,1,0-.17,0Z"/><path class="cls-14" d="M31.6,56.63c-.12.07-.22.16-.34.23s0,.22.09.16.21-.16.33-.23,0-.22-.08-.16Z"/><path class="cls-14" d="M30.41,57.27l-.36.09c-.11,0-.07.2,0,.17l.36-.09c.11,0,.07-.2,0-.17Z"/><path class="cls-14" d="M29.82,54.1h-.28a.09.09,0,1,0,0,.17l.28,0c.11,0,.12-.17,0-.18Z"/><path class="cls-14" d="M28.26,54.16a.73.73,0,0,0-.29.15c-.09.08,0,.21.11.14a.51.51,0,0,1,.22-.11c.11,0,.07-.21,0-.18Z"/><path class="cls-14" d="M28.53,55.57l-.28.45c-.05.1.09.2.15.1s.19-.3.27-.45-.09-.2-.14-.1Z"/><path class="cls-14" d="M29.6,55.22a2.91,2.91,0,0,0-.12.39.08.08,0,1,0,.16,0c0-.13.08-.25.13-.38s-.13-.16-.17-.06Z"/><path class="cls-14" d="M28.94,57.52a.09.09,0,0,0,.18,0c0-.11-.17-.12-.18,0Z"/><path class="cls-14" d="M28.94,57.57l-.12.35c0,.11.13.16.17.06l.12-.35c0-.11-.13-.16-.17-.06Z"/><path class="cls-14" d="M34.65,57.91a3.59,3.59,0,0,1-.12.35.09.09,0,0,0,.17.06c0-.12.09-.23.12-.35a.09.09,0,0,0-.17-.06Z"/><path class="cls-14" d="M34.81,59.1c-.05.2-.13.39-.18.59s.14.17.17.06.13-.4.17-.6-.14-.17-.16,0Z"/><path class="cls-14" d="M34.39,60.57a2.2,2.2,0,0,0-.24.28c-.07.1.08.19.15.1a1.73,1.73,0,0,1,.21-.25.09.09,0,1,0-.12-.13Z"/><path class="cls-14" d="M34,59.74a1.12,1.12,0,0,1-.38.15.09.09,0,0,0,0,.18A1.28,1.28,0,0,0,34,59.9a.09.09,0,0,0-.08-.16Z"/><path class="cls-14" d="M33.91,58.8a.53.53,0,0,0-.32.12.09.09,0,1,0,.12.13A.32.32,0,0,1,33.9,59c.11,0,.12-.17,0-.18Z"/><path class="cls-14" d="M32.7,59.28a.46.46,0,0,0-.45.07c-.09.07,0,.2.12.13a.29.29,0,0,1,.27,0c.11,0,.17-.14.06-.17Z"/><path class="cls-14" d="M31.56,60a1.89,1.89,0,0,0-.21.51c0,.11.14.16.16.05a2.67,2.67,0,0,1,.2-.46c.05-.1-.09-.2-.15-.1Z"/><path class="cls-14" d="M32.06,61.35c-.07.13-.13.28-.2.41s.09.2.15.1.12-.28.2-.41-.09-.2-.15-.1Z"/><path class="cls-14" d="M33.11,60.17a1.79,1.79,0,0,1-.09.4c0,.11.13.16.17,0a2.15,2.15,0,0,0,.09-.44.09.09,0,1,0-.17,0Z"/><path class="cls-14" d="M33.37,61.37a5,5,0,0,1-.18.63c0,.11.13.16.17.06a4.67,4.67,0,0,0,.18-.64c0-.11-.15-.16-.17-.05Z"/><path class="cls-14" d="M32.67,61.83c-.05.15-.09.3-.14.45s.14.17.17.06.09-.3.13-.45-.13-.17-.16-.06Z"/><path class="cls-14" d="M32.24,63.28a1,1,0,0,0-.45.4c-.06.1.09.2.15.1a.78.78,0,0,1,.38-.34c.11,0,0-.2-.08-.16Z"/><path class="cls-14" d="M32,64.47a.68.68,0,0,0-.39.27c-.07.09.08.19.15.1a.46.46,0,0,1,.28-.19.09.09,0,0,0,0-.18Z"/><path class="cls-14" d="M33.66,62.71a2.31,2.31,0,0,0-.27.42.09.09,0,0,0,.15.1,2.31,2.31,0,0,1,.27-.42c.07-.09-.08-.18-.15-.1Z"/><path class="cls-14" d="M34.4,61.39a1.33,1.33,0,0,1-.23.46c-.07.09.08.19.15.1a1.35,1.35,0,0,0,.25-.51.09.09,0,0,0-.17,0Z"/><path class="cls-15" d="M24,24c.06,0,.1.11.17.15a.1.1,0,0,0,.12,0,.08.08,0,0,0,0-.12c-.07,0-.11-.11-.17-.15a.09.09,0,0,0-.13,0A.11.11,0,0,0,24,24Z"/><path class="cls-15" d="M23.33,24a1.56,1.56,0,0,1,0,.37c0,.11.17.12.17,0a2,2,0,0,0,0-.42c0-.11-.2-.07-.18,0Z"/><path class="cls-15" d="M22.91,25.28l0,.28c0,.12.18.12.18,0l0-.28a.09.09,0,0,0-.18,0Z"/><path class="cls-15" d="M23.59,25.88a.33.33,0,0,0,.17.27.09.09,0,0,0,.12,0,.08.08,0,0,0,0-.12l-.07-.06,0,0v0a.09.09,0,0,0-.09-.09.09.09,0,0,0-.09.08Z"/><path class="cls-15" d="M24.15,25.38a.31.31,0,0,0,.05.21.1.1,0,0,0,.13,0,.09.09,0,0,0,0-.12s0,0,0,0v0h0v0a.11.11,0,0,0-.09-.1.09.09,0,0,0-.09.09Z"/><path class="cls-15" d="M24.46,24.68l.1.11a.09.09,0,0,0,.13,0,.09.09,0,0,0,0-.12l-.11-.11a.08.08,0,0,0-.12,0,.09.09,0,0,0,0,.13Z"/><path class="cls-15" d="M25.07,25.5a.58.58,0,0,0,0,.26.1.1,0,0,0,.12,0,.09.09,0,0,0,0-.12.33.33,0,0,1,0-.17c0-.12-.18-.13-.18,0Z"/><path class="cls-15" d="M24.8,26.52v.28a.09.09,0,1,0,.17,0l0-.28a.09.09,0,0,0-.18,0Z"/><path class="cls-15" d="M23.77,26.79c.06.12.12.25.19.37s.22,0,.16-.08l-.2-.37c-.05-.1-.21,0-.15.08Z"/><path class="cls-15" d="M23.39,27.48a.84.84,0,0,0-.22.31.09.09,0,0,0,.17.06.66.66,0,0,1,.17-.24c.08-.07,0-.21-.12-.13Z"/><path class="cls-15" d="M24.55,27.35a.71.71,0,0,0,.14.29c.08.09.21,0,.14-.12a.43.43,0,0,1-.11-.21c0-.11-.21-.08-.17,0Z"/><path class="cls-15" d="M24.46,28.28c0,.11.17.12.17,0a.09.09,0,1,0-.17,0Z"/><path class="cls-15" d="M24.46,28.28v.06h0a.09.09,0,0,0,.12.13.26.26,0,0,0,.07-.2.09.09,0,1,0-.17,0Z"/><path class="cls-15" d="M25,29a.71.71,0,0,1,0,.29c0,.11.13.16.17.06a1.35,1.35,0,0,0,.06-.34A.09.09,0,0,0,25,29Z"/><path class="cls-15" d="M25.73,27.09a2.26,2.26,0,0,0,.17.35c.06.1.22,0,.16-.08a1.27,1.27,0,0,1-.15-.31c0-.11-.21-.07-.18,0Z"/><path class="cls-15" d="M27.11,31.3a.89.89,0,0,1-.09.29.09.09,0,0,0,.17.06,1,1,0,0,0,.09-.34.09.09,0,0,0-.17,0Z"/><path class="cls-15" d="M26.09,32.45a1.37,1.37,0,0,0-.24.18.09.09,0,0,0,.12.13,1.49,1.49,0,0,1,.2-.15.09.09,0,1,0-.08-.16Z"/><path class="cls-15" d="M26.79,32.63a1,1,0,0,0-.2.15c-.08.07,0,.21.12.13a.66.66,0,0,1,.17-.12.08.08,0,0,0,0-.12.09.09,0,0,0-.12,0Z"/><path class="cls-15" d="M27.19,32.37a1.46,1.46,0,0,0,0,.42.09.09,0,1,0,.17,0,1.51,1.51,0,0,1,0-.37c0-.11-.17-.12-.18,0Z"/><path class="cls-15" d="M26.45,33.74a1,1,0,0,0-.1.33.09.09,0,1,0,.18,0,1.57,1.57,0,0,1,.08-.29c.05-.11-.12-.16-.16,0Z"/><path class="cls-15" d="M27,34.11c0,.11.17.12.17,0a.09.09,0,1,0-.17,0Z"/><path class="cls-15" d="M27,34.1l-.23.31c-.07.09.08.18.15.09l.23-.3c.07-.1-.08-.19-.15-.1Z"/><path class="cls-15" d="M26,33.79a2.23,2.23,0,0,1-.36,0c-.11,0-.17.13-.06.16A2,2,0,0,0,26,34a.09.09,0,0,0,0-.18Z"/><path class="cls-15" d="M25.36,33.45a.62.62,0,0,1-.24.08.09.09,0,1,0,0,.17.64.64,0,0,0,.33-.1c.11,0,0-.2-.08-.15Z"/><path class="cls-15" d="M24.42,33a.09.09,0,1,0,.18,0,.09.09,0,0,0-.18,0Z"/><path class="cls-15" d="M24.43,33.05a1.8,1.8,0,0,0,.06.22s.08.06.12,0a.09.09,0,0,0,0-.12,1.8,1.8,0,0,0-.06-.22.07.07,0,0,0-.11,0,.08.08,0,0,0,0,.11Z"/><path class="cls-15" d="M25.58,34.53a.79.79,0,0,1,0,.3c0,.1.13.16.17.05a1.28,1.28,0,0,0,.06-.34c0-.11-.17-.12-.18,0Z"/><path class="cls-15" d="M25.94,35.22a1.19,1.19,0,0,0-.33.26c-.07.1.08.19.15.1a.9.9,0,0,1,.27-.2c.09-.06,0-.22-.09-.16Z"/><path class="cls-15" d="M28.44,36.3a2.15,2.15,0,0,0-.09.44.09.09,0,1,0,.17,0,2.07,2.07,0,0,1,.09-.4c0-.11-.13-.16-.17-.05Z"/><path class="cls-15" d="M28.63,37.42c0,.12.06.24.09.36s.2.08.17,0-.05-.25-.08-.37-.21-.07-.18,0Z"/><path class="cls-15" d="M29,37.31l0,.25a.09.09,0,0,0,.18,0v-.25a.09.09,0,1,0-.17,0Z"/><path class="cls-15" d="M29.38,38.35a2,2,0,0,0-.14.3.09.09,0,0,0,.17.06c0-.09.07-.18.11-.26s-.09-.2-.14-.1Z"/><path class="cls-15" d="M28.49,38.54l-.31.22a.09.09,0,0,0,.08.16,2.8,2.8,0,0,0,.35-.25.09.09,0,0,0-.12-.13Z"/><path class="cls-15" d="M28.18,37.82c-.1,0-.2,0-.29.06a.09.09,0,1,0,0,.17l.28,0c.11,0,.08-.21,0-.18Z"/><path class="cls-15" d="M27,37.49c0,.11.17.12.18,0a.09.09,0,0,0-.18,0Z"/><path class="cls-15" d="M27.06,37.41a1.48,1.48,0,0,0-.35.13.09.09,0,0,0,.08.16,1.17,1.17,0,0,1,.31-.12c.11,0,.07-.2,0-.17Z"/><path class="cls-15" d="M27.37,38.46a1,1,0,0,1,0,.38.09.09,0,0,0,.17,0,1.06,1.06,0,0,0,0-.47c0-.11-.19-.07-.17,0Z"/><path class="cls-15" d="M27.09,39.69a2.4,2.4,0,0,0,.12.53c0,.1.2,0,.16-.09a2.57,2.57,0,0,1-.11-.48c0-.11-.19-.07-.17,0Z"/><path class="cls-15" d="M28.1,40a.09.09,0,1,0,.18,0,.09.09,0,0,0-.18,0Z"/><path class="cls-15" d="M28.15,39.93a1.26,1.26,0,0,0-.45.44c-.06.09.09.19.15.09a1.12,1.12,0,0,1,.38-.37c.1-.06,0-.22-.08-.16Z"/><path class="cls-15" d="M27.17,40.84a.09.09,0,1,0,.17,0c0-.11-.17-.12-.17,0Z"/><path class="cls-15" d="M26.48,39.3a1,1,0,0,0-.34,0,.09.09,0,1,0,0,.17,1,1,0,0,1,.29,0,.09.09,0,1,0,0-.17Z"/><path class="cls-15" d="M25.26,37.79c0,.11.18.12.18,0a.09.09,0,1,0-.18,0Z"/><path class="cls-15" d="M25.29,37.73l-.16.08a.1.1,0,0,0,0,.12.09.09,0,0,0,.12,0,.78.78,0,0,0,.2-.11.09.09,0,1,0-.12-.13Z"/><path class="cls-15" d="M30.67,42.57a1.27,1.27,0,0,0-.07.58c0,.12.19.08.18,0a1,1,0,0,1,.06-.48c0-.11-.13-.16-.17-.06Z"/><path class="cls-15" d="M30.19,43.13a.65.65,0,0,0-.07.49.09.09,0,1,0,.17,0,.5.5,0,0,1,.05-.36.09.09,0,0,0-.15-.1Z"/><path class="cls-15" d="M30.33,44.08l-.38.34c-.08.08,0,.21.12.13l.38-.34c.08-.07,0-.2-.12-.13Z"/><path class="cls-15" d="M29.43,44.45a.09.09,0,1,0,.18,0c0-.11-.18-.12-.18,0Z"/><path class="cls-15" d="M29.52,44.37l-.53,0c-.12,0-.12.17,0,.18l.53,0a.09.09,0,0,0,0-.18Z"/><path class="cls-15" d="M29.08,43.48l-.26.24c-.09.07,0,.21.12.13l.26-.24c.08-.07,0-.2-.12-.13Z"/><path class="cls-15" d="M29.8,42a4.38,4.38,0,0,0-.39.36.09.09,0,0,0,0,.12.09.09,0,0,0,.12,0,2.67,2.67,0,0,1,.36-.32c.09-.08,0-.21-.12-.14Z"/><path class="cls-15" d="M28.74,42.65a.67.67,0,0,0,.09.5c.07.09.22,0,.16-.08a.46.46,0,0,1-.08-.36.09.09,0,0,0-.17-.06Z"/><path class="cls-15" d="M30.06,44.83a.77.77,0,0,1-.23.21c-.1.06,0,.22.08.16a1,1,0,0,0,.3-.27c.07-.09-.08-.19-.15-.1Z"/><path class="cls-15" d="M28.39,44.76a1.89,1.89,0,0,1,.05.23c0,.11.2.08.18,0a2.29,2.29,0,0,0-.07-.28.1.1,0,0,0-.12,0,.09.09,0,0,0,0,.12Z"/><path class="cls-15" d="M28.76,45.68c-.05.11-.11.22-.16.34s.13.16.17.06.11-.23.16-.35-.13-.16-.17,0Z"/><path class="cls-15" d="M28.45,43.6a2.26,2.26,0,0,0-.45-.1.09.09,0,0,0,0,.18,1.3,1.3,0,0,1,.4.09c.11,0,.16-.13.06-.17Z"/><path class="cls-15" d="M27.58,43.14l0,.5c0,.12.17.12.18,0l0-.5c0-.11-.17-.12-.17,0Z"/><path class="cls-15" d="M27.68,44.5l0,.39a.09.09,0,1,0,.18,0l0-.39c0-.11-.17-.12-.18,0Z"/><path class="cls-15" d="M28.33,45.78v.11a.08.08,0,0,0,.08.09.1.1,0,0,0,.1-.08v-.11a.08.08,0,0,0-.08-.09.08.08,0,0,0-.09.08Z"/><path class="cls-15" d="M28.14,46.5a1.89,1.89,0,0,0-.35.17c-.1.06,0,.22.08.16a1.27,1.27,0,0,1,.31-.15c.11,0,.07-.21,0-.18Z"/><path class="cls-15" d="M27.24,44.35a1.64,1.64,0,0,0-.38,0,.09.09,0,0,0,0,.18,1.27,1.27,0,0,1,.34,0c.11,0,.12-.17,0-.18Z"/><path class="cls-15" d="M31.67,47.62a1,1,0,0,0-.44.21.09.09,0,1,0,.12.13.8.8,0,0,1,.36-.17.09.09,0,1,0,0-.17Z"/><path class="cls-15" d="M32.27,48.12a.77.77,0,0,0-.28.43.09.09,0,0,0,.17.06.56.56,0,0,1,.19-.33c.09-.06,0-.22-.08-.16Z"/><path class="cls-15" d="M31.67,49.11a.43.43,0,0,1-.18.22c-.1.06,0,.22.08.15a.57.57,0,0,0,.27-.32c.05-.1-.12-.16-.17,0Z"/><path class="cls-15" d="M31.15,49.59a.48.48,0,0,1-.24,0c-.11,0-.12.18,0,.18a.78.78,0,0,0,.34,0,.09.09,0,0,0,0-.12.1.1,0,0,0-.12,0Z"/><path class="cls-15" d="M30.78,48.81h-.36c-.11,0-.12.17,0,.17l.36,0c.11,0,.12-.17,0-.18Z"/><path class="cls-15" d="M31.1,48.31a2.39,2.39,0,0,0-.44-.18c-.11,0-.17.14-.06.17a2.38,2.38,0,0,1,.4.16c.1,0,.2-.1.1-.15Z"/><path class="cls-15" d="M30.67,50a1.71,1.71,0,0,0-.17.33c0,.11.13.16.17.06a1.4,1.4,0,0,1,.15-.3c.07-.09-.08-.19-.15-.09Z"/><path class="cls-15" d="M31.11,50.25a2.24,2.24,0,0,0-.09.45.09.09,0,1,0,.17,0,1.83,1.83,0,0,1,.09-.39.09.09,0,0,0-.17-.06Z"/><path class="cls-15" d="M32.18,50l-.26.2c-.08.07,0,.21.12.13l.26-.2c.09-.07,0-.21-.12-.13Z"/><path class="cls-15" d="M32.56,49.38c-.05.09-.08.19-.12.28s.09.2.14.1.08-.19.13-.28-.1-.2-.15-.1Z"/><path class="cls-15" d="M30,49.29a.09.09,0,0,0,.18,0,.09.09,0,1,0-.18,0Z"/><path class="cls-15" d="M30,49.29a.38.38,0,0,1-.09.25.09.09,0,0,0,.12.13.58.58,0,0,0,.15-.37.09.09,0,1,0-.18,0Z"/><path class="cls-15" d="M29.18,48.69a1.64,1.64,0,0,0-.38,0,.09.09,0,0,0,0,.18.92.92,0,0,1,.33,0,.09.09,0,1,0,0-.18Z"/><path class="cls-15" d="M29.69,50.41a.41.41,0,0,0-.19.2.1.1,0,0,0,0,.12.09.09,0,0,0,.12,0,.28.28,0,0,1,.12-.14.09.09,0,0,0,0-.12.09.09,0,0,0-.12,0Z"/><path class="cls-15" d="M30,51.78a.09.09,0,0,0,.18,0,.09.09,0,1,0-.18,0Z"/><path class="cls-15" d="M30,51.71a.77.77,0,0,1-.24.12c-.11.05,0,.2.08.16a.87.87,0,0,0,.27-.14c.09-.08,0-.21-.11-.14Z"/><path class="cls-15" d="M33.2,52.76a.86.86,0,0,0-.11.47c0,.11.17.12.17,0a.81.81,0,0,1,.08-.38.09.09,0,1,0-.14-.1Z"/><path class="cls-15" d="M33.39,53.56a1.2,1.2,0,0,1,0,.33.09.09,0,0,0,.17.06,1.59,1.59,0,0,0,.06-.38.09.09,0,0,0-.18,0Z"/><path class="cls-15" d="M33.22,54.11a.79.79,0,0,0-.43,0,.09.09,0,1,0,0,.17.69.69,0,0,1,.35,0c.11,0,.16-.13,0-.17Z"/><path class="cls-15" d="M32.74,53.81a.09.09,0,1,0,.17,0c0-.11-.17-.12-.17,0Z"/><path class="cls-15" d="M32.81,53.73l-.29.09c-.11,0-.08.21,0,.18l.29-.1c.11,0,.08-.2,0-.17Z"/><path class="cls-15" d="M32.24,53.35a.74.74,0,0,1-.23.2c-.1.06,0,.22.08.16a1.06,1.06,0,0,0,.3-.26c.07-.09-.08-.19-.15-.1Z"/><path class="cls-15" d="M32.14,54.31a2.87,2.87,0,0,1,0,.41.08.08,0,1,0,.16.05,1.63,1.63,0,0,0,.07-.45.09.09,0,0,0-.18,0Z"/><path class="cls-15" d="M31.93,55.22a.55.55,0,0,0-.07.25c0,.12.18.13.18,0a.45.45,0,0,1,0-.16.09.09,0,1,0-.14-.1Z"/><path class="cls-15" d="M33,55.11a.09.09,0,0,0,.18,0,.09.09,0,0,0-.18,0Z"/><path class="cls-15" d="M33.07,55a1.22,1.22,0,0,0-.38,0c-.11,0-.12.18,0,.18a1.2,1.2,0,0,1,.33,0c.11,0,.17-.13.06-.16Z"/><path class="cls-15" d="M33.94,54.05a3,3,0,0,0-.5.38c-.08.07,0,.21.12.13a2.24,2.24,0,0,1,.46-.35c.1-.06,0-.22-.08-.16Z"/><path class="cls-15" d="M34,54.88a4.38,4.38,0,0,0-.36.39c-.07.09.08.19.15.1s.21-.24.32-.35,0-.21-.11-.14Z"/><path class="cls-15" d="M33.16,55.34a1.44,1.44,0,0,1-.16.33c-.06.09.09.19.15.1a2,2,0,0,0,.17-.37c0-.11-.12-.16-.16-.06Z"/><path class="cls-15" d="M32.64,56.16c-.08.08-.15.17-.23.24a.09.09,0,0,0,.12.13c.08-.07.14-.16.22-.23s0-.21-.11-.14Z"/><path class="cls-15" d="M31.91,56.08a.29.29,0,0,1-.16,0,.09.09,0,0,0-.12,0,.09.09,0,0,0,0,.13.4.4,0,0,0,.34,0c.05,0,.06-.08,0-.12a.09.09,0,0,0-.12,0Z"/><path class="cls-15" d="M31.32,54.31a1.16,1.16,0,0,1-.08.32c0,.11.12.17.16.06a1.27,1.27,0,0,0,.1-.37.09.09,0,1,0-.18,0Z"/><path class="cls-15" d="M30.46,54.2a.51.51,0,0,0-.15.3.09.09,0,0,0,.18,0,.31.31,0,0,1,.09-.18.09.09,0,1,0-.12-.13Z"/><path class="cls-15" d="M30.4,55.59a1.18,1.18,0,0,0-.09.37c0,.11.17.12.17,0a1.24,1.24,0,0,1,.09-.33c0-.1-.13-.16-.17,0Z"/><path class="cls-15" d="M31.07,56.41a.42.42,0,0,0-.43.16c-.07.09.08.19.15.1a.23.23,0,0,1,.23-.09.09.09,0,0,0,.05-.17Z"/><path class="cls-15" d="M31.61,57.09a3.86,3.86,0,0,0-.5.38.09.09,0,1,0,.12.13,4,4,0,0,1,.46-.35c.09-.06,0-.22-.08-.16Z"/><path class="cls-15" d="M34.22,58.12a1.11,1.11,0,0,1-.27.12c-.11,0-.07.21,0,.17a1.69,1.69,0,0,0,.31-.13.09.09,0,0,0-.08-.16Z"/><path class="cls-15" d="M34.29,58.71a2.42,2.42,0,0,0-.1.45.09.09,0,0,0,.18,0,1.79,1.79,0,0,1,.09-.4.09.09,0,0,0-.17-.06Z"/><path class="cls-15" d="M34.83,58.48v.28a.09.09,0,1,0,.18,0v-.28c0-.11-.17-.12-.18,0Z"/><path class="cls-15" d="M34.9,59.89a2.55,2.55,0,0,0-.39.13c-.1.06,0,.22.08.16a1.5,1.5,0,0,1,.34-.11c.11,0,.08-.21,0-.18Z"/><path class="cls-15" d="M34.15,60l-.22.13c-.1,0,0,.21.09.16a1.59,1.59,0,0,1,.22-.13c.1-.05,0-.21-.09-.16Z"/><path class="cls-15" d="M33.63,59.16a.54.54,0,0,1-.21.08c-.11,0-.12.18,0,.18a.76.76,0,0,0,.3-.1.09.09,0,1,0-.08-.16Z"/><path class="cls-15" d="M33,58.82a1,1,0,0,1-.21.11c-.1,0,0,.21.09.16a1.16,1.16,0,0,0,.24-.14c.08-.08,0-.21-.12-.13Z"/><path class="cls-15" d="M32.81,59.88a1.57,1.57,0,0,1-.19.39.09.09,0,1,0,.14.1,1.23,1.23,0,0,0,.21-.43c0-.11-.13-.17-.16-.06Z"/><path class="cls-15" d="M32.32,59.81a1.16,1.16,0,0,0-.35-.18c-.11,0-.16.13-.06.17a.72.72,0,0,1,.28.13c.07.08.21,0,.13-.12Z"/><path class="cls-15" d="M31.36,59.42l-.36.09c-.11,0-.07.2,0,.17l.36-.09c.11,0,.07-.2,0-.17Z"/><path class="cls-15" d="M31.91,60.57c0,.12,0,.23-.05.35s.17.12.17,0,0-.24.06-.35a.09.09,0,1,0-.18,0Z"/><path class="cls-15" d="M31.05,61.36a.76.76,0,0,1,0,.3c0,.11.17.12.18,0a1.37,1.37,0,0,0,0-.35.09.09,0,0,0-.18,0Z"/><path class="cls-15" d="M30.19,60.83a.94.94,0,0,0,.09.44.09.09,0,1,0,.16-.08.71.71,0,0,1-.07-.35c0-.11-.18-.12-.18,0Z"/><path class="cls-15" d="M30.83,62.86a1,1,0,0,0,0,.34.09.09,0,1,0,.17,0,.93.93,0,0,1,0-.29c0-.12-.18-.13-.18,0Z"/><path class="cls-15" d="M32.11,62.32c-.11.06-.25.09-.36.15s0,.22.08.16.25-.09.36-.16,0-.21-.08-.15Z"/><path class="cls-15" d="M32.79,62.75a.09.09,0,0,0,.18,0,.09.09,0,0,0-.18,0Z"/><path class="cls-15" d="M32.84,62.67l-.25.1c-.11,0,0,.2.08.16l.25-.1c.11,0,0-.2-.08-.16Z"/><path class="cls-15" d="M32.88,61.05a.59.59,0,0,0,0,.26s.08,0,.12,0a.09.09,0,0,0,0-.12.47.47,0,0,1,0-.17c0-.11-.17-.12-.18,0Z"/><path class="cls-15" d="M33.57,60.74a.27.27,0,0,1,.14.2c0,.1.21.07.17,0a.5.5,0,0,0-.25-.33.09.09,0,0,0-.06.17Z"/><path class="cls-15" d="M33.86,61.42c0,.11.17.12.18,0a.09.09,0,0,0-.18,0Z"/><path class="cls-15" d="M33.86,61.39a.75.75,0,0,1-.21.38c-.08.08,0,.21.12.13a.89.89,0,0,0,.26-.45c0-.11-.14-.17-.17-.06Z"/><path class="cls-15" d="M34.19,62.27a1.75,1.75,0,0,1-.4-.05.09.09,0,0,0-.06.17,2.32,2.32,0,0,0,.45.06c.11,0,.12-.17,0-.18Z"/><path class="cls-15" d="M33.07,62.88c0,.13-.09.26-.13.39a.09.09,0,0,0,.17,0c0-.13.08-.26.13-.38s-.13-.16-.17-.06Z"/><path class="cls-15" d="M33.09,63.59a2.16,2.16,0,0,1-.43.36c-.09.06,0,.22.09.15a2.07,2.07,0,0,0,.46-.38c.08-.08,0-.21-.12-.13Z"/><path class="cls-15" d="M32.46,63.69a.51.51,0,0,0-.23.25.09.09,0,0,0,.06.11.09.09,0,0,0,.11,0,.33.33,0,0,1,.15-.16c.1,0,0-.2-.09-.15Z"/><path class="cls-15" d="M31.17,64.74a1.28,1.28,0,0,0-.34.06c-.11,0-.08.2,0,.17a1.57,1.57,0,0,1,.3,0,.09.09,0,1,0,0-.18Z"/><path class="cls-15" d="M34.76,60.51a.09.09,0,0,0,.18,0c0-.11-.17-.12-.18,0Z"/><path class="cls-15" d="M34.76,60.54a1.12,1.12,0,0,1-.09.36.09.09,0,0,0,.17.06,1.45,1.45,0,0,0,.1-.41c0-.11-.17-.12-.18,0Z"/><path class="cls-16" d="M40.16,68.56C40.2,68,50.5,25.44,50.5,25.44l28.92,7L70,74.42Z"/><polygon class="cls-17" points="50.5 25.44 58.05 24.04 84.68 30.07 79.42 32.41 50.5 25.44"/><polygon class="cls-18" points="84.68 30.07 80.9 55.79 74.1 55.11 79.42 32.41 84.68 30.07"/><path class="cls-19" d="M52.44,37.72a2,2,0,0,1-.69,0,1.44,1.44,0,0,1-.59-.21,1.41,1.41,0,0,1-.45-.46,2.22,2.22,0,0,1-.27-.7,2,2,0,0,1,0-.73,1.41,1.41,0,0,1,.68-1,2,2,0,0,1,.65-.26,3.07,3.07,0,0,1,.38-.05h.31l.29,0,.22,0,.16.78-.09,0-.18-.09L52.6,35a1.27,1.27,0,0,0-.28-.06A1.09,1.09,0,0,0,52,35a1.13,1.13,0,0,0-.32.13.85.85,0,0,0-.26.24.82.82,0,0,0-.14.37,1.28,1.28,0,0,0,0,.51,1.39,1.39,0,0,0,.19.49.93.93,0,0,0,.28.28.86.86,0,0,0,.33.11,1.28,1.28,0,0,0,.34,0,1.72,1.72,0,0,0,.29-.11,1.44,1.44,0,0,0,.25-.18l.17-.18.12-.15.09,0,.16.78-.21.15-.22.13-.28.13A2.84,2.84,0,0,1,52.44,37.72Z"/><path class="cls-19" d="M57,35a1.73,1.73,0,0,1-.2,1.32,1.64,1.64,0,0,1-1.13.7,1.67,1.67,0,0,1-1.32-.2,1.72,1.72,0,0,1-.69-1.14,1.69,1.69,0,0,1,.19-1.33,1.64,1.64,0,0,1,1.13-.7,1.67,1.67,0,0,1,1.32.2A1.74,1.74,0,0,1,57,35Zm-.94,1a1.12,1.12,0,0,0,.11-.38,1.7,1.7,0,0,0,0-.49,1.79,1.79,0,0,0-.17-.48.93.93,0,0,0-.24-.3.72.72,0,0,0-.3-.13.81.81,0,0,0-.31,0,.74.74,0,0,0-.29.12.57.57,0,0,0-.22.24.9.9,0,0,0-.11.37,2.31,2.31,0,0,0,0,.51,1.79,1.79,0,0,0,.17.48.93.93,0,0,0,.24.3.67.67,0,0,0,.3.13.86.86,0,0,0,.32,0,.81.81,0,0,0,.29-.12A.76.76,0,0,0,56.07,36.08Z"/><path class="cls-19" d="M61.09,35.89l-1,.21-1.12-1-.39.08.25,1.19-.84.17-.66-3.24L58.72,33a3.51,3.51,0,0,1,.5-.07,1.4,1.4,0,0,1,.41.06.93.93,0,0,1,.35.23.83.83,0,0,1,.2.41,1,1,0,0,1,0,.62,1.25,1.25,0,0,1-.4.47Zm-1.76-2a.34.34,0,0,0-.09-.2.3.3,0,0,0-.2-.1.49.49,0,0,0-.21,0l-.26,0-.3.06.17.88.26-.06a1.77,1.77,0,0,0,.33-.08.55.55,0,0,0,.21-.14.54.54,0,0,0,.1-.18A.57.57,0,0,0,59.33,33.91Z"/><path class="cls-19" d="M64.41,35.22l-.81.16-1.83-1.94.46,2.22-.77.16-.66-3.24,1-.21L63.36,34,63,32.13l.77-.15Z"/><path class="cls-20" d="M59.2,37.78l-.05.08a.63.63,0,0,0-.07.12.71.71,0,0,0-.08.15s0,.1-.08.14l-.06.13a.16.16,0,0,1,0,.06.25.25,0,0,1,0,.07l0,.07a3.49,3.49,0,0,1,.44-.05,2.16,2.16,0,0,1,.44,0l.08,0,.11,0a.16.16,0,0,1,.08.06.08.08,0,0,1,0,.08v0l0,0,0,.05-.07,0h-.08l-.28,0-.29,0-.29.05-.3.07-.34.81a.1.1,0,0,1,0,.05.07.07,0,0,1-.06,0h0c-.05,0-.08,0-.09-.07a.43.43,0,0,1,0-.16,1,1,0,0,1,0-.17,1.34,1.34,0,0,1,.07-.18,1.42,1.42,0,0,0,0-.16.76.76,0,0,0,0-.11.25.25,0,0,1,0-.07.31.31,0,0,1,0-.1.23.23,0,0,1,.07-.13.46.46,0,0,1,.14-.07s0,0,0,0l0,0,0,0v0l.13-.28.13-.28.11-.21.09-.17.07-.15a.61.61,0,0,1,0-.06l.06-.09.07-.07.08,0a.4.4,0,0,1,.12,0,.05.05,0,0,1,0,0v.05h.41l.25,0h.4l.18,0h.08l.06,0s0,0,0,0a.07.07,0,0,1,0,0,.08.08,0,0,1,0,0,.05.05,0,0,1,0,.05.1.1,0,0,1-.05,0l-.08,0H59.9l-.21,0-.2,0-.17,0Z"/><path class="cls-20" d="M60.5,39.13l.26-.49c.08-.15.15-.3.21-.43a3.32,3.32,0,0,0,.16-.35,1.29,1.29,0,0,0,.09-.25.27.27,0,0,1,.1-.13.21.21,0,0,1,.15,0l.07,0a.15.15,0,0,1,.05.06.22.22,0,0,1,0,.08.27.27,0,0,1,0,.09.08.08,0,0,1,0,.06.43.43,0,0,1,0,0c0,.12-.11.23-.17.35s-.13.24-.19.36l-.2.37-.18.36-.06.13-.07.18a.82.82,0,0,0-.05.14v.06a.06.06,0,0,0,.05,0h.19l.23,0,.24,0,.22-.05.09,0,.1,0,.15,0,.26-.06h.09l0,0,0,0a.06.06,0,0,1,0,0v0s0,.06,0,.08,0,0,0,0l-.08,0a.2.2,0,0,1-.08,0l-.09,0H62l-.09,0-.12,0-.13,0-.13,0-.1,0h-.07l-.2,0-.21,0-.2,0h-.15l-.12,0-.07,0L60.37,40,60.29,40a.21.21,0,0,1-.06-.1.24.24,0,0,1,0-.12.25.25,0,0,1,0-.07.31.31,0,0,1,0-.08.2.2,0,0,1,0-.08l0-.08Z"/><path class="cls-20" d="M64.19,40.8a.11.11,0,0,1-.07,0l0-.05a.11.11,0,0,1,0-.06v-.07a.17.17,0,0,1,0-.07.3.3,0,0,1,.06-.11s0-.08.07-.13a.83.83,0,0,0,.08-.12l.07-.11a.59.59,0,0,0,0-.08l0-.08,0-.1a.54.54,0,0,1,.05-.11,1.12,1.12,0,0,1,0-.13.08.08,0,0,1-.07,0h-.88a.71.71,0,0,1-.25,0,.09.09,0,0,1-.06,0l-.07,0a.63.63,0,0,0-.1.12l-.09.13-.07.14a.83.83,0,0,0-.07.13l0,.08,0,.11,0,.11,0,.08a.05.05,0,0,1,0,.05.12.12,0,0,1-.05,0l-.06,0H62.6a.14.14,0,0,1-.08-.05.2.2,0,0,1,0-.08.41.41,0,0,1,0-.11.37.37,0,0,1,0-.11,1.53,1.53,0,0,1,.07-.24,1.34,1.34,0,0,1,.12-.24l.16-.24.19-.24.21-.25.26-.28.31-.27a2.19,2.19,0,0,1,.33-.23,1.21,1.21,0,0,1,.33-.15.71.71,0,0,1,.32,0,.57.57,0,0,1,.26.1.47.47,0,0,1,.15.19.85.85,0,0,1,0,.24,1.33,1.33,0,0,1,0,.28,1.31,1.31,0,0,1-.06.27,2.58,2.58,0,0,1-.08.26,2.44,2.44,0,0,0-.1.24l-.09.21-.11.25,0,0,0,.08-.06.1-.06.1a.93.93,0,0,0,0,.1l-.05.07h0l0,.09a.7.7,0,0,1-.06.09l-.08,0A.16.16,0,0,1,64.19,40.8Zm.51-2.4a.5.5,0,0,0-.17,0,.6.6,0,0,0-.19.06l-.18.11-.18.13-.16.14-.14.14,0,0,0,0s0,0,0,0,0,0,0,0l.2,0,.25,0h.71l0-.07,0-.09s0-.07,0-.11l0-.12s0-.07,0-.11a.28.28,0,0,0,0-.13.36.36,0,0,0,0-.11A.17.17,0,0,0,64.7,38.4Z"/><path class="cls-20" d="M66.46,38.43l.08,0a.1.1,0,0,1,0,0,.15.15,0,0,1,0,.07.25.25,0,0,1,0,.08s0,.06,0,.09l0,.08,0,.08,0,.09a2.59,2.59,0,0,1-.14.29l-.15.3-.11.23.22,0a1,1,0,0,0,.21-.09l.21-.12.21-.15.34-.26.33-.28.06-.07.07-.09a.28.28,0,0,1,.09-.07.14.14,0,0,1,.11,0,.09.09,0,0,1,.06,0,.25.25,0,0,1,0,.07s0,.06,0,.09,0,.06,0,.09a.43.43,0,0,1,0,0,3.58,3.58,0,0,1-.29.27l-.31.25a3.62,3.62,0,0,1-.32.22l-.33.21a1.4,1.4,0,0,1,.33.24,1.48,1.48,0,0,1,.25.31,1.32,1.32,0,0,1,.15.39,1.86,1.86,0,0,1,0,.48.09.09,0,0,1,0,.06l-.06,0-.07,0a.14.14,0,0,1-.09,0l-.1,0,0-.08a.34.34,0,0,1,0-.1v-.15a1.09,1.09,0,0,0,0-.26,1.12,1.12,0,0,0-.1-.22.86.86,0,0,0-.14-.18.61.61,0,0,0-.16-.13l0,0-.08,0-.08-.05-.08,0-.08,0h-.08l-.13,0-.14,0-.1,0-.08.19-.06.16,0,.15,0,.13s0,.08,0,.12a.24.24,0,0,1-.08.09.14.14,0,0,1-.13,0,.08.08,0,0,1-.07,0,.2.2,0,0,1,0-.08v-.1s0-.06,0-.09l0-.11a.56.56,0,0,1,0-.12s0-.09,0-.13a1.17,1.17,0,0,1,0-.11l.76-1.74A.16.16,0,0,1,66.46,38.43Z"/><path class="cls-20" d="M68,41.28a.37.37,0,0,1,0-.14,4.44,4.44,0,0,1,.24-.49l.25-.47c.07-.16.13-.29.19-.4l.13-.28.1-.2c0-.06.07-.11.1-.16a.86.86,0,0,1,.07-.1l.08-.1s0,0,.08-.06a.12.12,0,0,1,.08,0,.33.33,0,0,1,.12,0l0,.05v.09h.33l.25,0h.4l.18,0,.14,0,.09,0,0,0s0,0,0,.05,0,0,0,0l0,0-.08,0h-.89l-.15,0-.13,0h-.1a.51.51,0,0,0-.21.09.65.65,0,0,0-.13.16l0,.05a14.72,14.72,0,0,0-.11.2L69,40a.19.19,0,0,1,0,.09l0,.07s0,0,0,0v0s0,0,0,0H69l.23,0,.27,0,.29,0,.24,0h.14s.08,0,.09,0,0,0,0,0a.16.16,0,0,1-.07.11.37.37,0,0,1-.14.07l-.09,0-.15,0-.14,0h-.1l-.33.07-.2,0-.13,0h-.27l-.06.11c0,.06,0,.11-.07.17a1,1,0,0,0-.07.15.29.29,0,0,1,0,.1v.06l0,0h.28a1.24,1.24,0,0,0,.27,0,.71.71,0,0,0,.22-.06l.19-.06.17,0a.48.48,0,0,1,.17,0h.05l0,0s0,0,0,0,0,0,0,0a.3.3,0,0,1-.07.1l-.14.08-.18.07-.2,0-.2.05-.18,0-.36,0-.3,0a.41.41,0,0,1-.22-.1A.2.2,0,0,1,68,41.28Z"/><path class="cls-20" d="M70.39,41.38l.13.08.13.08a.61.61,0,0,0,.14.07.48.48,0,0,0,.17,0,.79.79,0,0,0,.22,0,.83.83,0,0,0,.22,0,1.45,1.45,0,0,0,.22-.09,1.37,1.37,0,0,0,.2-.13l.18-.16s.08-.09.12-.12l.07-.1a.31.31,0,0,0,0-.08.14.14,0,0,0,0-.09.27.27,0,0,0-.08-.07L72,40.74l-.14,0-.11,0h-.12l-.12,0h-.1l-.13,0-.13-.07a.52.52,0,0,1-.1-.11.39.39,0,0,1-.07-.16s0,0,0-.06a.21.21,0,0,1,0-.08s0-.06,0-.09L71,40a.68.68,0,0,1,.13-.18,1.49,1.49,0,0,1,.18-.17l.22-.15.24-.13.24-.1.21-.08a1.45,1.45,0,0,1,.28,0,1.23,1.23,0,0,1,.27,0,.37.37,0,0,1,.14,0l.11.08a.41.41,0,0,1,.07.11.32.32,0,0,1,0,.14s0,0,0,.07l0,0a.05.05,0,0,1,0,0h0a.29.29,0,0,1-.1,0l-.08,0-.07,0-.09,0a1,1,0,0,0-.3,0,1.12,1.12,0,0,0-.31.1,1.4,1.4,0,0,0-.3.15l-.26.17a.38.38,0,0,0-.09.09.31.31,0,0,0,0,.1.17.17,0,0,0,0,.13.26.26,0,0,0,.14.06l.12,0,.13,0h.14l.11,0,.23.07a.47.47,0,0,1,.17.14.42.42,0,0,1,.11.18.47.47,0,0,1,0,.24.88.88,0,0,1,0,.15l-.09.15-.12.14-.14.13-.28.22a1.82,1.82,0,0,1-.31.16,1.59,1.59,0,0,1-.33.09,1.22,1.22,0,0,1-.33,0,.42.42,0,0,1-.15,0l-.15-.06-.13-.09a.52.52,0,0,1-.1-.11.31.31,0,0,1-.06-.13.19.19,0,0,1,0-.13.14.14,0,0,1,0-.07S70.36,41.38,70.39,41.38Z"/><polygon class="cls-18" points="53.53 30.66 52.67 30.34 51.92 30.87 51.96 29.96 51.22 29.41 52.1 29.16 52.39 28.3 52.9 29.05 53.82 29.06 53.25 29.78 53.53 30.66"/><polygon class="cls-18" points="53.82 44.05 52.6 43.17 51.19 43.67 51.65 42.24 50.73 41.05 52.23 41.05 53.08 39.81 53.55 41.24 54.99 41.66 53.77 42.55 53.82 44.05"/><polygon class="cls-18" points="70.04 34.73 70.39 34.09 70.05 33.44 70.77 33.57 71.28 33.05 71.38 33.77 72.03 34.1 71.37 34.42 71.26 35.14 70.76 34.61 70.04 34.73"/><polygon class="cls-18" points="63.19 46.06 62.25 45.03 60.87 45.23 61.56 44.02 60.95 42.76 62.31 43.04 63.31 42.08 63.47 43.46 64.7 44.11 63.43 44.69 63.19 46.06"/><polygon class="cls-19" points="55.67 31.47 55.56 30.48 54.69 30.02 55.59 29.61 55.77 28.64 56.43 29.37 57.41 29.24 56.92 30.09 57.35 30.98 56.38 30.78 55.67 31.47"/><polygon class="cls-19" points="50.22 39.41 49.54 39.34 49.1 39.86 48.95 39.19 48.32 38.93 48.91 38.59 48.96 37.9 49.47 38.36 50.14 38.2 49.86 38.83 50.22 39.41"/><polygon class="cls-19" points="57.66 46.23 57.03 45.32 55.93 45.33 56.59 44.45 56.25 43.4 57.29 43.76 58.18 43.11 58.16 44.21 59.05 44.85 58 45.17 57.66 46.23"/><polygon class="cls-19" points="67.61 36.53 67.62 36 67.18 35.69 67.69 35.53 67.84 35.03 68.15 35.46 68.68 35.45 68.36 35.88 68.53 36.38 68.03 36.21 67.61 36.53"/><polygon class="cls-19" points="66.47 32.06 65.83 31.77 65.23 32.13 65.31 31.43 64.79 30.97 65.47 30.84 65.75 30.2 66.09 30.8 66.79 30.87 66.31 31.38 66.47 32.06"/><polygon class="cls-19" points="75.46 38.81 74.9 37.91 73.84 37.85 74.53 37.05 74.26 36.02 75.24 36.43 76.13 35.85 76.05 36.91 76.87 37.58 75.84 37.82 75.46 38.81"/><path class="cls-21" d="M83.42,48.68c.91-1.66.25-2.14.19-3.47s3.11-5,3.11-5l-2.26-1.74h0l-2.3-1.77s-2.73,4-4,4.29-1.93-.24-3.3,1.06-9.41,11.09-9.7,12.56,7.28,7.3,8.62,6.65S82.51,50.33,83.42,48.68Z"/><path class="cls-22" d="M82.45,48.23c.87-1.52.18-1.92.19-3.11s3-4.69,3-4.69L83.81,39h0l-1.57-1.21s-2.57,3.72-3.72,4-2-.4-3.29.83-8.73,10.37-9,11.7,6,6.23,7.24,5.59S81.58,49.76,82.45,48.23Z"/><path class="cls-23" d="M83.23,37.63h1.35a2.92,2.92,0,0,1,2.92,2.92v0a0,0,0,0,1,0,0H80.3a0,0,0,0,1,0,0v0A2.92,2.92,0,0,1,83.23,37.63Z" transform="translate(41.44 -43.15) rotate(37.7)"/><path class="cls-24" d="M87,39.66l-1.16-.9a.79.79,0,0,1,.14,1.1l-1.33,1.72,1.17.9,1.32-1.72A.77.77,0,0,0,87,39.66Z"/><rect class="cls-23" x="78.93" y="40.49" width="7.2" height="0.8" transform="translate(42.24 -41.93) rotate(37.7)"/><path class="cls-25" d="M82.77,36.7a.68.68,0,0,0-.57-.17.7.7,0,0,0-.21.14,1.64,1.64,0,0,0-.41.65c0,.14-.06.33.07.41a.31.31,0,0,0,.37-.07.93.93,0,0,1,.32-.24.65.65,0,0,1,.41.06,2.8,2.8,0,0,1,.81.54,1.22,1.22,0,0,0,.32.24.29.29,0,0,0,.35-.09.26.26,0,0,0,0-.27.76.76,0,0,0-.19-.21C83.61,37.35,83.2,37,82.77,36.7Z"/><rect class="cls-24" x="84.07" y="42.24" width="1.46" height="0.8" transform="translate(43.78 -42.96) rotate(37.7)"/><path class="cls-26" d="M74.45,43.34c-3.24,4-7.87,9.88-8.22,11-.49,1.55,5.87,6.46,7.25,5.59,1-.62,5.51-6.59,8.52-10.74Z"/><path class="cls-27" d="M82,49.18l-1.63-1.26c-2.87,3.89-6.36,8.41-7.2,8.94-1,.62-4.54-1.72-6.28-3.67a5.53,5.53,0,0,0-.65,1.14c-.5,1.55,5.86,6.46,7.24,5.59C74.46,59.3,79,53.33,82,49.18Z"/><path class="cls-4" d="M74.49,43.29c-.59.63,1.55,2,3.35,3.48s3.84,2.87,4.2,2.36-1.61-1.88-3.43-3.36S74.88,42.88,74.49,43.29Z"/><path class="cls-28" d="M76,43.21a6.38,6.38,0,0,0-1,1.1,1.32,1.32,0,0,0-.3.67.52.52,0,0,0,.37.57.68.68,0,0,0,.56-.2,13.75,13.75,0,0,1,1.14-1.15c.52-.34,2.65-.69,1.45-1.45A1.88,1.88,0,0,0,76,43.21Z"/><path class="cls-11" d="M8.14,33.08C5.58,35.17,8.39,44,9.4,46.41c3.06,7.21,12.93,25.85,13.79,26.83,2.22,2.52,6.27-.2,7.19-1.83,1.84-3.26,1.23-5.25.12-8-1-2.46-9.14-17.23-12-22.37C15.83,36.14,11.88,30,8.14,33.08Z"/><path class="cls-12" d="M29.65,61.6a4,4,0,0,1-.49,1.46,25.8,25.8,0,0,1-1.54,2.11,7,7,0,0,1-2.28,1.67c2.17.9,4.9-2.17,5.38-2.81l-.32-.84C30.26,62.86,30,62.31,29.65,61.6Z"/><path class="cls-13" d="M30.72,64c0-.12-.09-.24-.14-.37-.51.66-2.74,3.11-4.72,2.92l-.52.26C27.51,67.74,30.24,64.67,30.72,64Z"/><path class="cls-12" d="M15.46,46.67a5.36,5.36,0,0,0,3.26-.75A11.21,11.21,0,0,0,20.19,44c-.49-.88-.93-1.69-1.32-2.38,0,.27-.06.5-.08.63a5,5,0,0,1-1.41,2.81C17,45.48,16,46.16,15.46,46.67Z"/><path class="cls-13" d="M18.72,45.92A11.21,11.21,0,0,0,20.19,44L20,43.73a11.14,11.14,0,0,1-1.44,1.85,5.48,5.48,0,0,1-2.8.79,3.39,3.39,0,0,0-.33.3A5.36,5.36,0,0,0,18.72,45.92Z"/><path class="cls-12" d="M15.32,39.93a16.47,16.47,0,0,1-2.5,2.75,7.82,7.82,0,0,0,3.33-1,4.44,4.44,0,0,0,1.52-2.17c-.5-.86-1-1.73-1.58-2.56A4.39,4.39,0,0,1,15.32,39.93Z"/><path class="cls-13" d="M16.15,41.66a4.55,4.55,0,0,0,1.53-2.17c-.07-.11-.13-.22-.19-.33A4.38,4.38,0,0,1,16,41.29a8.9,8.9,0,0,1-2.68,1l-.48.42A7.78,7.78,0,0,0,16.15,41.66Z"/><path class="cls-12" d="M25.71,59.23a20,20,0,0,1-3,2.56c.9.48,2.84-.41,3.62-.78a16.8,16.8,0,0,0,2.14-1.65l-1.16-2.2A8.93,8.93,0,0,1,25.71,59.23Z"/><path class="cls-13" d="M26.36,61a16.93,16.93,0,0,0,2.13-1.65,3.24,3.24,0,0,0-.17-.32,12.57,12.57,0,0,1-1.93,1.5,7.59,7.59,0,0,1-3.16.9l-.49.35C23.63,62.26,25.58,61.38,26.36,61Z"/><path class="cls-12" d="M23.8,53.34a21.49,21.49,0,0,1-1.71,2.17c-.56.52-1.26,1-1.79,1.48a4.68,4.68,0,0,0,1.7-.12,12.9,12.9,0,0,0,3.12-1.72,6.07,6.07,0,0,0,.72-.77c-.44-.82-.89-1.66-1.35-2.5A3.74,3.74,0,0,1,23.8,53.34Z"/><path class="cls-13" d="M22,56.87a13.09,13.09,0,0,0,3.12-1.72,6,6,0,0,0,.71-.77L25.65,54a3.89,3.89,0,0,1-.61.65,12.75,12.75,0,0,1-3.12,1.72,3.53,3.53,0,0,1-1.12.15c-.18.14-.35.28-.51.43A4.52,4.52,0,0,0,22,56.87Z"/><path class="cls-12" d="M17.65,51.84c.89.45,2.54-.14,3.26-.75a27.53,27.53,0,0,0,2.08-2L21.8,47A8.29,8.29,0,0,1,17.65,51.84Z"/><path class="cls-13" d="M20.89,51.09a25.89,25.89,0,0,0,2.09-2l-.22-.4a26.6,26.6,0,0,1-2.05,1.91,4.24,4.24,0,0,1-2.58.91c-.16.11-.33.2-.49.29C18.53,52.3,20.18,51.7,20.89,51.09Z"/><path class="cls-14" d="M23.48,72.82c-.78-1.57-1.82-3.06-2.58-4.71-.36-.76-.76-1.47-1.1-2.25a16.69,16.69,0,0,0-1-2.37c-.49-.77-1.06-1.43-1.51-2.24s-.85-1.61-1.33-2.37a16.82,16.82,0,0,1-1.22-2.39c-.32-.74-.43-1.63-.77-2.36-.42-.93-1.16-1.72-1.62-2.6a21.68,21.68,0,0,1-.87-2.34c-.7-1.86-1.48-3.74-2.17-5.64a32.71,32.71,0,0,1-1.37-6,10.26,10.26,0,0,1,.17-4.37C5.63,35.34,8.39,44,9.4,46.41c3.06,7.2,12.93,25.85,13.79,26.83a3,3,0,0,0,1.15.82A12.59,12.59,0,0,0,23.48,72.82Z"/><path class="cls-14" d="M12.77,34.83l.08.5c0,.11.19.08.18,0L13,34.81c0-.12-.2-.09-.18,0Z"/><path class="cls-14" d="M13.71,35.06a2.47,2.47,0,0,1,.15.46.09.09,0,0,0,.17,0,2.24,2.24,0,0,0-.16-.5c0-.11-.2,0-.16.07Z"/><path class="cls-14" d="M13.5,36.18c.06.11.14.21.2.33a.09.09,0,0,0,.16-.08c-.06-.11-.14-.21-.2-.33s-.22,0-.16.08Z"/><path class="cls-14" d="M12.6,36.69l.32.24a.09.09,0,0,0,.11-.15l-.33-.23a.09.09,0,1,0-.1.14Z"/><path class="cls-14" d="M13.86,37.64a1,1,0,0,1-.18.28c-.08.08,0,.22.12.14A1.2,1.2,0,0,0,14,37.7c.05-.11-.12-.17-.16-.06Z"/><path class="cls-14" d="M15,36.9l0,.33c0,.12.16.13.17,0l.06-.33c0-.11-.16-.13-.18,0Z"/><path class="cls-14" d="M14.69,35.93a.64.64,0,0,1,.1.26.09.09,0,1,0,.18,0,.85.85,0,0,0-.14-.34c-.07-.1-.2,0-.14.11Z"/><path class="cls-14" d="M15.53,37.67a.87.87,0,0,0-.22.54c0,.11.17.13.18,0a.73.73,0,0,1,.19-.46c.07-.09-.07-.19-.15-.1Z"/><path class="cls-14" d="M14.39,39a.87.87,0,0,0-.32.41c0,.1.13.17.17.06a.69.69,0,0,1,.27-.34c.09-.07,0-.2-.12-.13Z"/><path class="cls-14" d="M14.53,38.25a.9.9,0,0,0-.2.23c-.06.09.08.19.15.1a1,1,0,0,1,.16-.19.09.09,0,0,0-.11-.14Z"/><path class="cls-14" d="M13.22,38.78l-.17,0c-.12,0-.09.19,0,.17l.17,0a.09.09,0,0,0,0-.17Z"/><path class="cls-14" d="M12,33.44l-.18,0a.09.09,0,0,0,0,.17l.17,0c.12,0,.09-.2,0-.18Z"/><path class="cls-14" d="M10.88,33.16c-.08.06-.18.11-.21.21s.13.17.16.06.11-.1.16-.13a.09.09,0,1,0-.11-.14Z"/><path class="cls-14" d="M10.3,34.49l0,.21c0,.11.2.08.18,0l0-.21c0-.12-.19-.09-.17,0Z"/><path class="cls-14" d="M11.42,34.73a.09.09,0,0,0,.18,0c0-.11-.2-.08-.18,0Z"/><path class="cls-14" d="M11.44,34.78a.59.59,0,0,1,.1.26c0,.11.2.08.18,0a.89.89,0,0,0-.14-.35c-.07-.09-.21,0-.14.12Z"/><path class="cls-14" d="M11.25,36.35c0,.11.2.08.18,0a.09.09,0,0,0-.18,0Z"/><path class="cls-14" d="M11.25,36.35a.77.77,0,0,0,.19.37c.07.09.21,0,.13-.11a.65.65,0,0,1-.14-.29.09.09,0,0,0-.18,0Z"/><path class="cls-14" d="M11.69,38.71c0,.11-.08.22-.1.33s.16.13.18,0a2.29,2.29,0,0,1,.09-.28c0-.11-.13-.18-.17-.07Z"/><path class="cls-14" d="M10.65,38.4a.56.56,0,0,0-.09.21.09.09,0,0,0,0,.12.11.11,0,0,0,.12,0,.55.55,0,0,1,.06-.18c.06-.09-.08-.2-.14-.1Z"/><path class="cls-14" d="M12.93,40.86c0,.11.2.08.18,0s-.19-.08-.18,0Z"/><path class="cls-14" d="M13,40.79a2.2,2.2,0,0,0-.24.38c-.05.11.12.17.17.07a2.39,2.39,0,0,1,.21-.34.09.09,0,0,0-.14-.11Z"/><path class="cls-14" d="M17.81,40.68a1.28,1.28,0,0,0,0,.34c0,.12.2.09.18,0a1,1,0,0,1,0-.3c0-.12-.16-.13-.17,0Z"/><path class="cls-14" d="M18,42.45l-.21.28a.09.09,0,0,0,.15.11l.2-.29c.07-.09-.08-.19-.14-.1Z"/><path class="cls-14" d="M17,42.45a1.51,1.51,0,0,1-.2.17c-.1.06,0,.22.07.16a2.23,2.23,0,0,0,.24-.19.09.09,0,0,0-.11-.14Z"/><path class="cls-14" d="M17.26,41.29l-.15.14a.09.09,0,1,0,.11.13l.16-.13a.09.09,0,0,0-.12-.14Z"/><path class="cls-14" d="M16,42a.87.87,0,0,0-.11.32c0,.11.16.13.17,0a.6.6,0,0,1,.09-.22A.09.09,0,0,0,16,42Z"/><path class="cls-14" d="M14.88,42.76a.63.63,0,0,0,0,.27c0,.11.19.08.18,0a.32.32,0,0,1,0-.17.11.11,0,0,0-.05-.12.1.1,0,0,0-.12,0Z"/><path class="cls-14" d="M14,43.78a.09.09,0,1,0,.18,0c0-.11-.2-.08-.18,0Z"/><path class="cls-14" d="M14,43.78l0,.28a.09.09,0,1,0,.17,0l0-.28c0-.11-.2-.08-.18,0Z"/><path class="cls-14" d="M15.08,44.93l0,.25c0,.11.2.08.18,0l0-.24a.09.09,0,0,0-.18,0Z"/><path class="cls-14" d="M16,43.78h0v0h0l0,0v0h0A.08.08,0,0,0,16,44a.09.09,0,0,0,.13,0,.33.33,0,0,0,.06-.22.09.09,0,0,0-.1-.07.1.1,0,0,0-.08.1Z"/><path class="cls-14" d="M17.24,43.82v.08h0a.09.09,0,0,0,0,.13.09.09,0,0,0,.12,0,.33.33,0,0,0,0-.22.1.1,0,0,0-.11-.07.09.09,0,0,0-.07.1Z"/><path class="cls-14" d="M16.47,44.94a.17.17,0,0,0-.13.18.11.11,0,0,0,.1.08.09.09,0,0,0,.07-.1h0a.09.09,0,0,0,.07-.11.08.08,0,0,0-.1-.07Z"/><path class="cls-14" d="M18.36,41.41l0,.21c0,.11.19.08.18,0l0-.21a.09.09,0,1,0-.17,0Z"/><path class="cls-14" d="M20.2,45.14a.48.48,0,0,1,0,.17.09.09,0,0,0,.05.11.09.09,0,0,0,.12-.05.57.57,0,0,0,0-.26.09.09,0,1,0-.17,0Z"/><path class="cls-14" d="M20.73,47.07a.78.78,0,0,1,0,.21c0,.11.13.17.16.06a.78.78,0,0,0,0-.3.09.09,0,0,0-.18,0Z"/><path class="cls-14" d="M19.92,46.9a.43.43,0,0,1-.23.21.09.09,0,0,0,.07.17.64.64,0,0,0,.33-.32c.05-.1-.12-.16-.17-.06Z"/><path class="cls-14" d="M19.47,45.9c-.09.08-.2.14-.29.23s0,.21.11.13.2-.14.29-.22,0-.22-.11-.14Z"/><path class="cls-14" d="M17.82,46.73a.84.84,0,0,0-.11.38.09.09,0,0,0,.18,0,.94.94,0,0,1,.07-.3c.07-.1-.08-.2-.14-.1Z"/><path class="cls-14" d="M18.61,47.31a.51.51,0,0,1,0,.21c0,.11.14.17.17.06a.62.62,0,0,0,0-.3c0-.12-.19-.09-.17,0Z"/><path class="cls-14" d="M18.53,49.36a.31.31,0,0,1-.09.17.08.08,0,0,0,0,.12.09.09,0,0,0,.13,0,.41.41,0,0,0,.13-.23.09.09,0,0,0-.05-.12s-.1,0-.11,0Z"/><path class="cls-14" d="M17.66,49.47a1.38,1.38,0,0,0-.3.24c-.09.07,0,.21.11.13a1.09,1.09,0,0,1,.27-.21c.1-.06,0-.22-.08-.16Z"/><path class="cls-14" d="M17,48.11a.54.54,0,0,1-.14.16.08.08,0,0,0,0,.12.09.09,0,0,0,.13,0,.69.69,0,0,0,.16-.18.09.09,0,0,0-.14-.11Z"/><path class="cls-14" d="M15.75,47.26a.45.45,0,0,0-.23.32s0,.09.08.09a.09.09,0,0,0,.1-.08.26.26,0,0,1,.12-.17.09.09,0,0,0,0-.12.1.1,0,0,0-.12,0Z"/><path class="cls-14" d="M15.82,49.36a1,1,0,0,0,0,.35c0,.11.19.08.17,0a1,1,0,0,1,0-.3c0-.11-.16-.13-.17,0Z"/><path class="cls-14" d="M16.08,50.79a.29.29,0,0,0,.09.15.09.09,0,0,0,.13,0,.09.09,0,0,0,0-.12h0s0,0,0,0h0v0a.1.1,0,0,0-.1-.08.11.11,0,0,0-.08.11Z"/><path class="cls-14" d="M20.17,47.94a4.2,4.2,0,0,1-.17.5c-.06.1.11.16.16.06a3,3,0,0,0,.17-.5c0-.1-.13-.17-.16-.06Z"/><path class="cls-14" d="M20.69,47.82l-.07.23a.08.08,0,0,0,.05.11.08.08,0,0,0,.11,0l.07-.23a.08.08,0,0,0-.05-.11.08.08,0,0,0-.11,0Z"/><path class="cls-14" d="M20.9,45.87c.05.11.11.22.16.34a.09.09,0,0,0,.16-.08c0-.11-.1-.22-.16-.33s-.22,0-.16.07Z"/><path class="cls-14" d="M23,50.4A1.69,1.69,0,0,1,23,51c0,.12.15.13.17,0a1.73,1.73,0,0,0,0-.6c0-.11-.19-.08-.17,0Z"/><path class="cls-14" d="M22.47,50.71a1.88,1.88,0,0,0-.22.45c0,.11.13.18.16.07a1.44,1.44,0,0,1,.21-.41.09.09,0,0,0-.15-.11Z"/><path class="cls-14" d="M22.5,51.92c0,.12.08.23.1.35a.09.09,0,0,0,.17,0c0-.12-.07-.23-.09-.35s-.2-.08-.18,0Z"/><path class="cls-14" d="M23.63,51.52l.05.35a.09.09,0,1,0,.18,0l-.06-.35a.09.09,0,0,0-.17,0Z"/><path class="cls-14" d="M24,52.14c-.09.18-.2.34-.28.52s.12.17.17.06a5,5,0,0,1,.27-.51c.06-.1-.11-.17-.16-.07Z"/><path class="cls-14" d="M23,53.75a3.59,3.59,0,0,0-.32.35c-.06.09.08.2.15.11a1.81,1.81,0,0,1,.29-.33c.08-.07,0-.21-.12-.13Z"/><path class="cls-14" d="M22.54,53.27a3.62,3.62,0,0,1-.33.2.09.09,0,0,0,.08.16c.11-.05.21-.14.32-.2s0-.21-.07-.16Z"/><path class="cls-14" d="M21.42,52.59a1.12,1.12,0,0,1-.25.11c-.11,0-.08.2,0,.18a1,1,0,0,0,.29-.13c.1,0,0-.21-.07-.16Z"/><path class="cls-14" d="M21.3,51.28a.65.65,0,0,0-.34.17c-.09.08,0,.22.11.14a.55.55,0,0,1,.26-.14.09.09,0,0,0,0-.17Z"/><path class="cls-14" d="M19.78,52.31a1.1,1.1,0,0,0-.16.46.09.09,0,0,0,.18,0,.75.75,0,0,1,.13-.38.09.09,0,0,0-.15-.1Z"/><path class="cls-14" d="M20.12,54.24a2.22,2.22,0,0,0-.06.51c0,.12.17.14.17,0a4.43,4.43,0,0,1,.06-.51c0-.11-.15-.13-.17,0Z"/><path class="cls-14" d="M21.44,54.18a.72.72,0,0,0-.18.45c0,.11.17.13.18,0a.48.48,0,0,1,.12-.33c.08-.08,0-.22-.12-.14Z"/><path class="cls-14" d="M20.68,55.84c-.07,0-.11.08-.17.12a.08.08,0,0,0,0,.12.09.09,0,0,0,.13,0l.06-.05,0,0s0,0,0,0h0a.08.08,0,0,0,.07-.1.08.08,0,0,0-.1-.08Z"/><path class="cls-14" d="M22.93,49.5a.33.33,0,0,0-.14.12,1.06,1.06,0,0,0-.06.19.09.09,0,0,0,.18,0,.21.21,0,0,1,.09-.17.08.08,0,0,0,0-.12.07.07,0,0,0-.11,0Z"/><path class="cls-14" d="M25.75,55a.62.62,0,0,1,.11.25c0,.11.2.08.18,0a.93.93,0,0,0-.12-.29c-.06-.1-.22,0-.17.07Z"/><path class="cls-14" d="M26.4,56.36a1.87,1.87,0,0,1,0,.41c0,.11.17.13.18,0a2.36,2.36,0,0,0,0-.46c0-.11-.19-.08-.18,0Z"/><path class="cls-14" d="M26.28,57.28a1,1,0,0,0-.33.41c-.05.1.11.16.17.06a1,1,0,0,1,.27-.34c.09-.07,0-.2-.11-.13Z"/><path class="cls-14" d="M25.49,56.21a1,1,0,0,1-.21.26c-.08.08,0,.21.11.13a.92.92,0,0,0,.27-.32c.05-.11-.12-.17-.17-.07Z"/><path class="cls-14" d="M24.42,56.24a2.36,2.36,0,0,0-.51.12c-.1,0,0,.2.08.16a3.43,3.43,0,0,1,.46-.11.09.09,0,0,0,0-.17Z"/><path class="cls-14" d="M23.63,57.44a1.15,1.15,0,0,1-.11.36c-.05.1.12.17.17.06a1.15,1.15,0,0,0,.12-.4c0-.11-.17-.13-.18,0Z"/><path class="cls-14" d="M24.68,57.39a2.92,2.92,0,0,0-.21.56c0,.11.15.13.18,0a2.5,2.5,0,0,1,.19-.52c.06-.1-.11-.16-.16-.06Z"/><path class="cls-14" d="M25,58.79a.93.93,0,0,0-.26.39c0,.11.13.18.17.07a.79.79,0,0,1,.2-.33c.08-.08,0-.21-.11-.13Z"/><path class="cls-14" d="M23.74,59.92a1,1,0,0,0-.38.3.09.09,0,1,0,.14.1.7.7,0,0,1,.32-.24.09.09,0,0,0-.08-.16Z"/><path class="cls-14" d="M23.24,59.28a4,4,0,0,1-.47.22.09.09,0,0,0,.08.16,4,4,0,0,0,.47-.22c.09-.06,0-.22-.08-.16Z"/><path class="cls-14" d="M22.39,58.08l-.36.06c-.11,0-.08.2,0,.18l.35-.06a.09.09,0,0,0,0-.18Z"/><path class="cls-14" d="M21.24,57.49a4,4,0,0,0-.17.59c0,.11.16.13.18,0a3.44,3.44,0,0,1,.15-.55.09.09,0,0,0-.16-.06Z"/><path class="cls-14" d="M21.29,59.45a.18.18,0,0,0,0,.09v0s0,0,0,0,0,0,0,0a.08.08,0,0,0,0,.12.08.08,0,0,0,.12,0,.3.3,0,0,0,0-.1v0s0,0,0,0h0a.09.09,0,0,0,0-.13.08.08,0,0,0-.12,0Z"/><path class="cls-14" d="M23,57.17a.61.61,0,0,0-.46,0c-.1,0,0,.21.07.16a.47.47,0,0,1,.33,0c.11,0,.17-.13.06-.16Z"/><path class="cls-14" d="M23.41,58.38a.32.32,0,0,0-.26.2.09.09,0,1,0,.16.06.2.2,0,0,1,.13-.08c.11,0,.08-.2,0-.18Z"/><path class="cls-14" d="M24.19,59.24a.77.77,0,0,0-.17.19c-.07.09.08.19.14.1a.67.67,0,0,1,.14-.15.09.09,0,0,0,0-.13.08.08,0,0,0-.12,0Z"/><path class="cls-14" d="M28.26,59.76c0,.12.07.23.1.35a.09.09,0,0,0,.17,0c0-.12-.07-.23-.09-.35s-.2-.08-.18,0Z"/><path class="cls-14" d="M28.83,60.58c0,.13,0,.27,0,.4s.17.13.17,0,0-.27,0-.4-.17-.13-.18,0Z"/><path class="cls-14" d="M29.06,61.62a3.1,3.1,0,0,0-.29.5.09.09,0,0,0,.17.06,2.4,2.4,0,0,1,.27-.46c.07-.09-.08-.19-.15-.1Z"/><path class="cls-14" d="M28,61.91a1.48,1.48,0,0,0-.34.21c-.09.08,0,.22.11.14a1.23,1.23,0,0,1,.31-.19c.1,0,0-.2-.08-.16Z"/><path class="cls-14" d="M27.85,60.79a1.65,1.65,0,0,0-.31.2c-.09.08,0,.22.11.14a1.59,1.59,0,0,1,.27-.18.09.09,0,0,0-.07-.16Z"/><path class="cls-14" d="M26.81,61.19c0,.12.19.09.17,0a.09.09,0,0,0-.17,0Z"/><path class="cls-14" d="M26.84,61.1a1,1,0,0,0-.45.15c-.09.07,0,.21.12.14a.9.9,0,0,1,.36-.12.09.09,0,1,0,0-.17Z"/><path class="cls-14" d="M26.09,61.89c0,.11.2.08.18,0a.09.09,0,0,0-.18,0Z"/><path class="cls-14" d="M26.09,61.86l0,.48a.09.09,0,0,0,.18,0l0-.47c0-.11-.17-.13-.18,0Z"/><path class="cls-14" d="M26.47,63.16a.93.93,0,0,0-.14.36c0,.11.15.13.17,0a.68.68,0,0,1,.12-.26.09.09,0,0,0-.15-.11Z"/><path class="cls-14" d="M26.92,62.52l0,.44a.09.09,0,0,0,.18,0l0-.43a.09.09,0,0,0-.18,0Z"/><path class="cls-14" d="M28.05,62.8a.63.63,0,0,1-.12.23c-.07.1.08.2.14.11a.78.78,0,0,0,.15-.32c0-.11-.15-.13-.17,0Z"/><path class="cls-14" d="M27.3,64.17a.09.09,0,1,0,.17,0,.09.09,0,0,0-.17,0Z"/><path class="cls-14" d="M27.3,64.13c-.1.09-.18.2-.28.3a.09.09,0,0,0,.12.13c.09-.09.17-.2.27-.29s0-.22-.11-.14Z"/><path class="cls-14" d="M26.28,65l-.34.16c-.1.06,0,.22.08.16l.33-.16c.1,0,0-.21-.07-.16Z"/><path class="cls-14" d="M25,62l-.28.05a.09.09,0,0,0,0,.18l.28-.05c.11,0,.08-.19,0-.18Z"/><path class="cls-14" d="M23.51,62.44a.75.75,0,0,0-.26.21.09.09,0,0,0,.15.1.58.58,0,0,1,.19-.15.09.09,0,0,0-.08-.16Z"/><path class="cls-14" d="M24.07,63.76c-.05.17-.12.33-.17.49s.13.18.17.07.11-.33.17-.5a.09.09,0,0,0-.17-.06Z"/><path class="cls-14" d="M25.05,63.19c0,.13,0,.27,0,.4a.09.09,0,0,0,.17,0,2.57,2.57,0,0,1,.05-.4.09.09,0,1,0-.18,0Z"/><path class="cls-14" d="M24.9,65.58a.09.09,0,0,0,.17,0c0-.12-.19-.09-.17,0Z"/><path class="cls-14" d="M24.91,65.62c0,.13,0,.25-.05.37A.09.09,0,0,0,25,66c0-.12,0-.25.05-.37a.09.09,0,0,0-.18,0Z"/><path class="cls-14" d="M30.56,64.73c0,.12,0,.24,0,.36a.09.09,0,1,0,.18,0c0-.12,0-.24,0-.36a.09.09,0,0,0-.18,0Z"/><path class="cls-14" d="M31,65.85c0,.21,0,.41,0,.62s.17.13.18,0,0-.41,0-.62-.18-.13-.18,0Z"/><path class="cls-14" d="M30.88,67.37a1.59,1.59,0,0,0-.18.34c-.05.1.12.17.17.06a1.59,1.59,0,0,1,.15-.29c.07-.1-.08-.2-.14-.11Z"/><path class="cls-14" d="M30.27,66.67a1.19,1.19,0,0,1-.33.22.09.09,0,0,0,.07.16,1.39,1.39,0,0,0,.38-.25c.08-.07,0-.21-.12-.13Z"/><path class="cls-14" d="M30,65.76a.47.47,0,0,0-.29.18c-.07.09.08.19.14.1a.45.45,0,0,1,.17-.11.09.09,0,1,0,0-.17Z"/><path class="cls-14" d="M28.94,66.48a.51.51,0,0,0-.42.16c-.07.09.08.2.15.11a.28.28,0,0,1,.26-.09.09.09,0,0,0,0-.18Z"/><path class="cls-14" d="M28,67.47a2.05,2.05,0,0,0-.1.54c0,.12.17.14.17,0a2.19,2.19,0,0,1,.09-.5c0-.11-.13-.17-.16-.06Z"/><path class="cls-14" d="M28.77,68.64c-.05.15-.07.3-.11.45a.09.09,0,0,0,.17.06c0-.15.06-.3.1-.45s-.13-.17-.16-.06Z"/><path class="cls-14" d="M29.54,67.26a1.41,1.41,0,0,1,0,.41c0,.11.17.13.18,0a2.36,2.36,0,0,0,0-.46.09.09,0,0,0-.17,0Z"/><path class="cls-14" d="M30.05,68.38A4.73,4.73,0,0,1,30,69c0,.12.16.13.18,0a4.72,4.72,0,0,0,0-.65c0-.12-.17-.14-.17,0Z"/><path class="cls-14" d="M29.46,69l0,.47a.09.09,0,0,0,.18,0l0-.47a.09.09,0,0,0-.18,0Z"/><path class="cls-14" d="M29.36,70.49A.91.91,0,0,0,29,71a.09.09,0,0,0,.16.06.83.83,0,0,1,.3-.41c.1-.06,0-.2-.11-.14Z"/><path class="cls-14" d="M29.4,71.7a.68.68,0,0,0-.32.35c0,.1.11.16.16.06a.47.47,0,0,1,.23-.25.09.09,0,0,0-.07-.16Z"/><path class="cls-14" d="M30.62,69.63a3.61,3.61,0,0,0-.17.46c0,.11.13.17.16.06a2.92,2.92,0,0,1,.18-.46c.05-.1-.12-.16-.17-.06Z"/><path class="cls-14" d="M31.06,68.18a1.28,1.28,0,0,1-.13.5c-.05.1.12.16.17.06a1.17,1.17,0,0,0,.13-.55c0-.11-.17-.13-.17,0Z"/><path class="cls-15" d="M12.8,33.9A2,2,0,0,1,13,34a.1.1,0,0,0,.12,0,.11.11,0,0,0,0-.12,2,2,0,0,1-.2-.11.09.09,0,0,0-.07.17Z"/><path class="cls-15" d="M12.22,34.09a1.39,1.39,0,0,1,.09.35.09.09,0,1,0,.17,0,2,2,0,0,0-.1-.4.09.09,0,0,0-.16.08Z"/><path class="cls-15" d="M12.07,35.38l0,.28a.09.09,0,0,0,.18,0l0-.28a.09.09,0,0,0-.17,0Z"/><path class="cls-15" d="M12.86,35.83a.32.32,0,0,0,.23.22.1.1,0,0,0,.11,0,.09.09,0,0,0,0-.12l-.08,0s0,0,0,0,0,0,0,0a.09.09,0,0,0-.11-.07.08.08,0,0,0-.07.1Z"/><path class="cls-15" d="M13.3,35.22a.28.28,0,0,0,.09.19.09.09,0,1,0,.11-.15s0,0,0,0l0,0s0,0,0,0v0a.11.11,0,0,0-.11-.08.1.1,0,0,0-.07.11Z"/><path class="cls-15" d="M13.45,34.46l.13.09a.08.08,0,0,0,.12,0,.09.09,0,0,0,0-.13l-.12-.08a.09.09,0,0,0-.13,0,.11.11,0,0,0,0,.12Z"/><path class="cls-15" d="M14.22,35.14a.7.7,0,0,0,.09.24.09.09,0,0,0,.13,0,.08.08,0,0,0,0-.12.49.49,0,0,1,0-.16.09.09,0,0,0-.18,0Z"/><path class="cls-15" d="M14.18,36.19l.05.28a.09.09,0,0,0,.17,0l0-.28a.09.09,0,0,0-.18,0Z"/><path class="cls-15" d="M13.23,36.68c.09.1.17.21.27.31s.21,0,.13-.11-.17-.21-.26-.32-.22,0-.14.12Z"/><path class="cls-15" d="M13,37.43a1,1,0,0,0-.15.35c0,.12.16.14.18,0a.85.85,0,0,1,.11-.26c.07-.1-.08-.2-.14-.11Z"/><path class="cls-15" d="M14.11,37.05a.75.75,0,0,0,.21.26c.09.07.2-.08.1-.15a.65.65,0,0,1-.15-.18c0-.1-.21,0-.16.07Z"/><path class="cls-15" d="M14.23,38c0,.11.19.08.17,0a.09.09,0,0,0-.17,0Z"/><path class="cls-15" d="M14.23,38V38h0a.09.09,0,1,0,.14.1.25.25,0,0,0,0-.21.09.09,0,0,0-.17,0Z"/><path class="cls-15" d="M14.89,38.52a1,1,0,0,1,0,.3c0,.11.16.13.17,0a1.36,1.36,0,0,0,0-.35c0-.11-.2-.08-.18,0Z"/><path class="cls-15" d="M15.22,36.54a1.23,1.23,0,0,0,.24.31c.07.08.21,0,.13-.11a1.31,1.31,0,0,1-.21-.27c-.06-.1-.22,0-.16.07Z"/><path class="cls-15" d="M17.46,40.36a.8.8,0,0,1,0,.31.09.09,0,0,0,.18,0,1,1,0,0,0,0-.35.09.09,0,0,0-.18,0Z"/><path class="cls-15" d="M16.72,41.71a1,1,0,0,0-.2.22.09.09,0,0,0,.15.11,1.08,1.08,0,0,1,.16-.2c.1-.07,0-.2-.11-.13Z"/><path class="cls-15" d="M17.45,41.73a.77.77,0,0,0-.17.19c-.07.09.08.19.14.1a.67.67,0,0,1,.14-.15.09.09,0,0,0,0-.13.08.08,0,0,0-.12,0Z"/><path class="cls-15" d="M17.78,41.39a1.89,1.89,0,0,0,.1.41.09.09,0,0,0,.16-.08,1.9,1.9,0,0,1-.09-.36.09.09,0,0,0-.17,0Z"/><path class="cls-15" d="M17.34,42.88a1.37,1.37,0,0,0,0,.35.09.09,0,1,0,.18,0,1,1,0,0,1,0-.3c0-.11-.16-.13-.18,0Z"/><path class="cls-15" d="M17.92,43.13a.09.09,0,0,0,.18,0c0-.12-.2-.09-.18,0Z"/><path class="cls-15" d="M17.93,43.12l-.16.35a.09.09,0,0,0,.17.07l.16-.35a.09.09,0,0,0-.17-.07Z"/><path class="cls-15" d="M16.91,43a1.46,1.46,0,0,1-.36,0c-.12,0-.14.17,0,.17a1.88,1.88,0,0,0,.41,0,.09.09,0,0,0,0-.18Z"/><path class="cls-15" d="M16.22,42.83A.5.5,0,0,1,16,43c-.11,0-.08.2,0,.18a.79.79,0,0,0,.31-.17c.09-.07,0-.21-.12-.14Z"/><path class="cls-15" d="M15.2,42.57a.09.09,0,1,0,.17,0,.09.09,0,1,0-.17,0Z"/><path class="cls-15" d="M15.22,42.65a2,2,0,0,1,.11.2.08.08,0,0,0,.12,0,.09.09,0,0,0,0-.12,2,2,0,0,1-.11-.2.08.08,0,0,0-.12,0,.09.09,0,0,0,0,.12Z"/><path class="cls-15" d="M16.67,43.84a1,1,0,0,1,0,.3c0,.12.16.13.17,0a1,1,0,0,0,0-.34.09.09,0,1,0-.17,0Z"/><path class="cls-15" d="M17.17,44.44a1.19,1.19,0,0,0-.26.33c-.05.1.11.17.16.06a.75.75,0,0,1,.22-.25c.08-.08,0-.22-.12-.14Z"/><path class="cls-15" d="M19.84,45a2.36,2.36,0,0,0,0,.46c0,.11.2.08.18,0A1.87,1.87,0,0,1,20,45c0-.11-.17-.13-.18,0Z"/><path class="cls-15" d="M20.27,46c.06.11.11.23.16.34s.22,0,.17-.08l-.17-.33c-.05-.1-.21,0-.16.07Z"/><path class="cls-15" d="M20.56,45.83l0,.25c0,.11.2.08.18,0l0-.25c0-.11-.2-.08-.18,0Z"/><path class="cls-15" d="M21.2,46.76c0,.11-.05.22-.07.32s.16.13.18,0a2.56,2.56,0,0,1,.05-.27c0-.11-.13-.18-.16-.07Z"/><path class="cls-15" d="M20.37,47.13a1.16,1.16,0,0,1-.26.28c-.08.08,0,.22.12.14s.2-.2.29-.31a.09.09,0,0,0-.15-.11Z"/><path class="cls-15" d="M19.91,46.5l-.27.12a.09.09,0,0,0,.08.16c.08-.05.18-.07.27-.12a.09.09,0,0,0-.08-.16Z"/><path class="cls-15" d="M18.68,46.43a.09.09,0,0,0,.18,0c0-.11-.2-.08-.18,0Z"/><path class="cls-15" d="M18.73,46.34a1.27,1.27,0,0,0-.31.2c-.09.08,0,.21.11.14a1,1,0,0,1,.28-.18c.1-.06,0-.22-.08-.16Z"/><path class="cls-15" d="M19.26,47.3a.78.78,0,0,1,.06.37c0,.11.17.13.18,0a1.09,1.09,0,0,0-.08-.47c0-.1-.21,0-.16.08Z"/><path class="cls-15" d="M19.25,48.56a3.12,3.12,0,0,0,.23.49c.07.09.21,0,.14-.12a3.1,3.1,0,0,1-.21-.45c0-.1-.2,0-.16.08Z"/><path class="cls-15" d="M20.31,48.65a.09.09,0,0,0,.17,0,.09.09,0,0,0-.17,0Z"/><path class="cls-15" d="M20.34,48.57a1.23,1.23,0,0,0-.35.52c0,.1.13.17.17.06a1.13,1.13,0,0,1,.29-.45c.09-.07,0-.21-.11-.13Z"/><path class="cls-15" d="M19.57,49.67c0,.11.2.08.18,0s-.19-.08-.18,0Z"/><path class="cls-15" d="M18.57,48.3a1.39,1.39,0,0,0-.33.1.09.09,0,0,0,.08.16.9.9,0,0,1,.28-.08.09.09,0,0,0,0-.18Z"/><path class="cls-15" d="M17.06,47.09a.09.09,0,0,0,.18,0c0-.12-.2-.09-.18,0Z"/><path class="cls-15" d="M17.08,47l-.15.12a.08.08,0,0,0,0,.12.09.09,0,0,0,.13,0,.8.8,0,0,0,.17-.15c.07-.09-.07-.19-.14-.1Z"/><path class="cls-15" d="M23.37,50.6a1.25,1.25,0,0,0,.06.58c0,.11.2,0,.16-.07a1,1,0,0,1,0-.49.09.09,0,0,0-.18,0Z"/><path class="cls-15" d="M23,51.25a.67.67,0,0,0,0,.5.09.09,0,0,0,.17-.08.48.48,0,0,1,0-.35c.05-.11-.12-.17-.16-.07Z"/><path class="cls-15" d="M23.36,52.15l-.29.41a.09.09,0,1,0,.14.1l.29-.41c.07-.09-.07-.19-.14-.1Z"/><path class="cls-15" d="M22.56,52.71c0,.11.19.08.18,0a.09.09,0,0,0-.18,0Z"/><path class="cls-15" d="M22.63,52.6l-.52.09a.09.09,0,1,0,0,.18l.52-.09a.09.09,0,0,0,0-.18Z"/><path class="cls-15" d="M22,51.83l-.2.29a.09.09,0,1,0,.14.1l.21-.28a.09.09,0,0,0-.15-.11Z"/><path class="cls-15" d="M22.39,50.19a4.13,4.13,0,0,0-.31.42.09.09,0,0,0,.06.12.09.09,0,0,0,.11,0c.08-.14.19-.26.28-.39a.09.09,0,1,0-.14-.1Z"/><path class="cls-15" d="M21.51,51.09a.59.59,0,0,0,.19.47c.08.08.22,0,.14-.11a.43.43,0,0,1-.16-.34c0-.11-.17-.13-.17,0Z"/><path class="cls-15" d="M23.26,52.94a.64.64,0,0,1-.18.25c-.08.08,0,.22.12.14a1.44,1.44,0,0,0,.23-.32.09.09,0,0,0-.17-.07Z"/><path class="cls-15" d="M21.62,53.23a2,2,0,0,1,.09.22c.06.1.22,0,.16-.08a1.42,1.42,0,0,0-.12-.25.09.09,0,0,0-.13.11Z"/><path class="cls-15" d="M22.17,54c0,.13-.06.25-.08.38s.16.13.18,0,.06-.25.08-.38-.16-.13-.18,0Z"/><path class="cls-15" d="M21.42,52.09a1.77,1.77,0,0,0-.46,0c-.11,0-.08.19,0,.17a1.87,1.87,0,0,1,.41,0c.12,0,.13-.16,0-.17Z"/><path class="cls-15" d="M20.47,51.83l.08.49c0,.11.2.08.18,0l-.08-.49a.09.09,0,0,0-.18,0Z"/><path class="cls-15" d="M20.87,53.13l.06.39a.09.09,0,0,0,.17,0L21,53.1a.09.09,0,0,0-.17,0Z"/><path class="cls-15" d="M21.77,54.24l0,.11a.08.08,0,0,0,.1.07.08.08,0,0,0,.07-.1l0-.11a.08.08,0,0,0-.1-.07.08.08,0,0,0-.07.1Z"/><path class="cls-15" d="M21.74,55a1.38,1.38,0,0,0-.3.24c-.09.08,0,.21.11.13a1.39,1.39,0,0,1,.27-.21c.1-.06,0-.22-.08-.16Z"/><path class="cls-15" d="M20.41,53.08a1.13,1.13,0,0,0-.37.1c-.1,0,0,.21.07.16a.94.94,0,0,1,.33-.08c.11,0,.08-.2,0-.18Z"/><path class="cls-15" d="M25.43,55.32a.85.85,0,0,0-.38.3c-.07.09.07.19.14.1a.75.75,0,0,1,.32-.24.09.09,0,0,0-.08-.16Z"/><path class="cls-15" d="M26.12,55.68a.83.83,0,0,0-.18.48c0,.11.17.13.18,0a.64.64,0,0,1,.11-.36c.08-.08,0-.22-.11-.14Z"/><path class="cls-15" d="M25.75,56.77a.44.44,0,0,1-.13.25c-.08.08,0,.22.12.14a.66.66,0,0,0,.19-.37c0-.12-.16-.14-.18,0Z"/><path class="cls-15" d="M25.35,57.36a.56.56,0,0,1-.23.06.09.09,0,0,0,0,.17.75.75,0,0,0,.32-.1.08.08,0,0,0,0-.12.09.09,0,0,0-.13,0Z"/><path class="cls-15" d="M24.82,56.68l-.35,0a.09.09,0,0,0,0,.18l.35-.06a.09.09,0,0,0,0-.17Z"/><path class="cls-15" d="M25,56.11a2.44,2.44,0,0,0-.46-.07.09.09,0,1,0,0,.17,3.07,3.07,0,0,1,.42.07.09.09,0,0,0,.06-.17Z"/><path class="cls-15" d="M25,57.88a1.61,1.61,0,0,0-.1.36c0,.12.16.13.18,0a1.57,1.57,0,0,1,.08-.31c.05-.11-.12-.17-.16-.07Z"/><path class="cls-15" d="M25.45,58a2.36,2.36,0,0,0,0,.46.09.09,0,0,0,.18,0,1.87,1.87,0,0,1,0-.41c0-.11-.17-.13-.18,0Z"/><path class="cls-15" d="M26.45,57.55c-.07.09-.15.16-.21.25a.09.09,0,1,0,.14.1,2.52,2.52,0,0,0,.21-.25c.07-.09-.07-.19-.14-.1Z"/><path class="cls-15" d="M26.68,56.85c0,.09,0,.2-.06.29s.13.18.16.07,0-.2.06-.3-.13-.17-.16-.06Z"/><path class="cls-15" d="M24.11,57.31a.09.09,0,1,0,.18,0c0-.11-.2-.08-.18,0Z"/><path class="cls-15" d="M24.11,57.31a.36.36,0,0,1,0,.27c-.07.1.08.2.14.1a.55.55,0,0,0,.07-.4c0-.11-.19-.08-.18,0Z"/><path class="cls-15" d="M23.23,56.9a1.14,1.14,0,0,0-.36.1.09.09,0,0,0,.07.16.89.89,0,0,1,.32-.08.09.09,0,0,0,0-.18Z"/><path class="cls-15" d="M24.1,58.46a.4.4,0,0,0-.14.24.09.09,0,0,0,.16.06.32.32,0,0,1,.09-.16.08.08,0,0,0,0-.12.08.08,0,0,0-.12,0Z"/><path class="cls-15" d="M24.66,59.75a.09.09,0,0,0,.17,0,.09.09,0,1,0-.17,0Z"/><path class="cls-15" d="M24.64,59.68a.83.83,0,0,1-.21.17c-.09.07,0,.2.12.14a1.5,1.5,0,0,0,.23-.2.09.09,0,0,0-.14-.11Z"/><path class="cls-15" d="M28,60a.87.87,0,0,0,0,.48c0,.11.2.08.18,0a.74.74,0,0,1,0-.39c0-.1-.12-.17-.16-.06Z"/><path class="cls-15" d="M28.39,60.75a.92.92,0,0,1,0,.33.09.09,0,1,0,.18,0,1.23,1.23,0,0,0,0-.38c0-.11-.2-.08-.18,0Z"/><path class="cls-15" d="M28.35,61.32a.84.84,0,0,0-.44.07c-.1,0,0,.21.08.16a.66.66,0,0,1,.34,0c.11,0,.13-.17,0-.18Z"/><path class="cls-15" d="M27.8,61.14c0,.11.2.08.18,0a.09.09,0,0,0-.18,0Z"/><path class="cls-15" d="M27.86,61l-.27.15c-.1.06,0,.22.08.16s.17-.1.26-.15,0-.21-.07-.16Z"/><path class="cls-15" d="M27.22,60.79A.64.64,0,0,1,27,61c-.08.08,0,.22.11.14a1.12,1.12,0,0,0,.24-.33c0-.1-.12-.16-.17-.06Z"/><path class="cls-15" d="M27.33,61.75a1.89,1.89,0,0,1,0,.41c0,.11.17.13.18,0a2.32,2.32,0,0,0,0-.46c0-.11-.2-.08-.18,0Z"/><path class="cls-15" d="M27.32,62.68a.62.62,0,0,0,0,.27c0,.11.19.08.18,0a.5.5,0,0,1,0-.17.09.09,0,0,0-.05-.12s-.1,0-.11,0Z"/><path class="cls-15" d="M28.29,62.35a.09.09,0,0,0,.18,0c0-.11-.2-.08-.18,0Z"/><path class="cls-15" d="M28.39,62.25a.93.93,0,0,0-.37.06.09.09,0,1,0,0,.17.86.86,0,0,1,.32,0,.09.09,0,0,0,0-.18Z"/><path class="cls-15" d="M29,61.11a2.55,2.55,0,0,0-.4.47.09.09,0,0,0,.14.11,2.33,2.33,0,0,1,.38-.45c.08-.07,0-.21-.12-.13Z"/><path class="cls-15" d="M29.26,61.91a3.07,3.07,0,0,0-.27.46c0,.1.12.16.17.06A3.38,3.38,0,0,1,29.4,62c.07-.1-.08-.2-.14-.11Z"/><path class="cls-15" d="M28.54,62.54a1.36,1.36,0,0,1-.07.35c0,.11.12.17.16.06a1.3,1.3,0,0,0,.09-.39c0-.12-.16-.13-.18,0Z"/><path class="cls-15" d="M28.21,63.45c-.06.09-.1.19-.17.28a.09.09,0,0,0,.15.11l.17-.28a.09.09,0,0,0-.15-.11Z"/><path class="cls-15" d="M27.49,63.52a.23.23,0,0,1-.16,0s-.1,0-.11.05a.09.09,0,0,0,.05.12.39.39,0,0,0,.33-.06.09.09,0,0,0,0-.13s-.08,0-.12,0Z"/><path class="cls-15" d="M26.53,61.92a1.29,1.29,0,0,1,0,.34c0,.11.16.13.17,0a1.7,1.7,0,0,0,0-.39c0-.11-.2-.08-.18,0Z"/><path class="cls-15" d="M25.67,62a.43.43,0,0,0-.08.33c0,.11.19.08.17,0a.29.29,0,0,1,0-.2c.07-.09-.08-.19-.14-.1Z"/><path class="cls-15" d="M25.91,63.37a1.28,1.28,0,0,0,0,.39c0,.11.19.08.17,0a1.28,1.28,0,0,1,0-.34c0-.12-.15-.13-.17,0Z"/><path class="cls-15" d="M26.74,64a.38.38,0,0,0-.38.25c-.05.11.11.17.16.07a.21.21,0,0,1,.2-.14.09.09,0,0,0,0-.18Z"/><path class="cls-15" d="M27.41,64.58a3.72,3.72,0,0,0-.41.48c-.07.09.08.19.15.1a3.91,3.91,0,0,1,.37-.44c.08-.08,0-.22-.11-.14Z"/><path class="cls-15" d="M30.18,65a1.3,1.3,0,0,1-.23.18c-.1,0,0,.21.07.16a1.79,1.79,0,0,0,.28-.2c.08-.07,0-.21-.12-.14Z"/><path class="cls-15" d="M30.38,65.59a2.26,2.26,0,0,0,0,.45.09.09,0,1,0,.17,0,1.42,1.42,0,0,1,0-.41.09.09,0,0,0-.18,0Z"/><path class="cls-15" d="M30.86,65.24l.05.28c0,.12.19.09.17,0l0-.28c0-.11-.19-.08-.17,0Z"/><path class="cls-15" d="M31.22,66.61a1.48,1.48,0,0,0-.34.21A.09.09,0,0,0,31,67a1.23,1.23,0,0,1,.31-.19.09.09,0,0,0-.08-.16Z"/><path class="cls-15" d="M30.53,66.91c-.07,0-.12.12-.19.18s0,.2.12.13.12-.12.18-.17,0-.21-.11-.14Z"/><path class="cls-15" d="M29.83,66.16a.55.55,0,0,1-.18.13c-.12,0-.09.2,0,.17a.53.53,0,0,0,.27-.16c.1-.07,0-.21-.11-.14Z"/><path class="cls-15" d="M29.1,66a.65.65,0,0,1-.17.16c-.1.07,0,.21.11.14a1.21,1.21,0,0,0,.2-.19A.09.09,0,0,0,29.1,66Z"/><path class="cls-15" d="M29.18,67a1.23,1.23,0,0,1-.1.43c0,.11.12.17.16.07a1.61,1.61,0,0,0,.12-.48c0-.11-.17-.13-.18,0Z"/><path class="cls-15" d="M28.69,67.09a.84.84,0,0,0-.38-.11c-.12,0-.13.16,0,.18a.59.59,0,0,1,.29.07c.1.06.2-.08.11-.14Z"/><path class="cls-15" d="M27.67,66.91l-.33.16c-.1.05,0,.21.07.16l.33-.16c.11-.06,0-.22-.07-.16Z"/><path class="cls-15" d="M28.45,67.91c0,.12,0,.24,0,.35a.09.09,0,1,0,.17,0c0-.12,0-.24,0-.36a.09.09,0,0,0-.18,0Z"/><path class="cls-15" d="M27.79,68.87a1.38,1.38,0,0,1,.08.29.09.09,0,0,0,.17,0A1.15,1.15,0,0,0,28,68.8a.09.09,0,0,0-.16.07Z"/><path class="cls-15" d="M26.83,68.54A1.09,1.09,0,0,0,27,69c.06.09.2,0,.13-.12a.94.94,0,0,1-.15-.32.09.09,0,1,0-.17,0Z"/><path class="cls-15" d="M27.89,70.38a1.24,1.24,0,0,0,.09.33c.05.1.22,0,.16-.07a1.38,1.38,0,0,1-.08-.29c0-.11-.19-.08-.17,0Z"/><path class="cls-15" d="M29,69.57c-.09.09-.22.15-.32.24s0,.21.12.13.22-.14.32-.23a.09.09,0,0,0-.12-.14Z"/><path class="cls-15" d="M29.78,69.85c0,.11.2.08.18,0s-.2-.08-.18,0Z"/><path class="cls-15" d="M29.81,69.77l-.22.14c-.1.07,0,.21.11.14l.23-.15c.09-.06,0-.2-.12-.13Z"/><path class="cls-15" d="M29.5,68.17a.63.63,0,0,0,.09.24.11.11,0,0,0,.13,0,.09.09,0,0,0,0-.13.49.49,0,0,1-.05-.16.09.09,0,0,0-.18,0Z"/><path class="cls-15" d="M30.11,67.72a.31.31,0,0,1,.18.16c.05.1.22,0,.16-.07a.44.44,0,0,0-.32-.26c-.11,0-.13.15,0,.17Z"/><path class="cls-15" d="M30.54,68.32a.09.09,0,0,0,.17,0c0-.11-.19-.08-.17,0Z"/><path class="cls-15" d="M30.54,68.3a.74.74,0,0,1-.13.41.09.09,0,0,0,.15.1.86.86,0,0,0,.15-.49c0-.12-.17-.14-.17,0Z"/><path class="cls-15" d="M31,69.08a1.33,1.33,0,0,1-.4,0c-.11,0-.13.17,0,.17a2.27,2.27,0,0,0,.45,0,.09.09,0,0,0,0-.18Z"/><path class="cls-15" d="M30.09,69.92a2.73,2.73,0,0,0-.05.4.09.09,0,0,0,.18,0c0-.13,0-.27,0-.4s-.16-.13-.17,0Z"/><path class="cls-15" d="M30.26,70.61a2.87,2.87,0,0,1-.34.44c-.08.08,0,.22.11.13a1.87,1.87,0,0,0,.37-.47c.06-.1-.09-.2-.14-.1Z"/><path class="cls-15" d="M29.67,70.84a.45.45,0,0,0-.18.29.09.09,0,0,0,.08.1.09.09,0,0,0,.1-.08.29.29,0,0,1,.11-.18c.09-.07,0-.2-.11-.13Z"/><path class="cls-15" d="M28.63,72.15a1,1,0,0,0-.33.13.09.09,0,0,0,.08.16,1,1,0,0,1,.28-.12.09.09,0,0,0,0-.17Z"/><path class="cls-15" d="M31.22,67.24c0,.11.2.08.18,0a.09.09,0,0,0-.18,0Z"/><path class="cls-15" d="M31.23,67.27a1.15,1.15,0,0,1,0,.37.09.09,0,1,0,.18,0,1.48,1.48,0,0,0,0-.42c0-.11-.2-.08-.18,0Z"/><polygon class="cls-5" points="44.08 66.43 50.4 67.14 30 45.44 24.75 45.87 44.08 66.43"/><polygon class="cls-29" points="38.48 36.74 30 45.44 50.4 67.14 58.57 58.12 38.48 36.74"/><polygon class="cls-29" points="24.75 45.87 30 45.44 26.15 42.58 24.75 45.87"/><polygon class="cls-29" points="31.08 33.24 23.94 40.23 26.15 42.58 33.56 35.61 31.08 33.24"/><path class="cls-30" d="M36.13,47.29a.4.4,0,0,1,.08-.58l.18-.17a.44.44,0,0,1,.66,0L38.4,48a.35.35,0,0,1,0,.55.36.36,0,0,1-.55,0l-.91-1h0l.73,1.34c.1.17.07.27-.08.41s-.25.16-.41.06l-1.3-.79h0l.91,1a.39.39,0,1,1-.56.54l-1.35-1.42a.43.43,0,0,1,0-.65l.18-.17a.42.42,0,0,1,.59-.06l1.19.73h0Z"/><path class="cls-30" d="M37.45,46.18a.44.44,0,1,1,.63-.6l1.3,1.36a.42.42,0,0,1,0,.64.41.41,0,0,1-.64,0Z"/><path class="cls-30" d="M40.91,45.09a.34.34,0,0,1,.51,0,.33.33,0,0,1,0,.51l-.93.89a.44.44,0,0,1-.72,0l-1.23-1.29a.44.44,0,1,1,.63-.6l1.1,1.16Z"/><path class="cls-30" d="M41.32,42.2c0-.25,0-.36.11-.46a.4.4,0,0,1,.54,0,.45.45,0,0,1,.09.34l0,.61,1.19.29a.55.55,0,0,1,.24.12.44.44,0,0,1,0,.6.39.39,0,0,1-.39.11L42,43.55v.37l.25.27a.42.42,0,0,1,0,.64.43.43,0,0,1-.64,0l-1.29-1.37a.42.42,0,0,1,0-.64.43.43,0,0,1,.64,0l.37.39Z"/><polygon class="cls-5" points="33.28 35.35 26.15 42.58 30 45.44 38.48 36.74 33.28 35.35"/><path class="cls-30" d="M45,44.73a.44.44,0,0,1,0,.62l-6.58,6.49a.44.44,0,0,1-.62,0h0a.44.44,0,0,1,0-.62l6.57-6.49a.44.44,0,0,1,.62,0Z"/><path class="cls-30" d="M36,44.24c.21.51.4,2.06,1.29,1.07.62-.68-.76-1.05-1.2-1Z"/><path class="cls-30" d="M51.83,52.85h0c-.24,0-.84-.46-1,0l-.2,0a5,5,0,0,0-.56.07c-.14,0-.29,0-.44,0l-.16-.09a1.48,1.48,0,0,0-1.53.66c-.36.42-1.65,1.62-1.75,1.51a3.76,3.76,0,0,0-.56-.47,1.25,1.25,0,0,0,0-.55c-.07-.36-.41-1-.84-.92a1.1,1.1,0,0,1,0,1.11,1,1,0,0,0-.88.36,1.32,1.32,0,0,0-.43.73,1,1,0,0,1-1,0c.13.5.82,1.06,1.28.84.57.71,1.09,1.52,1.7,1.16a2.34,2.34,0,0,0,.6-.46c.22.14,1.94,1.82,2.16,1.9s.68-.36.75-.64-1.12-1.11-1-1.22c.46-.31,1.77-1.74,2.11-1.84.1,0,.87.86,1,.94a1.94,1.94,0,0,0,.73-.72,24.72,24.72,0,0,0-1.91-2,4.29,4.29,0,0,0,.88-.17.3.3,0,0,0,.31.14c.19,0,.31-.2.47-.29a1,1,0,0,1,.18-.09Z"/><path class="cls-31" d="M10.64,48.64h70.5A5.37,5.37,0,0,1,86.5,54v.06a0,0,0,0,1,0,0H5.27a0,0,0,0,1,0,0V54A5.37,5.37,0,0,1,10.64,48.64Z"/><path class="cls-31" d="M6.8,50.77l8,32.85a2.87,2.87,0,0,0,2.78,2.19H74.84a2.87,2.87,0,0,0,2.78-2.19l8-32.85ZM18,82.45a.77.77,0,0,1-.77.77h-.11a.76.76,0,0,1-.77-.77V72a.76.76,0,0,1,.77-.77h.11A.77.77,0,0,1,18,72Zm0-15.1a.78.78,0,0,1-.77.77h-.11a.77.77,0,0,1-.77-.77V56.92a.77.77,0,0,1,.77-.77h.11a.78.78,0,0,1,.77.77Zm4.37,15.1a.77.77,0,0,1-.77.77h-.11a.76.76,0,0,1-.77-.77V72a.76.76,0,0,1,.77-.77h.11a.77.77,0,0,1,.77.77Zm0-15.1a.78.78,0,0,1-.77.77h-.11a.77.77,0,0,1-.77-.77V56.92a.77.77,0,0,1,.77-.77h.11a.78.78,0,0,1,.77.77Zm4.37,15.1a.77.77,0,0,1-.77.77h-.11a.76.76,0,0,1-.77-.77V72a.76.76,0,0,1,.77-.77H26a.77.77,0,0,1,.77.77Zm0-15.1a.78.78,0,0,1-.77.77h-.11a.77.77,0,0,1-.77-.77V56.92a.77.77,0,0,1,.77-.77H26a.78.78,0,0,1,.77.77Zm4.37,15.1a.77.77,0,0,1-.77.77h-.11a.76.76,0,0,1-.77-.77V72a.76.76,0,0,1,.77-.77h.11a.77.77,0,0,1,.77.77Zm0-15.1a.78.78,0,0,1-.77.77h-.11a.77.77,0,0,1-.77-.77V56.92a.77.77,0,0,1,.77-.77h.11a.78.78,0,0,1,.77.77Zm4.36,15.1a.76.76,0,0,1-.76.77H34.6a.76.76,0,0,1-.77-.77V72a.76.76,0,0,1,.77-.77h.11a.76.76,0,0,1,.76.77Zm0-15.1a.77.77,0,0,1-.76.77H34.6a.77.77,0,0,1-.77-.77V56.92a.77.77,0,0,1,.77-.77h.11a.77.77,0,0,1,.76.77ZM40.16,82.6a.63.63,0,0,1-.63.62h-.4a.62.62,0,0,1-.62-.62V76a.62.62,0,0,1,.62-.62h.4a.63.63,0,0,1,.63.62Zm0-19.19a.63.63,0,0,1-.63.62h-.4a.62.62,0,0,1-.62-.62V56.78a.63.63,0,0,1,.62-.63h.4a.63.63,0,0,1,.63.63ZM44.53,82.6a.63.63,0,0,1-.63.62h-.4a.62.62,0,0,1-.62-.62V76a.62.62,0,0,1,.62-.62h.4a.63.63,0,0,1,.63.62Zm0-19.19a.63.63,0,0,1-.63.62h-.4a.62.62,0,0,1-.62-.62V56.78a.63.63,0,0,1,.62-.63h.4a.63.63,0,0,1,.63.63ZM48.9,82.6a.63.63,0,0,1-.63.62h-.4a.62.62,0,0,1-.62-.62V76a.62.62,0,0,1,.62-.62h.4a.63.63,0,0,1,.63.62Zm0-19.19a.63.63,0,0,1-.63.62h-.4a.62.62,0,0,1-.62-.62V56.78a.63.63,0,0,1,.62-.63h.4a.63.63,0,0,1,.63.63ZM53.26,82.6a.62.62,0,0,1-.62.62h-.4a.62.62,0,0,1-.62-.62V76a.62.62,0,0,1,.62-.62h.4a.62.62,0,0,1,.62.62Zm0-19.19a.62.62,0,0,1-.62.62h-.4a.62.62,0,0,1-.62-.62V56.78a.63.63,0,0,1,.62-.63h.4a.62.62,0,0,1,.62.63Zm3.67,19a.77.77,0,0,1-.77.77h-.11a.76.76,0,0,1-.77-.77V72a.76.76,0,0,1,.77-.77h.11a.77.77,0,0,1,.77.77Zm0-15.1a.78.78,0,0,1-.77.77h-.11a.77.77,0,0,1-.77-.77V56.92a.77.77,0,0,1,.77-.77h.11a.78.78,0,0,1,.77.77Zm4.37,15.1a.77.77,0,0,1-.77.77h-.11a.76.76,0,0,1-.77-.77V72a.76.76,0,0,1,.77-.77h.11a.77.77,0,0,1,.77.77Zm0-15.1a.78.78,0,0,1-.77.77h-.11a.77.77,0,0,1-.77-.77V56.92a.77.77,0,0,1,.77-.77h.11a.78.78,0,0,1,.77.77Zm4.37,15.1a.77.77,0,0,1-.77.77h-.11a.76.76,0,0,1-.77-.77V72a.76.76,0,0,1,.77-.77h.11a.77.77,0,0,1,.77.77Zm0-15.1a.78.78,0,0,1-.77.77h-.11a.77.77,0,0,1-.77-.77V56.92a.77.77,0,0,1,.77-.77h.11a.78.78,0,0,1,.77.77ZM70,82.45a.76.76,0,0,1-.76.77h-.11a.76.76,0,0,1-.77-.77V72a.76.76,0,0,1,.77-.77h.11A.76.76,0,0,1,70,72Zm0-15.1a.77.77,0,0,1-.76.77h-.11a.77.77,0,0,1-.77-.77V56.92a.77.77,0,0,1,.77-.77h.11a.77.77,0,0,1,.76.77Zm4.37,15.1a.76.76,0,0,1-.76.77h-.12a.76.76,0,0,1-.76-.77V72a.76.76,0,0,1,.76-.77h.12a.76.76,0,0,1,.76.77Zm0-15.1a.77.77,0,0,1-.76.77h-.12a.77.77,0,0,1-.76-.77V56.92a.77.77,0,0,1,.76-.77h.12a.77.77,0,0,1,.76.77Z"/><polygon class="cls-24" points="7.6 54.07 84.79 54.07 84.28 56.16 7.86 55.11 7.6 54.07"/><path class="cls-32" d="M6.44,50.52a1.23,1.23,0,0,0,.88.84,3.55,3.55,0,0,0,1.26.06,148,148,0,0,1,18.6-.14,2.51,2.51,0,0,0,1.09-.1.85.85,0,0,0,.59-.83.87.87,0,0,0-.6-.68,2.74,2.74,0,0,0-1-.08l-2.22.09c-2.39.09-4.77.19-7.16.08-2.14-.09-4.28-.34-6.42-.4C10.65,49.34,6.13,49,6.44,50.52Z"/><path class="cls-32" d="M30.81,50.9a1.37,1.37,0,0,0,.77.42,6.43,6.43,0,0,0,3.81,0,1.49,1.49,0,0,0,.63-.39.81.81,0,0,0,.18-.75.64.64,0,0,0-.14-.22.89.89,0,0,0-.57-.21,18.63,18.63,0,0,0-4,0C31,49.75,30.29,50.25,30.81,50.9Z"/><path class="cls-33" d="M38.65,73.5V68.28a2,2,0,0,1,2-2H52.07a2,2,0,0,1,.92.21,2.06,2.06,0,0,0-1.82-1.12H39.79a2,2,0,0,0-2,2V72.6a2.06,2.06,0,0,0,1.12,1.82A2,2,0,0,1,38.65,73.5Z"/><path class="cls-34" d="M48,53c.44,0,34.2,24.14,34.2,24.14s1.34.65,1.91,0,0-1.9,0-1.9l-32.38-26s-1.92-.76-3.15.31A2.93,2.93,0,0,0,48,53Z"/><path class="cls-31" d="M51.34,51.34a1.13,1.13,0,0,1-2.25,0,1.13,1.13,0,1,1,2.25,0Z"/><path class="cls-33" d="M50.57,50.24a1.1,1.1,0,0,1,.25.71,1.13,1.13,0,0,1-1.12,1.13,1,1,0,0,1-.35-.06,1.12,1.12,0,1,0,1.22-1.78Z"/><path class="cls-34" d="M44.43,53C44,53,10.22,77.13,10.22,77.13s-1.34.65-1.9,0,0-1.9,0-1.9l32.37-26s1.93-.76,3.15.31A2.94,2.94,0,0,1,44.43,53Z"/><path class="cls-31" d="M41.07,51.34a1.13,1.13,0,0,0,2.25,0,1.13,1.13,0,1,0-2.25,0Z"/><path class="cls-33" d="M41.84,50.24a1.1,1.1,0,0,0-.25.71,1.13,1.13,0,0,0,1.12,1.13,1,1,0,0,0,.35-.06,1.12,1.12,0,1,1-1.22-1.78Z"/></g></g></svg>