<svg xmlns="http://www.w3.org/2000/svg" viewBox="0 0 101.91 94.25"><defs><style>.cls-1{fill:#ffe461;}.cls-2,.cls-8{fill:none;}.cls-2{stroke:#62b981;stroke-miterlimit:10;stroke-width:3px;}.cls-3{fill:#62b981;}.cls-4{fill:#ed6a69;}.cls-5{fill:#ea4e4f;}.cls-6{opacity:0.42;}.cls-16,.cls-7{fill:#fdfeff;}.cls-8{stroke:#fdfeff;stroke-linecap:round;stroke-linejoin:round;stroke-width:3.68px;}.cls-9{fill:#244553;}.cls-10{fill:#64c0c1;}.cls-11{fill:#86cdd7;}.cls-12{fill:#fdebe6;}.cls-13{fill:#3f6e7b;}.cls-14{fill:#305a69;}.cls-15{fill:#76bf90;}.cls-16{opacity:0.39;}</style></defs><title>Asset 4</title><g id="Layer_2" data-name="Layer 2"><g id="Layer_1-2" data-name="Layer 1"><circle class="cls-1" cx="47.13" cy="47.13" r="47.13"/><path class="cls-2" d="M36.33,51.18A31.27,31.27,0,0,0,19.91,36.67"/><path class="cls-3" d="M33.55,47.25s-10.27-5.63-12-2.1S33.55,47.25,33.55,47.25Z"/><path class="cls-3" d="M29.79,42.44s-10.27-5.63-12-2.11S29.79,42.44,29.79,42.44Z"/><path class="cls-3" d="M27.61,40.45S25.06,29,21.27,30.05,27.61,40.45,27.61,40.45Z"/><path class="cls-3" d="M35.46,49.18s4.3-12.8-.05-14S35.46,49.18,35.46,49.18Z"/><path class="cls-3" d="M30.46,43.17s3.73-11.1-.05-12.18S30.46,43.17,30.46,43.17Z"/><path class="cls-3" d="M23.45,38.36s-9-7.44-11.39-4.3S23.45,38.36,23.45,38.36Z"/><path class="cls-2" d="M77.37,37.77A31.27,31.27,0,0,1,93.78,23.25"/><path class="cls-3" d="M80.14,33.84s10.27-5.64,12-2.11S80.14,33.84,80.14,33.84Z"/><path class="cls-3" d="M83.9,29s10.27-5.64,12-2.11S83.9,29,83.9,29Z"/><path class="cls-3" d="M86.08,27s2.56-11.43,6.35-10.39S86.08,27,86.08,27Z"/><path class="cls-3" d="M78.23,35.76s-4.29-12.79.06-14S78.23,35.76,78.23,35.76Z"/><path class="cls-3" d="M83.23,29.76s-3.73-11.11,0-12.18S83.23,29.76,83.23,29.76Z"/><path class="cls-3" d="M90.24,24.94s9.05-7.44,11.4-4.29S90.24,24.94,90.24,24.94Z"/><path class="cls-4" d="M59.57,75.54s-25.43-20.79-25.65-36c-.15-10.09,9-17.41,17.68-16.46,5.81.64,10.47,4.86,12.58,10.6,2.92-5.18,6.27-8.48,14.59-7.61C87.44,27,95.2,36.25,92.45,46,88.64,59.43,59.57,75.54,59.57,75.54Z"/><path class="cls-5" d="M88.16,30.72A14.63,14.63,0,0,1,88,38.11C84.18,51.57,55.12,67.69,55.12,67.69S43.31,58,35.72,47.07c5.83,13.74,23.85,28.47,23.85,28.47S88.64,59.43,92.45,46A15.5,15.5,0,0,0,88.16,30.72Z"/><g class="cls-6"><path class="cls-7" d="M51.55,27.19h-.1a11.14,11.14,0,0,0-2.38,0,.91.91,0,0,1-.18-1.82,13.41,13.41,0,0,1,2.76,0,.91.91,0,0,1,.81,1A.93.93,0,0,1,51.55,27.19Z"/><path class="cls-7" d="M37.91,38.12h-.1a.93.93,0,0,1-.81-1,13.22,13.22,0,0,1,8.62-11,.91.91,0,0,1,1.17.54.92.92,0,0,1-.54,1.18,11.39,11.39,0,0,0-7.43,9.49A.92.92,0,0,1,37.91,38.12Z"/></g><line class="cls-8" x1="92.53" y1="44.18" x2="93.09" y2="44.18"/><line class="cls-8" x1="88.99" y1="44.18" x2="91.13" y2="44.18"/><path class="cls-8" d="M34.93,43.62h18.2a4.62,4.62,0,0,1,4.15,2.59l2.66,5.42a.79.79,0,0,0,1.43,0l7.1-15.54a1.23,1.23,0,0,1,2.25,0l2.34,5.34a4.62,4.62,0,0,0,4.23,2.76h10.4"/><path class="cls-9" d="M30.05,41.31l-12.8,2.44A2.82,2.82,0,0,0,15,47.05l1.42,7.42a2.81,2.81,0,0,0,3.29,2.24l12.8-2.44A2.82,2.82,0,0,0,34.76,51l-1.42-7.42A2.82,2.82,0,0,0,30.05,41.31Zm2,8.66a1.93,1.93,0,0,1-1.54,2.26l-9.69,1.85a1.93,1.93,0,0,1-2.26-1.54l-.86-4.49a1.93,1.93,0,0,1,1.54-2.26l9.69-1.85a1.93,1.93,0,0,1,2.26,1.53Z"/><rect class="cls-10" x="3.61" y="47.74" width="48.62" height="34.37" rx="5.85" transform="translate(-11.68 6.39) rotate(-10.8)"/><rect class="cls-11" x="3.3" y="47.77" width="48.62" height="31.03" rx="5.56" transform="translate(-11.37 6.3) rotate(-10.8)"/><rect class="cls-7" x="10.93" y="50.75" width="2.51" height="34.37" rx="1.26" transform="translate(-12.52 3.49) rotate(-10.8)"/><rect class="cls-7" x="42.59" y="44.71" width="2.51" height="34.37" rx="1.26" transform="translate(-10.83 9.32) rotate(-10.81)"/><circle class="cls-4" cx="27.78" cy="63.67" r="10.71"/><rect class="cls-12" x="25.36" y="56.97" width="4.84" height="13.41" transform="matrix(0.98, -0.19, 0.19, 0.98, -11.44, 6.34)"/><rect class="cls-12" x="25.36" y="56.97" width="4.84" height="13.41" transform="translate(-29.55 102.9) rotate(-100.8)"/><path class="cls-11" d="M68.46,67.57a13.26,13.26,0,0,1-2.8-.3c-4.41-1-8.07-4.06-10.3-8.75a25,25,0,0,1-1.54-15.89A26.83,26.83,0,0,1,57.94,33l1.13.79a25.46,25.46,0,0,0-3.91,9.12,23.59,23.59,0,0,0,1.45,15c2,4.3,5.36,7.14,9.34,8s8.17-.37,11.8-3.45a23.58,23.58,0,0,0,7.48-13.08,25.4,25.4,0,0,0,.19-9.93l1.35-.25a26.8,26.8,0,0,1-.19,10.47,25,25,0,0,1-7.94,13.84A15.76,15.76,0,0,1,68.46,67.57Z"/><path class="cls-11" d="M29.64,89.94a11.55,11.55,0,0,1-6.15-1.36,4.19,4.19,0,0,1-1.93-2.92,2.86,2.86,0,0,1,1-2.7c2.39-2.15,8.7-2.35,13.58-2.13A77.52,77.52,0,0,1,51.62,83c6.18,1.7,13.2,1.68,14.19-.06.36-.64-.21-1.73-1.62-3.08-4.08-3.93-2.14-7.91-.59-11.11.3-.61.58-1.19.83-1.77l1.26.54c-.26.61-.56,1.23-.85,1.83-1.57,3.23-3.06,6.28.31,9.52,1.95,1.88,2.58,3.48,1.85,4.75-1.69,3-10.4,2.18-15.74.7-7.19-2-24.26-3.53-27.81-.34a1.53,1.53,0,0,0-.54,1.46,2.87,2.87,0,0,0,1.34,2c3.66,2.42,12.85.21,12.94.19L37.52,89A37.77,37.77,0,0,1,29.64,89.94Z"/><ellipse class="cls-9" cx="42.08" cy="88.81" rx="6.79" ry="3.44"/><ellipse class="cls-13" cx="42.01" cy="87.07" rx="4.6" ry="2.33"/><path class="cls-14" d="M61.66,65.92l.48-1.68,6.78,1.89-.56,1.68s-2.44-.47-3.77,2.45l-1.47-.6S63.64,66.91,61.66,65.92Z"/><path class="cls-14" d="M58.8,31.78,60,32.86a1,1,0,0,1,.06,1.33h0a.94.94,0,0,1-1.33.07l-1.2-1.09a.94.94,0,0,1-.06-1.33h0A1,1,0,0,1,58.8,31.78Z"/><path class="cls-14" d="M85.14,38.54l1.57-.38a1,1,0,0,1,1.14.69h0A1,1,0,0,1,87.16,40l-1.57.39a.94.94,0,0,1-1.14-.7h0A.94.94,0,0,1,85.14,38.54Z"/><rect class="cls-9" x="34.28" y="87.71" width="2.26" height="2.01"/><path class="cls-15" d="M91.06,73a14.07,14.07,0,0,1-9.43,11.48C80,84.93,77,82.22,77,82.22s-3.52,1.74-4.84.88a14,14,0,0,1-5.75-14c1.19-7.6,6.66-8.07,13.47-7S92.25,65.35,91.06,73Z"/><path class="cls-3" d="M90.84,68.44a13,13,0,0,1-.15,2.09c-.89,5.67-14.46,10.19-18.28,9.52-3.18-.56-5.29-3.52-6.15-7.1A13.54,13.54,0,0,0,72.13,83.1c1.32.86,4.84-.88,4.84-.88s3,2.71,4.66,2.22A14.07,14.07,0,0,0,91.06,73,9.73,9.73,0,0,0,90.84,68.44Z"/><path class="cls-3" d="M89.75,55s-.74,4-3.33,5.13-6-.84-6-.84.73-3.94,3.32-5.13S89.75,55,89.75,55Z"/><path class="cls-16" d="M76.11,63.74H76a5.94,5.94,0,0,0-1.33-.07.52.52,0,0,1,0-1,7.24,7.24,0,0,1,1.54.08.52.52,0,0,1,.43.59A.52.52,0,0,1,76.11,63.74Z"/><path class="cls-16" d="M68.19,69.52h-.08a.51.51,0,0,1-.43-.58,7.41,7.41,0,0,1,5.11-6,.5.5,0,0,1,.64.33.52.52,0,0,1-.33.65,6.38,6.38,0,0,0-4.41,5.13A.51.51,0,0,1,68.19,69.52Z"/><path class="cls-9" d="M79.85,62.45h0a.36.36,0,0,1-.33-.39s.3-4.51-1.23-7.7a.36.36,0,0,1,.17-.48.35.35,0,0,1,.48.17,18.36,18.36,0,0,1,1.29,8.06A.36.36,0,0,1,79.85,62.45Z"/></g></g></svg>