<svg id="Сгруппировать_766" data-name="Сгруппировать 766" xmlns="http://www.w3.org/2000/svg" width="13.361" height="18.109" viewBox="0 0 13.361 18.109">
  <path id="Контур_1443" data-name="Контур 1443" d="M767.716,137.26c-.553,0-1.106,0-1.658,0-.226,0-.412-.095-.36-.313a.549.549,0,0,1,.374-.354c1.1-.023,2.211,0,3.316,0,.239,0,.4.1.4.348s-.169.333-.412.329c-.553-.011-1.105,0-1.658,0Z" transform="translate(-765.539 -130.105)" fill="#007dd1"/>
  <path id="Контур_1444" data-name="Контур 1444" d="M877.163,77.879c-.082-.058-.242-.112-.271-.206a.466.466,0,0,1,.078-.387c.542-.582,1.1-1.147,1.659-1.715a1.71,1.71,0,0,1,.419-.374.451.451,0,0,1,.414.037c.084.082.132.347.07.412-.7.733-1.414,1.443-2.132,2.155C877.359,77.842,877.278,77.843,877.163,77.879Z" transform="translate(-867.663 -73.693)" fill="#007dd1"/>
  <path id="Контур_1445" data-name="Контур 1445" d="M786.837,77.512c-.06.084-.109.229-.2.259a.487.487,0,0,1-.4-.025c-.709-.681-1.405-1.375-2.081-2.088a.472.472,0,0,1,.02-.449.422.422,0,0,1,.414-.051c.729.7,1.436,1.418,2.146,2.136A.867.867,0,0,1,786.837,77.512Z" transform="translate(-782.455 -73.657)" fill="#007dd1"/>
  <path id="Контур_1446" data-name="Контур 1446" d="M842.972,58.882c0,.446,0,.892,0,1.339,0,.284-.1.48-.409.489-.327.01-.313-.266-.318-.463-.021-.906-.035-1.812-.008-2.717a.549.549,0,0,1,.352-.391c.235-.042.385.142.384.406,0,.446,0,.892,0,1.339Z" transform="translate(-835.834 -57.132)" fill="#007dd1"/>
  <path id="Контур_1447" data-name="Контур 1447" d="M885.68,137.289c-.485,0-.97,0-1.455,0-.216,0-.371-.068-.351-.328.018-.222.109-.337.355-.336.943,0,1.887-.023,2.829,0a.536.536,0,0,1,.383.341c.043.225-.139.346-.387.341-.458-.01-.916,0-1.374,0Z" transform="translate(-874.087 -130.135)" fill="#007dd1"/>
  <path id="Контур_1448" data-name="Контур 1448" d="M806.292,137.492c-1.054,0-2.108.013-3.161,0a1.183,1.183,0,0,1-1.331-1.351c-.012-1.7-.017-3.408-.041-5.112a.442.442,0,0,1,.368-.5,3.836,3.836,0,0,0,2.526-2.226,5.6,5.6,0,0,0,.212-1.591c.033-.5.015-1,.007-1.5,0-.209.075-.281.283-.288a1.294,1.294,0,0,1,1.435,1.309c.034.946.054,1.893.045,2.839,0,.41.158.557.545.556q1.581-.006,3.162.008a1.262,1.262,0,0,1,1.379,1.615c-.26,1.709-.525,3.418-.812,5.122a1.317,1.317,0,0,1-1.374,1.125C808.454,137.5,807.373,137.492,806.292,137.492Z" transform="translate(-798.668 -119.388)" fill="#007dd1"/>
  <path id="Контур_1449" data-name="Контур 1449" d="M766.179,194.285c0,.96-.012,1.92.006,2.88.007.352-.141.5-.467.51-.473.009-.945.016-1.418.007-.31-.006-.448-.177-.447-.5q.011-2.941,0-5.882c0-.329.149-.477.457-.481.473-.007.946-.007,1.418,0,.328,0,.479.156.474.506-.015.987-.005,1.974-.005,2.962Z" transform="translate(-763.853 -179.915)" fill="#007dd1"/>
</svg>
