<svg id="Сгруппировать_767" data-name="Сгруппировать 767" xmlns="http://www.w3.org/2000/svg" width="14.016" height="14.023" viewBox="0 0 14.016 14.023">
  <path id="Контур_1450" data-name="Контур 1450" d="M-1512.754-531.753h-.14c-1.124,0-2.249,0-3.373,0a2.622,2.622,0,0,1-2.445-1.694,2.556,2.556,0,0,1-.172-.917q0-1.826,0-3.653,0-.793,0-1.587a2.621,2.621,0,0,1,2.152-2.614,2.6,2.6,0,0,1,.5-.046q3.578,0,7.156,0c.522,0,1.045-.01,1.567,0a2.581,2.581,0,0,1,2.4,1.529,2.5,2.5,0,0,1,.242,1.131q0,1.951,0,3.9c0,.429,0,.858,0,1.287a2.612,2.612,0,0,1-2.258,2.631,5.266,5.266,0,0,1-.757.028.277.277,0,0,0-.216.09q-1.312,1.319-2.63,2.633-.257.257-.515.514a.862.862,0,0,1-.964.2.847.847,0,0,1-.542-.822c-.006-.822,0-1.643,0-2.465Zm1.754.507.09-.086q.945-.945,1.89-1.891a.919.919,0,0,1,.689-.284c.27,0,.539,0,.808,0a.865.865,0,0,0,.9-.891q0-2.61,0-5.219a.868.868,0,0,0-.905-.9h-8.672a.875.875,0,0,0-.929.922q0,2.49,0,4.98a2.511,2.511,0,0,0,.01.349.865.865,0,0,0,.877.755q2.176,0,4.351,0a.872.872,0,0,1,.892.89c0,.416,0,.832,0,1.247Z" transform="translate(1518.885 542.27)" fill="#007dd1"/>
  <path id="Контур_1451" data-name="Контур 1451" d="M-1209.992-321.663a.875.875,0,0,1-.878.874.878.878,0,0,1-.875-.878.875.875,0,0,1,.88-.872A.872.872,0,0,1-1209.992-321.663Z" transform="translate(1217.876 326.927)" fill="#007dd1"/>
  <path id="Контур_1452" data-name="Контур 1452" d="M-1079.144-322.537a.875.875,0,0,1,.874.878.88.88,0,0,1-.881.873.875.875,0,0,1-.872-.88A.872.872,0,0,1-1079.144-322.537Z" transform="translate(1088.784 326.924)" fill="#007dd1"/>
  <path id="Контур_1453" data-name="Контур 1453" d="M-1343.221-321.666a.87.87,0,0,1,.88-.868.874.874,0,0,1,.869.881.874.874,0,0,1-.881.869A.873.873,0,0,1-1343.221-321.666Z" transform="translate(1346.728 326.921)" fill="#007dd1"/>
</svg>
