<svg id="Icon_call_outline" xmlns="http://www.w3.org/2000/svg" width="12" height="12" viewBox="0 0 12 12">
  <path id="Shape" d="M8.726,12a5.683,5.683,0,0,1-2.607-.485A11.873,11.873,0,0,1,2.955,9.038,11.431,11.431,0,0,1,.478,5.692,5.7,5.7,0,0,1,0,3.256,3.44,3.44,0,0,1,.262,1.841,4.374,4.374,0,0,1,1.245.474,1.725,1.725,0,0,1,2.466,0l.078,0A1.884,1.884,0,0,1,3.792.518L5.079,1.751l.009.009a1.814,1.814,0,0,1,.5,1.281,1.812,1.812,0,0,1-.5,1.281l-.626.627A3.9,3.9,0,0,0,5.45,6.529a3.8,3.8,0,0,0,1.585,1L7.661,6.9a1.895,1.895,0,0,1,2.56,0L11.5,8.19a1.9,1.9,0,0,1,0,2.562A4.3,4.3,0,0,1,8.726,12ZM2.466,1.2a.534.534,0,0,0-.371.122,3.247,3.247,0,0,0-.728.991,2.277,2.277,0,0,0-.166.943,4.516,4.516,0,0,0,.378,1.956A10.294,10.294,0,0,0,3.805,8.19a10.845,10.845,0,0,0,2.823,2.238,4.527,4.527,0,0,0,2.1.372,3.154,3.154,0,0,0,1.928-.9.719.719,0,0,0,0-.867L9.371,7.752a.711.711,0,0,0-.861,0l-.855.857a.6.6,0,0,1-.509.17A4.7,4.7,0,0,1,4.6,7.374,4.736,4.736,0,0,1,3.214,4.841a.6.6,0,0,1,.169-.509l.855-.857a.627.627,0,0,0,.146-.434.632.632,0,0,0-.142-.43L2.958,1.38l-.01-.009A.687.687,0,0,0,2.5,1.2H2.466Z" fill="#007dd1"/>
</svg>
