<svg id="Map" xmlns="http://www.w3.org/2000/svg" width="10.986" height="13.259" viewBox="0 0 10.986 13.259">
  <path id="Контур_982" data-name="Контур 982" d="M13.155,8.714a2.441,2.441,0,1,1-2.441-2.441A2.441,2.441,0,0,1,13.155,8.714Zm-1.221,0a1.221,1.221,0,1,1-1.221-1.221A1.221,1.221,0,0,1,11.934,8.714Z" transform="translate(-5.054 -3.054)" fill="#007dd1" fill-rule="evenodd"/>
  <path id="Контур_983" data-name="Контур 983" d="M4.705,10.472a5.493,5.493,0,1,1,7.766-.191L8.684,14.259Zm6.882-1.032L8.641,12.533,5.547,9.588a4.272,4.272,0,1,1,6.04-.148Z" transform="translate(-3 -1)" fill="#007dd1" fill-rule="evenodd"/>
</svg>
