<svg xmlns="http://www.w3.org/2000/svg" width="13.575" height="16.968" viewBox="0 0 13.575 16.968">
  <g id="Icon_search_outline" transform="matrix(0.719, 0.695, -0.695, 0.719, 6.669, 0)">
    <path id="Shape" d="M4.8,9.6A4.8,4.8,0,1,1,9.6,4.8,4.806,4.806,0,0,1,4.8,9.6Zm0-8.4A3.6,3.6,0,1,0,8.4,4.8,3.6,3.6,0,0,0,4.8,1.2Z" fill="#007dd1"/>
    <path id="Path" d="M.176.176a.6.6,0,0,1,.849,0l3.6,3.6a.6.6,0,1,1-.849.849l-3.6-3.6A.6.6,0,0,1,.176.176Z" transform="translate(7.2 7.2)" fill="#007dd1"/>
  </g>
</svg>
