<svg width="120" height="120" viewBox="0 0 120 120" fill="none" xmlns="http://www.w3.org/2000/svg">
<circle cx="60" cy="60" r="60" fill="#47991F"/>
<g clip-path="url(#clip0)">
<path d="M87.9595 84.8788C87.7098 84.8788 87.4585 84.8688 87.2057 84.8487L55.1849 82.2273C52.784 82.0287 50.5032 81.0917 48.6555 79.5448C46.8078 77.9978 45.4836 75.9167 44.8645 73.5868L38.6213 49.9734C37.5139 45.775 36.3694 41.4339 31.4782 40.118L17.5551 37.2529C17.0476 37.1485 16.6024 36.8468 16.3173 36.4139C16.0322 35.9811 15.9306 35.4526 16.0348 34.9448C16.1391 34.437 16.4407 33.9914 16.8732 33.7061C17.3057 33.4208 17.8338 33.3192 18.3413 33.4235L32.4233 36.3245C39.5548 38.2033 41.1967 44.4278 42.3958 48.9731L42.4758 49.2771L48.6378 72.5958C49.0499 74.1455 49.9308 75.5298 51.1598 76.5589C52.3887 77.5881 53.9056 78.2117 55.5026 78.3445L87.5235 80.9601C88.759 81.0605 89.9908 80.7267 91.0067 80.0161C92.0227 79.3054 92.7593 78.2625 93.0895 77.0669L98.9883 55.6687L58.1001 52.3035C57.6705 52.2682 57.2386 52.3359 56.8404 52.501C56.4421 52.6661 56.089 52.9238 55.8102 53.2528C55.5314 53.5819 55.335 53.9727 55.2374 54.3928C55.1397 54.813 55.1436 55.2504 55.2486 55.6687L57.0738 62.8912C57.3718 64.0595 58.0207 65.1082 58.9332 65.8957C59.8456 66.6832 60.9774 67.1716 62.176 67.295L81.453 69.2387C81.7279 69.269 82.006 69.2444 82.2712 69.1663C82.5364 69.0882 82.7835 68.9581 82.9981 68.7836C83.2127 68.6091 83.3905 68.3937 83.5212 68.1499C83.6519 67.9061 83.7329 67.6387 83.7595 67.3633C83.786 67.0879 83.7577 66.8099 83.676 66.5456C83.5944 66.2813 83.461 66.0358 83.2838 65.8234C83.1065 65.6111 82.8889 65.4361 82.6435 65.3086C82.3981 65.1812 82.1298 65.1038 81.8542 65.0809L65.6652 63.5828C65.4102 63.5592 65.1622 63.4855 64.9356 63.366C64.709 63.2465 64.5081 63.0835 64.3444 62.8863C64.1808 62.6891 64.0575 62.4616 63.9817 62.2167C63.9059 61.9719 63.879 61.7145 63.9026 61.4592C63.9263 61.204 63.9999 60.9559 64.1193 60.7291C64.2387 60.5023 64.4016 60.3013 64.5986 60.1375C64.7957 59.9737 65.0231 59.8504 65.2677 59.7745C65.5124 59.6987 65.7696 59.6718 66.0247 59.6954L82.2126 61.1935C82.9984 61.2652 83.7623 61.4915 84.4605 61.8596C85.1586 62.2278 85.7771 62.7303 86.2805 63.3384C86.7839 63.9465 87.1622 64.6482 87.3937 65.4031C87.6253 66.1581 87.7054 66.9513 87.6295 67.7373C87.5536 68.5233 87.3233 69.2866 86.9517 69.9832C86.58 70.6798 86.0745 71.2961 85.4641 71.7965C84.8537 72.297 84.1505 72.6718 83.3949 72.8993C82.6392 73.1269 81.8461 73.2028 81.0611 73.1226L61.7841 71.1789C59.7889 70.9737 57.9048 70.1608 56.386 68.8499C54.8672 67.539 53.787 65.7933 53.2913 63.8485L51.4661 56.6261C51.2073 55.6048 51.1961 54.5364 51.4334 53.5099C51.6707 52.4834 52.1496 51.5284 52.8302 50.7246C53.5109 49.9207 54.3736 49.2912 55.3465 48.8885C56.3194 48.4857 57.3744 48.3214 58.4236 48.4091L104.006 52.1561L96.8547 78.0973C96.3169 80.0455 95.1558 81.7635 93.5492 82.9883C91.9426 84.2131 89.9791 84.8772 87.9595 84.8788V84.8788Z" fill="white"/>
<path d="M54.4382 95.0011C57.3707 95.0011 59.7479 92.6222 59.7479 89.6876C59.7479 86.753 57.3707 84.374 54.4382 84.374C51.5057 84.374 49.1284 86.753 49.1284 89.6876C49.1284 92.6222 51.5057 95.0011 54.4382 95.0011Z" fill="white"/>
<path d="M82.935 94.5115C84.7064 94.5115 86.1424 93.0744 86.1424 91.3018C86.1424 89.5291 84.7064 88.092 82.935 88.092C81.1635 88.092 79.7275 89.5291 79.7275 91.3018C79.7275 93.0744 81.1635 94.5115 82.935 94.5115Z" fill="white"/>
<path d="M49.5074 47.1338C52.0806 47.1338 54.1666 45.0463 54.1666 42.4713C54.1666 39.8962 52.0806 37.8087 49.5074 37.8087C46.9342 37.8087 44.8481 39.8962 44.8481 42.4713C44.8481 45.0463 46.9342 47.1338 49.5074 47.1338Z" fill="#FF6700"/>
<path d="M56.5092 37.6045C59.9873 37.6045 62.8069 34.7829 62.8069 31.3022C62.8069 27.8216 59.9873 25 56.5092 25C53.031 25 50.2114 27.8216 50.2114 31.3022C50.2114 34.7829 53.031 37.6045 56.5092 37.6045Z" fill="#FFF200"/>
<path d="M59.0787 43.1223C60.2955 43.1223 61.2819 42.1352 61.2819 40.9175C61.2819 39.6998 60.2955 38.7127 59.0787 38.7127C57.8619 38.7127 56.8755 39.6998 56.8755 40.9175C56.8755 42.1352 57.8619 43.1223 59.0787 43.1223Z" fill="#FFF200"/>
<path d="M69.8605 39.5981C72.6732 39.5981 74.9534 37.3163 74.9534 34.5015C74.9534 31.6868 72.6732 29.405 69.8605 29.405C67.0478 29.405 64.7676 31.6868 64.7676 34.5015C64.7676 37.3163 67.0478 39.5981 69.8605 39.5981Z" fill="#FF6700"/>
<path d="M75.7027 48.2177C77.9916 48.2177 79.8471 46.3608 79.8471 44.0703C79.8471 41.7798 77.9916 39.923 75.7027 39.923C73.4138 39.923 71.5583 41.7798 71.5583 44.0703C71.5583 46.3608 73.4138 48.2177 75.7027 48.2177Z" fill="#FF6700"/>
<path d="M93.297 50.0349C95.5858 50.0349 97.4413 48.1781 97.4413 45.8876C97.4413 43.5971 95.5858 41.7402 93.297 41.7402C91.0081 41.7402 89.1526 43.5971 89.1526 45.8876C89.1526 48.1781 91.0081 50.0349 93.297 50.0349Z" fill="#FFF200"/>
<path d="M65.8693 47.5679C67.3954 47.5679 68.6326 46.3298 68.6326 44.8026C68.6326 43.2754 67.3954 42.0373 65.8693 42.0373C64.3431 42.0373 63.106 43.2754 63.106 44.8026C63.106 46.3298 64.3431 47.5679 65.8693 47.5679Z" fill="#FFF200"/>
<path d="M81.9052 38.2416C83.82 38.2416 85.3723 36.6881 85.3723 34.7719C85.3723 32.8557 83.82 31.3022 81.9052 31.3022C79.9903 31.3022 78.438 32.8557 78.438 34.7719C78.438 36.6881 79.9903 38.2416 81.9052 38.2416Z" fill="#FFF200"/>
<path d="M84.0736 48.6528C85.5997 48.6528 86.8369 47.4148 86.8369 45.8875C86.8369 44.3603 85.5997 43.1223 84.0736 43.1223C82.5475 43.1223 81.3103 44.3603 81.3103 45.8875C81.3103 47.4148 82.5475 48.6528 84.0736 48.6528Z" fill="#FFF200"/>
<path d="M87.7032 41.9294C88.9898 41.9294 90.0328 40.8856 90.0328 39.5981C90.0328 38.3105 88.9898 37.2668 87.7032 37.2668C86.4165 37.2668 85.3735 38.3105 85.3735 39.5981C85.3735 40.8856 86.4165 41.9294 87.7032 41.9294Z" fill="#FF6700"/>
</g>
<defs>
<clipPath id="clip0">
<rect width="88" height="70" fill="white" transform="translate(16 25)"/>
</clipPath>
</defs>
</svg>
